<?xml version="1.0" encoding="utf-8"?>
<!-- Generator: Adobe Illustrator 18.1.1, SVG Export Plug-In . SVG Version: 6.00 Build 0)  -->
<!DOCTYPE svg PUBLIC "-//W3C//DTD SVG 1.1//EN" "http://www.w3.org/Graphics/SVG/1.1/DTD/svg11.dtd">
<svg version="1.1" id="Layer_1" xmlns="http://www.w3.org/2000/svg" xmlns:xlink="http://www.w3.org/1999/xlink" x="0px" y="0px"
	 viewBox="0 0 110 110" style="enable-background:new 0 0 110 110;" xml:space="preserve">
<style type="text/css">
	.st0{fill:none;stroke:#EE3A39;stroke-width:3;stroke-linecap:round;stroke-miterlimit:10;}
	.st1{fill:#FFFFFF;stroke:#EE3A39;stroke-width:3;stroke-linecap:round;stroke-miterlimit:10;}
</style>
<path class="st0" d="M21.7,86.1c14.4,14.4,37.8,14.4,52.2,0s14.4-37.8,0-52.2"/>
<line class="st0" x1="28" y1="99.5" x2="84" y2="99.5"/>
<line class="st0" x1="12.7" y1="65.1" x2="37.5" y2="89.8"/>
<circle class="st1" cx="21.3" cy="83.4" r="6.5"/>
<path class="st1" d="M83.5,36.2c2.7-2.7,2.1-8.1,2.1-11l7-7c2.4-2.4,2.4-6.4-0.1-8.8c-2.4-2.4-6.4-2.5-8.8-0.1l-7,7
	c-4.4-1.5-8.3-0.6-11,2.1L25.6,58.5l17.8,17.8L83.5,36.2z"/>
<circle class="st1" cx="78.8" cy="39.8" r="6.5"/>
</svg>
