<?xml version="1.0" encoding="utf-8"?>
<!-- Generator: Adobe Illustrator 18.1.1, SVG Export Plug-In . SVG Version: 6.00 Build 0)  -->
<!DOCTYPE svg PUBLIC "-//W3C//DTD SVG 1.1//EN" "http://www.w3.org/Graphics/SVG/1.1/DTD/svg11.dtd">
<svg version="1.1" id="Layer_1" xmlns="http://www.w3.org/2000/svg" xmlns:xlink="http://www.w3.org/1999/xlink" x="0px" y="0px"
	 viewBox="0 0 110 110" style="enable-background:new 0 0 110 110;" xml:space="preserve">
<style type="text/css">
	.st0{fill:#FFFFFF;stroke:#EE3A39;stroke-width:3;stroke-linecap:round;stroke-linejoin:round;stroke-miterlimit:10;}
	.st1{fill:none;stroke:#EE3A39;stroke-width:3;stroke-linecap:round;stroke-miterlimit:10;}
</style>
<path class="st0" d="M64.2,94.7L43.6,84.1c-2-1-2.8-3.5-1.8-5.6l0.3-0.6c1-2,3.5-2.8,5.6-1.8l8.1,4.2c0,0,1.8,0.5,0.6-1.6L36.1,44.8
	c-1.3-2.1-0.6-4.9,1.5-6.2l0,0c2.1-1.3,4.9-0.6,6.2,1.5L54,57.2c0.1,0.2,0.3,0.4,0.6,0.4c0.7,0.2,2.1,0.4,1.5-0.5
	c-1.3-2.1-0.8-4.7,1.3-6l0.3-0.2c2.1-1.3,4.9-0.6,6.2,1.5l1,1.6c0,0,1.8,0.3,1.2-0.7c-1.2-1.9-0.5-4.5,1.4-5.6l0.6-0.4
	c1.9-1.2,4.5-0.5,5.7,1.4l0.7,1.1c0,0,1.5-0.3,1.2-0.8c-1.2-1.9-0.3-4.6,1.6-5.7l0.4-0.3c1.9-1.2,4.5-0.5,5.7,1.4L99.1,71
	c0,0,6.6,9.3-1.4,20.6c-3.9,4.1-12.2,11-22.7,8.2C69.1,97.1,64.2,94.7,64.2,94.7z"/>
<line class="st1" x1="37.5" y1="11" x2="37.5" y2="25"/>
<line class="st1" x1="37.5" y1="59" x2="37.5" y2="74"/>
<line class="st1" x1="23" y1="40.5" x2="9" y2="40.5"/>
<line class="st1" x1="67" y1="40.5" x2="50" y2="40.5"/>
<line class="st1" x1="27.2" y1="52.1" x2="16.1" y2="63.2"/>
<line class="st1" x1="59.3" y1="18.1" x2="48.3" y2="29.2"/>
<line class="st1" x1="27.9" y1="29.2" x2="16.8" y2="18.1"/>
</svg>
