<?xml version="1.0" encoding="utf-8"?>
<!-- Generator: Adobe Illustrator 18.1.1, SVG Export Plug-In . SVG Version: 6.00 Build 0)  -->
<!DOCTYPE svg PUBLIC "-//W3C//DTD SVG 1.1//EN" "http://www.w3.org/Graphics/SVG/1.1/DTD/svg11.dtd">
<svg version="1.1" id="Layer_1" xmlns="http://www.w3.org/2000/svg" xmlns:xlink="http://www.w3.org/1999/xlink" x="0px" y="0px"
	 viewBox="0 0 110 110" style="enable-background:new 0 0 110 110;" xml:space="preserve">
<style type="text/css">
	.st0{fill:#FFFFFF;stroke:#EE3A39;stroke-width:3;stroke-miterlimit:10;}
	.st1{fill:#EE3A39;}
	.st2{fill:none;stroke:#EE3A39;stroke-width:2;stroke-linecap:round;stroke-miterlimit:10;}
	.st3{fill:#FFFFFF;stroke:#EE3A39;stroke-width:3;stroke-linecap:round;stroke-miterlimit:10;}
	.st4{fill:none;stroke:#EE3A39;stroke-width:2;stroke-linecap:square;stroke-miterlimit:10;}
</style>
<path class="st0" d="M15.2,95.1V19.5c0-4.7,3.8-8.5,8.5-8.5h40c4.7,0,8.5,3.8,8.5,8.5v75.6c0,4.7-3.8,8.5-8.5,8.5h-40
	C19.1,103.6,15.2,99.8,15.2,95.1z"/>
<circle class="st1" cx="44" cy="8.1" r="4.3"/>
<line class="st2" x1="24" y1="28" x2="64" y2="28"/>
<line class="st2" x1="24" y1="38" x2="64" y2="38"/>
<line class="st2" x1="24" y1="49" x2="64" y2="49"/>
<line class="st2" x1="24" y1="59" x2="64" y2="59"/>
<line class="st2" x1="24" y1="69" x2="64" y2="69"/>
<line class="st2" x1="24" y1="80" x2="64" y2="80"/>
<line class="st2" x1="24" y1="90" x2="64" y2="90"/>
<path class="st3" d="M98.7,89.6H84.5V26.9l7.3-9.6l6.2,8.7c0.4,0.6,0.7,1.4,0.7,2.1V89.6z"/>
<line class="st2" x1="86" y1="28" x2="99" y2="28"/>
<line class="st4" x1="92" y1="29" x2="92" y2="90"/>
<polygon class="st1" points="91.9,17 94.2,19.5 96.5,22 91.9,22 87.4,22 89.7,19.5 "/>
<path class="st1" d="M59.3,10.7L59.3,10.7c0,2-1.6,3.6-3.6,3.6H31.8c-2,0-3.6-1.6-3.6-3.6v0c0-2,1.6-3.6,3.6-3.6h23.9
	C57.7,7.2,59.3,8.8,59.3,10.7z"/>
</svg>
