<?xml version="1.0" encoding="utf-8"?>
<!-- Generator: Adobe Illustrator 18.1.1, SVG Export Plug-In . SVG Version: 6.00 Build 0)  -->
<!DOCTYPE svg PUBLIC "-//W3C//DTD SVG 1.1//EN" "http://www.w3.org/Graphics/SVG/1.1/DTD/svg11.dtd">
<svg version="1.1" id="Layer_1" xmlns="http://www.w3.org/2000/svg" xmlns:xlink="http://www.w3.org/1999/xlink" x="0px" y="0px"
	 viewBox="0 0 180.2 23.6" style="enable-background:new 0 0 180.2 23.6;" xml:space="preserve">
<style type="text/css">
	.st0{fill:#727272;}
</style>
<g>
	<path class="st0" d="M7.8,13.3h3.4c0,0,0.4,0.1,0.4,0.5c0,0.3-0.2,0.5-0.5,0.5c-0.3,0-4.2,0-4.2,0s-0.3,0-0.4-0.3
		c-0.1-0.2-0.1-0.4,0-0.6c0.1-0.1,0.6-0.8,0.6-1.9c0,0,0.3-0.7-1.5-3.3C4.7,7,4.7,6.9,4.7,6.9s-0.4-0.6-0.3-1c0-0.4,0.5-0.8,1.5-1
		c0.4-0.1,1.8-0.1,2.1-0.2c0.4-0.5,1.4-1.6,2.6-1.1c0.3,0.2,0.6,0.3,0.7,2.3c0,0.3,0,1.1-0.1,1.1c1.3,1.7,2.2,3.8,2.5,6.3
		c2.1,0,3.9,0,3.9,0s1.4,0.1,2.4-1.8c0.2-0.5,0.6-1.8-1-3.1C18.3,8,17.4,7.6,15.9,7c-1.6-0.8-2.2-1.7-2.3-3.5C13.6,3,14,0.1,17.5,0
		c0.5,0,2.2,0.2,3.5,1.1c0.2,0.1,0.2,0.5,0.1,0.6C21,1.8,20.8,2,20.3,1.8c-0.5-0.2-2.2-1.1-3.9-0.6c-0.2,0.1-1.7,0.5-1.8,2.2
		c0,0.6,0,1.5,0.9,2.1c0.9,0.5,1.3,0.7,2.3,1.1c1.6,0.7,3.3,1.8,3.3,4.1c0,1.1-0.8,3.2-3.5,3.6c-2.3,0-4.4,0-4.4,0s-0.5,0-0.5-0.6
		c0-0.5-0.1-1.9-0.7-3.3c-0.7-1.5-1.3-2.4-1.7-3.1c0.1-1.3,0.1-2.2-0.1-2.8c-0.3,0-0.5-0.2-1.6,1.2c-1,0-2.1,0.1-2.8,0.2
		C5.6,6,5.4,6.1,5.5,6.2C6.3,7.5,6.9,8.3,7.3,9C8.1,10.6,8.4,11.3,7.8,13.3"/>
	<circle class="st0" cx="8.1" cy="7.3" r="0.6"/>
	<g>
		<path class="st0" d="M34.9,10.8c0.3,0,0.4,0.2,0.4,0.4c0,0.2-0.2,0.4-0.4,0.4h-2.1v1.5h1.9c0.3,0,0.4,0.2,0.4,0.4
			c0,0.2-0.2,0.4-0.4,0.4h-1.9v2.2c0,0.3-0.2,0.4-0.4,0.4c-0.3,0-0.4-0.2-0.4-0.4v-4.9c0-0.3,0.2-0.5,0.5-0.5H34.9z"/>
		<path class="st0" d="M39.3,14v0.9c0,1.1-0.6,1.7-1.7,1.7c-1.1,0-1.7-0.6-1.7-1.7V14c0-1.1,0.6-1.7,1.7-1.7
			C38.7,12.3,39.3,12.9,39.3,14z M36.7,14v1c0,0.6,0.3,0.9,0.9,0.9c0.6,0,0.9-0.3,0.9-0.9v-1c0-0.6-0.3-0.9-0.9-0.9
			C37.1,13.1,36.7,13.4,36.7,14z"/>
		<path class="st0" d="M43.6,12.7v3.2c0,0.2-0.1,0.4-0.4,0.5c-0.4,0.1-0.8,0.2-1.3,0.2c-1.1,0-1.7-0.5-1.7-1.6v-2.3
			c0-0.2,0.2-0.4,0.4-0.4c0.2,0,0.4,0.2,0.4,0.4V15c0,0.5,0.3,0.8,0.8,0.8c0.3,0,0.5,0,0.8-0.1v-3c0-0.2,0.2-0.4,0.4-0.4
			C43.4,12.3,43.6,12.5,43.6,12.7z"/>
		<path class="st0" d="M48.1,13.9v2.3c0,0.2-0.2,0.4-0.4,0.4c-0.2,0-0.4-0.2-0.4-0.4v-2.3c0-0.5-0.3-0.8-0.8-0.8
			c-0.3,0-0.5,0-0.8,0.1v3c0,0.2-0.2,0.4-0.4,0.4c-0.2,0-0.4-0.2-0.4-0.4V13c0-0.2,0.1-0.4,0.4-0.5c0.4-0.1,0.8-0.2,1.3-0.2
			C47.6,12.3,48.1,12.8,48.1,13.9z"/>
		<path class="st0" d="M52.5,11.1v4.8c0,0.2-0.1,0.4-0.4,0.5c-0.4,0.1-0.9,0.2-1.3,0.2c-1,0-1.7-0.5-1.7-1.6v-1.1
			c0-1.1,0.6-1.6,1.6-1.6c0.3,0,0.6,0.1,0.9,0.2v-1.4c0-0.2,0.2-0.4,0.4-0.4C52.3,10.7,52.5,10.9,52.5,11.1z M50,13.9V15
			c0,0.5,0.3,0.8,0.8,0.8c0.3,0,0.6,0,0.8-0.1v-2.4c-0.2-0.2-0.5-0.3-0.8-0.3C50.3,13.1,50,13.3,50,13.9z"/>
		<path class="st0" d="M57.4,10.8c1.4,0,2.3,0.8,2.3,2.2v1.3c0,1.4-0.9,2.2-2.3,2.2h-1.1c-0.3,0-0.5-0.2-0.5-0.5v-4.7
			c0-0.3,0.2-0.5,0.5-0.5H57.4z M56.6,11.6v4.1h0.8c0.9,0,1.4-0.5,1.4-1.4V13c0-0.9-0.5-1.4-1.4-1.4H56.6z"/>
		<path class="st0" d="M61.7,11.2c0,0.3-0.2,0.5-0.5,0.5s-0.5-0.2-0.5-0.5c0-0.3,0.2-0.5,0.5-0.5S61.7,10.9,61.7,11.2z M61.6,12.7
			v3.5c0,0.2-0.2,0.4-0.4,0.4c-0.2,0-0.4-0.2-0.4-0.4v-3.5c0-0.2,0.2-0.4,0.4-0.4C61.4,12.3,61.6,12.5,61.6,12.7z"/>
		<path class="st0" d="M65.6,12.5c0.2,0.1,0.4,0.3,0.4,0.5v3.7c0,1-0.6,1.6-1.6,1.6c-0.5,0-0.9-0.1-1.3-0.3
			c-0.1-0.1-0.2-0.2-0.2-0.3c0-0.2,0.1-0.4,0.4-0.4c0.1,0,0.1,0,0.2,0c0.3,0.1,0.5,0.2,0.9,0.2c0.6,0,0.8-0.4,0.8-0.9v-0.4
			c-0.3,0.2-0.6,0.3-0.9,0.3c-1,0-1.6-0.6-1.6-1.6v-1.1c0-1.1,0.6-1.6,1.7-1.6C64.8,12.3,65.2,12.4,65.6,12.5z M63.5,13.9V15
			c0,0.6,0.3,0.8,0.8,0.8c0.3,0,0.6-0.1,0.8-0.3v-2.4c-0.3-0.1-0.5-0.1-0.8-0.1C63.8,13.1,63.5,13.4,63.5,13.9z"/>
		<path class="st0" d="M68.1,11.2c0,0.3-0.2,0.5-0.5,0.5c-0.3,0-0.5-0.2-0.5-0.5c0-0.3,0.2-0.5,0.5-0.5
			C67.9,10.7,68.1,10.9,68.1,11.2z M68,12.7v3.5c0,0.2-0.2,0.4-0.4,0.4c-0.2,0-0.4-0.2-0.4-0.4v-3.5c0-0.2,0.2-0.4,0.4-0.4
			C67.8,12.3,68,12.5,68,12.7z"/>
		<path class="st0" d="M70,11.1v1.3h0.8c0.3,0,0.4,0.2,0.4,0.4c0,0.2-0.1,0.4-0.4,0.4H70v2.2c0,0.3,0.2,0.5,0.4,0.5
			c0.2,0,0.3,0,0.4,0c0.2,0,0.4,0.1,0.4,0.4c0,0.2-0.1,0.4-0.4,0.4c-0.2,0-0.3,0-0.5,0c-0.7,0-1.2-0.4-1.2-1.3v-4.2
			c0-0.2,0.2-0.4,0.4-0.4C69.9,10.7,70,10.9,70,11.1z"/>
		<path class="st0" d="M75.1,13.6V16c0,0.2-0.1,0.4-0.3,0.5c-0.3,0.1-0.8,0.2-1.3,0.2c-1,0-1.7-0.4-1.7-1.3c0-0.9,0.8-1.3,1.7-1.3
			h0.7v-0.3c0-0.3-0.2-0.6-0.7-0.6c-0.3,0-0.5,0-0.7,0.1c-0.1,0.1-0.2,0.1-0.4,0.1c-0.2,0-0.4-0.2-0.4-0.4c0-0.1,0.1-0.3,0.2-0.3
			c0.2-0.1,0.7-0.3,1.3-0.3C74.3,12.3,75.1,12.7,75.1,13.6z M73.5,14.8c-0.5,0-0.8,0.1-0.8,0.5c0,0.4,0.3,0.5,0.9,0.5
			c0.3,0,0.5,0,0.8-0.1v-1H73.5z"/>
		<path class="st0" d="M77,11.1v5.1c0,0.2-0.2,0.4-0.4,0.4c-0.2,0-0.4-0.2-0.4-0.4v-5.1c0-0.2,0.2-0.4,0.4-0.4
			C76.9,10.7,77,10.9,77,11.1z"/>
		<path class="st0" d="M81.2,11.2c0,0.3-0.2,0.5-0.5,0.5c-0.3,0-0.5-0.2-0.5-0.5c0-0.3,0.2-0.5,0.5-0.5C81,10.7,81.2,10.9,81.2,11.2
			z M81.2,12.7v3.5c0,0.2-0.2,0.4-0.4,0.4c-0.2,0-0.4-0.2-0.4-0.4v-3.5c0-0.2,0.2-0.4,0.4-0.4C81,12.3,81.2,12.5,81.2,12.7z"/>
		<path class="st0" d="M84.7,12.5c0.1,0.1,0.2,0.2,0.2,0.3c0,0.2-0.2,0.4-0.4,0.4c-0.1,0-0.2,0-0.2,0c-0.2-0.1-0.4-0.1-0.7-0.1
			c-0.4,0-0.6,0.2-0.6,0.4c0,0.3,0.3,0.4,0.5,0.5l0.7,0.3c0.5,0.2,0.8,0.5,0.8,1.1c0,0.7-0.5,1.3-1.4,1.3c-0.5,0-0.9-0.1-1.2-0.3
			c-0.1-0.1-0.2-0.2-0.2-0.3c0-0.2,0.1-0.4,0.4-0.4c0.1,0,0.1,0,0.2,0c0.2,0.1,0.4,0.2,0.8,0.2c0.4,0,0.7-0.2,0.7-0.5
			c0-0.3-0.3-0.4-0.6-0.5L83,14.6c-0.4-0.1-0.8-0.4-0.8-1.1c0-0.7,0.6-1.2,1.4-1.2C84,12.3,84.4,12.4,84.7,12.5z"/>
		<path class="st0" d="M91.2,13.6V16c0,0.2-0.1,0.4-0.3,0.5c-0.3,0.1-0.8,0.2-1.3,0.2c-1,0-1.7-0.4-1.7-1.3c0-0.9,0.8-1.3,1.7-1.3
			h0.7v-0.3c0-0.3-0.2-0.6-0.7-0.6c-0.3,0-0.5,0-0.7,0.1c-0.1,0.1-0.2,0.1-0.4,0.1c-0.2,0-0.4-0.2-0.4-0.4c0-0.1,0.1-0.3,0.2-0.3
			c0.2-0.1,0.7-0.3,1.3-0.3C90.5,12.3,91.2,12.7,91.2,13.6z M89.6,14.8c-0.5,0-0.8,0.1-0.8,0.5c0,0.4,0.3,0.5,0.9,0.5
			c0.3,0,0.5,0,0.8-0.1v-1H89.6z"/>
		<path class="st0" d="M97.6,11.1v4.8c0,0.2-0.1,0.4-0.4,0.5c-0.4,0.1-0.9,0.2-1.3,0.2c-1,0-1.7-0.5-1.7-1.6v-1.1
			c0-1.1,0.6-1.6,1.6-1.6c0.3,0,0.6,0.1,0.9,0.2v-1.4c0-0.2,0.2-0.4,0.4-0.4C97.4,10.7,97.6,10.9,97.6,11.1z M95.1,13.9V15
			c0,0.5,0.3,0.8,0.8,0.8c0.3,0,0.6,0,0.8-0.1v-2.4c-0.2-0.2-0.5-0.3-0.8-0.3C95.4,13.1,95.1,13.3,95.1,13.9z"/>
		<path class="st0" d="M99.7,11.2c0,0.3-0.2,0.5-0.5,0.5s-0.5-0.2-0.5-0.5c0-0.3,0.2-0.5,0.5-0.5S99.7,10.9,99.7,11.2z M99.6,12.7
			v3.5c0,0.2-0.2,0.4-0.4,0.4c-0.2,0-0.4-0.2-0.4-0.4v-3.5c0-0.2,0.2-0.4,0.4-0.4C99.5,12.3,99.6,12.5,99.6,12.7z"/>
		<path class="st0" d="M103.8,12.7c0,0.1,0,0.1,0,0.2l-1.1,3.3c-0.1,0.3-0.3,0.4-0.5,0.4c-0.2,0-0.5-0.1-0.6-0.4l-1.1-3.3
			c0-0.1,0-0.1,0-0.2c0-0.2,0.1-0.4,0.4-0.4c0.2,0,0.3,0.1,0.4,0.3l0.9,2.8l0.9-2.8c0.1-0.2,0.2-0.3,0.4-0.3
			C103.7,12.3,103.8,12.5,103.8,12.7z"/>
		<path class="st0" d="M105.5,11.2c0,0.3-0.2,0.5-0.5,0.5c-0.3,0-0.5-0.2-0.5-0.5c0-0.3,0.2-0.5,0.5-0.5
			C105.3,10.7,105.5,10.9,105.5,11.2z M105.5,12.7v3.5c0,0.2-0.2,0.4-0.4,0.4c-0.2,0-0.4-0.2-0.4-0.4v-3.5c0-0.2,0.2-0.4,0.4-0.4
			C105.3,12.3,105.5,12.5,105.5,12.7z"/>
		<path class="st0" d="M109,12.5c0.1,0.1,0.2,0.2,0.2,0.3c0,0.2-0.2,0.4-0.4,0.4c-0.1,0-0.2,0-0.2,0c-0.2-0.1-0.4-0.1-0.7-0.1
			c-0.4,0-0.6,0.2-0.6,0.4c0,0.3,0.3,0.4,0.5,0.5l0.7,0.3c0.5,0.2,0.8,0.5,0.8,1.1c0,0.7-0.5,1.3-1.4,1.3c-0.5,0-0.9-0.1-1.2-0.3
			c-0.1-0.1-0.2-0.2-0.2-0.3c0-0.2,0.1-0.4,0.4-0.4c0.1,0,0.1,0,0.2,0c0.2,0.1,0.4,0.2,0.8,0.2c0.4,0,0.7-0.2,0.7-0.5
			c0-0.3-0.3-0.4-0.6-0.5l-0.7-0.3c-0.4-0.1-0.8-0.4-0.8-1.1c0-0.7,0.6-1.2,1.4-1.2C108.3,12.3,108.7,12.4,109,12.5z"/>
		<path class="st0" d="M111.2,11.2c0,0.3-0.2,0.5-0.5,0.5c-0.3,0-0.5-0.2-0.5-0.5c0-0.3,0.2-0.5,0.5-0.5
			C111,10.7,111.2,10.9,111.2,11.2z M111.1,12.7v3.5c0,0.2-0.2,0.4-0.4,0.4c-0.2,0-0.4-0.2-0.4-0.4v-3.5c0-0.2,0.2-0.4,0.4-0.4
			C111,12.3,111.1,12.5,111.1,12.7z"/>
		<path class="st0" d="M115.6,14v0.9c0,1.1-0.6,1.7-1.7,1.7c-1.1,0-1.7-0.6-1.7-1.7V14c0-1.1,0.6-1.7,1.7-1.7
			C115,12.3,115.6,12.9,115.6,14z M113,14v1c0,0.6,0.3,0.9,0.9,0.9c0.6,0,0.9-0.3,0.9-0.9v-1c0-0.6-0.3-0.9-0.9-0.9
			C113.3,13.1,113,13.4,113,14z"/>
		<path class="st0" d="M119.9,13.9v2.3c0,0.2-0.2,0.4-0.4,0.4c-0.2,0-0.4-0.2-0.4-0.4v-2.3c0-0.5-0.3-0.8-0.8-0.8
			c-0.3,0-0.5,0-0.8,0.1v3c0,0.2-0.2,0.4-0.4,0.4c-0.2,0-0.4-0.2-0.4-0.4V13c0-0.2,0.1-0.4,0.4-0.5c0.4-0.1,0.8-0.2,1.3-0.2
			C119.4,12.3,119.9,12.8,119.9,13.9z"/>
		<path class="st0" d="M126.5,14v0.9c0,1.1-0.6,1.7-1.7,1.7c-1.1,0-1.7-0.6-1.7-1.7V14c0-1.1,0.6-1.7,1.7-1.7
			C125.9,12.3,126.5,12.9,126.5,14z M123.9,14v1c0,0.6,0.3,0.9,0.9,0.9c0.6,0,0.9-0.3,0.9-0.9v-1c0-0.6-0.3-0.9-0.9-0.9
			C124.2,13.1,123.9,13.4,123.9,14z"/>
		<path class="st0" d="M129.2,10.8c0.2,0,0.3,0.2,0.3,0.4c0,0.2-0.2,0.4-0.4,0.4c-0.1,0-0.2,0-0.4,0c-0.3,0-0.4,0.2-0.4,0.4v0.5h0.8
			c0.3,0,0.4,0.2,0.4,0.4c0,0.2-0.2,0.4-0.4,0.4h-0.8v3c0,0.3-0.2,0.4-0.4,0.4c-0.2,0-0.4-0.2-0.4-0.4v-4.2c0-0.8,0.5-1.2,1.2-1.2
			C128.9,10.7,129.1,10.7,129.2,10.8z"/>
		<path class="st0" d="M135.3,11c0.2,0.1,0.2,0.2,0.2,0.4c0,0.2-0.2,0.4-0.4,0.4c-0.1,0-0.2,0-0.4-0.1c-0.3-0.1-0.6-0.2-1-0.2
			c-0.5,0-0.9,0.2-0.9,0.7c0,0.4,0.2,0.6,0.7,0.8l1,0.4c0.5,0.3,1.1,0.6,1.1,1.6c0,1-0.8,1.6-1.9,1.6c-0.6,0-1.1-0.1-1.5-0.3
			c-0.2-0.1-0.3-0.2-0.3-0.4c0-0.2,0.2-0.4,0.4-0.4c0.1,0,0.2,0,0.4,0.1c0.3,0.1,0.6,0.2,1,0.2c0.6,0,1-0.3,1-0.8
			c0-0.4-0.3-0.6-0.7-0.9l-1-0.5c-0.6-0.3-1-0.7-1-1.5c0-0.9,0.7-1.5,1.8-1.5C134.5,10.7,134.9,10.8,135.3,11z"/>
		<path class="st0" d="M139.8,13.9v0.4c0,0.2-0.2,0.5-0.5,0.5h-1.9V15c0,0.4,0.2,0.8,0.8,0.8c0.4,0,0.6-0.1,0.8-0.2
			c0.1,0,0.2-0.1,0.3-0.1c0.2,0,0.4,0.2,0.4,0.4c0,0.1-0.1,0.3-0.2,0.4c-0.4,0.2-1,0.3-1.3,0.3c-1.1,0-1.7-0.7-1.7-1.6v-1
			c0-1,0.6-1.6,1.7-1.6C139.1,12.3,139.8,13,139.8,13.9z M137.3,13.9v0.1h1.6v-0.1c0-0.5-0.2-0.9-0.8-0.9
			C137.6,13.1,137.3,13.4,137.3,13.9z"/>
		<path class="st0" d="M144.1,13.9v2.3c0,0.2-0.2,0.4-0.4,0.4c-0.2,0-0.4-0.2-0.4-0.4v-2.3c0-0.5-0.3-0.8-0.8-0.8
			c-0.3,0-0.5,0-0.8,0.1v3c0,0.2-0.2,0.4-0.4,0.4c-0.2,0-0.4-0.2-0.4-0.4V13c0-0.2,0.1-0.4,0.4-0.5c0.4-0.1,0.8-0.2,1.3-0.2
			C143.6,12.3,144.1,12.8,144.1,13.9z"/>
		<path class="st0" d="M147.6,12.5c0.1,0.1,0.2,0.2,0.2,0.3c0,0.2-0.2,0.4-0.4,0.4c-0.1,0-0.2,0-0.2,0c-0.2-0.1-0.4-0.1-0.7-0.1
			c-0.4,0-0.6,0.2-0.6,0.4c0,0.3,0.3,0.4,0.5,0.5l0.7,0.3c0.5,0.2,0.8,0.5,0.8,1.1c0,0.7-0.5,1.3-1.4,1.3c-0.5,0-0.9-0.1-1.2-0.3
			c-0.1-0.1-0.2-0.2-0.2-0.3c0-0.2,0.1-0.4,0.4-0.4c0.1,0,0.1,0,0.2,0c0.2,0.1,0.4,0.2,0.8,0.2c0.4,0,0.7-0.2,0.7-0.5
			c0-0.3-0.3-0.4-0.6-0.5l-0.7-0.3c-0.4-0.1-0.8-0.4-0.8-1.1c0-0.7,0.6-1.2,1.4-1.2C146.9,12.3,147.3,12.4,147.6,12.5z"/>
		<path class="st0" d="M149.8,11.2c0,0.3-0.2,0.5-0.5,0.5c-0.3,0-0.5-0.2-0.5-0.5c0-0.3,0.2-0.5,0.5-0.5
			C149.6,10.7,149.8,10.9,149.8,11.2z M149.8,12.7v3.5c0,0.2-0.2,0.4-0.4,0.4c-0.2,0-0.4-0.2-0.4-0.4v-3.5c0-0.2,0.2-0.4,0.4-0.4
			C149.6,12.3,149.8,12.5,149.8,12.7z"/>
		<path class="st0" d="M153.3,12.5c0.1,0.1,0.2,0.2,0.2,0.3c0,0.2-0.2,0.4-0.4,0.4c-0.1,0-0.2,0-0.2,0c-0.2-0.1-0.4-0.1-0.7-0.1
			c-0.4,0-0.6,0.2-0.6,0.4c0,0.3,0.3,0.4,0.5,0.5l0.7,0.3c0.5,0.2,0.8,0.5,0.8,1.1c0,0.7-0.5,1.3-1.4,1.3c-0.5,0-0.9-0.1-1.2-0.3
			c-0.1-0.1-0.2-0.2-0.2-0.3c0-0.2,0.1-0.4,0.4-0.4c0.1,0,0.1,0,0.2,0c0.2,0.1,0.4,0.2,0.8,0.2c0.4,0,0.7-0.2,0.7-0.5
			c0-0.3-0.3-0.4-0.6-0.5l-0.7-0.3c-0.4-0.1-0.8-0.4-0.8-1.1c0-0.7,0.6-1.2,1.4-1.2C152.6,12.3,153,12.4,153.3,12.5z"/>
		<path class="st0" d="M158.6,10.8c1.2,0,1.9,0.7,1.9,1.7c0,1-0.6,1.7-1.7,1.7h-1.1v2c0,0.3-0.2,0.4-0.4,0.4c-0.3,0-0.4-0.2-0.4-0.4
			v-4.9c0-0.3,0.2-0.5,0.5-0.5H158.6z M157.6,11.6v1.9h0.9c0.6,0,1-0.3,1-0.9c0-0.6-0.4-0.9-1-0.9H157.6z"/>
		<path class="st0" d="M162.1,11.1v1.3h0.8c0.3,0,0.4,0.2,0.4,0.4c0,0.2-0.1,0.4-0.4,0.4h-0.8v2.2c0,0.3,0.2,0.5,0.4,0.5
			c0.2,0,0.3,0,0.4,0c0.2,0,0.4,0.1,0.4,0.4c0,0.2-0.1,0.4-0.4,0.4c-0.2,0-0.3,0-0.5,0c-0.7,0-1.2-0.4-1.2-1.3v-4.2
			c0-0.2,0.2-0.4,0.4-0.4C161.9,10.7,162.1,10.9,162.1,11.1z"/>
		<path class="st0" d="M167.3,12.7c0,0.1,0,0.1,0,0.2l-1.5,4.4c-0.3,0.8-0.8,1.1-1.6,1.1c-0.2,0-0.4-0.1-0.4-0.4
			c0-0.2,0.2-0.4,0.4-0.4c0.4,0,0.7-0.2,0.8-0.6l0.2-0.5l-1.4-3.7c0,0,0-0.1,0-0.2c0-0.2,0.1-0.4,0.4-0.4c0.2,0,0.3,0.1,0.4,0.3
			l1,2.9l0.9-2.9c0.1-0.2,0.2-0.3,0.4-0.3C167.1,12.3,167.3,12.5,167.3,12.7z"/>
		<path class="st0" d="M171,11.1v4.6h2.1c0.2,0,0.4,0.2,0.4,0.4c0,0.2-0.2,0.4-0.4,0.4h-2.5c-0.3,0-0.5-0.2-0.5-0.5v-4.9
			c0-0.3,0.2-0.4,0.4-0.4C170.8,10.7,171,10.9,171,11.1z"/>
		<path class="st0" d="M175,11.1v1.3h0.8c0.3,0,0.4,0.2,0.4,0.4c0,0.2-0.1,0.4-0.4,0.4H175v2.2c0,0.3,0.2,0.5,0.4,0.5
			c0.2,0,0.3,0,0.4,0c0.2,0,0.4,0.1,0.4,0.4c0,0.2-0.1,0.4-0.4,0.4c-0.2,0-0.3,0-0.5,0c-0.7,0-1.2-0.4-1.2-1.3v-4.2
			c0-0.2,0.2-0.4,0.4-0.4C174.8,10.7,175,10.9,175,11.1z"/>
		<path class="st0" d="M180.2,11.1v4.8c0,0.2-0.1,0.4-0.4,0.5c-0.4,0.1-0.9,0.2-1.3,0.2c-1,0-1.7-0.5-1.7-1.6v-1.1
			c0-1.1,0.6-1.6,1.6-1.6c0.3,0,0.6,0.1,0.9,0.2v-1.4c0-0.2,0.2-0.4,0.4-0.4C180,10.7,180.2,10.9,180.2,11.1z M177.7,13.9V15
			c0,0.5,0.3,0.8,0.8,0.8c0.3,0,0.6,0,0.8-0.1v-2.4c-0.2-0.2-0.5-0.3-0.8-0.3C178,13.1,177.7,13.3,177.7,13.9z"/>
	</g>
	<g>
		<path class="st0" d="M3.4,18.1c0.2,0.1,0.3,0.3,0.3,0.5c0,0.3-0.2,0.5-0.5,0.5c-0.1,0-0.2,0-0.3-0.1c-0.3-0.1-0.5-0.2-0.9-0.2
			c-0.5,0-0.8,0.2-0.8,0.6c0,0.4,0.4,0.5,0.6,0.6l1,0.4c0.7,0.3,1.1,0.7,1.1,1.5c0,0.9-0.7,1.7-1.9,1.7c-0.7,0-1.2-0.2-1.6-0.3
			C0.1,23.1,0,23,0,22.8c0-0.3,0.2-0.5,0.5-0.5c0.1,0,0.2,0,0.3,0.1c0.3,0.1,0.6,0.2,1.1,0.2c0.5,0,0.9-0.3,0.9-0.6
			c0-0.3-0.4-0.5-0.7-0.7l-0.9-0.4C0.6,20.7,0,20.3,0,19.4c0-1,0.8-1.6,1.9-1.6C2.4,17.8,3,17.9,3.4,18.1z"/>
		<path class="st0" d="M8.8,20v0.5c0,0.3-0.3,0.7-0.7,0.7H5.5v0.2c0,0.6,0.3,1.1,1.1,1.1c0.5,0,0.8-0.1,1.1-0.2
			c0.2-0.1,0.3-0.1,0.4-0.1c0.3,0,0.5,0.2,0.5,0.5c0,0.2-0.1,0.4-0.3,0.5c-0.5,0.3-1.3,0.4-1.7,0.4c-1.4,0-2.2-0.9-2.2-2.2V20
			c0-1.3,0.9-2.2,2.2-2.2C8,17.8,8.8,18.7,8.8,20z M5.5,20v0.2h2.2V20c0-0.7-0.3-1.2-1.1-1.2S5.5,19.2,5.5,20z"/>
		<path class="st0" d="M14.1,19.9V23c0,0.3-0.2,0.6-0.6,0.6c-0.3,0-0.6-0.2-0.6-0.6v-3.1c0-0.7-0.4-1.1-1.1-1.1
			c-0.4,0-0.7,0.1-1.1,0.2v4c0,0.3-0.2,0.6-0.6,0.6c-0.3,0-0.6-0.2-0.6-0.6v-4.3c0-0.3,0.2-0.5,0.5-0.6c0.5-0.2,1.1-0.3,1.7-0.3
			C13.4,17.8,14.1,18.5,14.1,19.9z"/>
		<path class="st0" d="M18.2,18.1c0.2,0.1,0.3,0.3,0.3,0.5c0,0.3-0.2,0.5-0.5,0.5c-0.1,0-0.2,0-0.3-0.1c-0.3-0.1-0.5-0.2-0.9-0.2
			c-0.5,0-0.8,0.2-0.8,0.6c0,0.4,0.4,0.5,0.6,0.6l1,0.4c0.7,0.3,1.1,0.7,1.1,1.5c0,0.9-0.7,1.7-1.9,1.7c-0.6,0-1.2-0.2-1.6-0.3
			c-0.2-0.1-0.3-0.2-0.3-0.5c0-0.3,0.2-0.5,0.5-0.5c0.1,0,0.2,0,0.3,0.1c0.3,0.1,0.6,0.2,1.1,0.2c0.5,0,0.9-0.3,0.9-0.6
			c0-0.3-0.4-0.5-0.7-0.7l-0.9-0.4c-0.5-0.2-1.1-0.5-1.1-1.5c0-1,0.8-1.6,1.9-1.6C17.3,17.8,17.8,17.9,18.2,18.1z"/>
		<path class="st0" d="M20.7,16.3c0,0.4-0.3,0.7-0.7,0.7c-0.4,0-0.7-0.3-0.7-0.7c0-0.4,0.3-0.7,0.7-0.7
			C20.4,15.6,20.7,15.9,20.7,16.3z M20.6,18.3V23c0,0.3-0.2,0.6-0.6,0.6c-0.3,0-0.6-0.2-0.6-0.6v-4.7c0-0.3,0.2-0.6,0.6-0.6
			C20.3,17.8,20.6,18,20.6,18.3z"/>
		<path class="st0" d="M24.8,18.1c0.2,0.1,0.3,0.3,0.3,0.5c0,0.3-0.2,0.5-0.5,0.5c-0.1,0-0.2,0-0.3-0.1c-0.3-0.1-0.5-0.2-0.9-0.2
			c-0.5,0-0.8,0.2-0.8,0.6c0,0.4,0.4,0.5,0.6,0.6l1,0.4c0.7,0.3,1.1,0.7,1.1,1.5c0,0.9-0.7,1.7-1.9,1.7c-0.6,0-1.2-0.2-1.6-0.3
			c-0.2-0.1-0.3-0.2-0.3-0.5c0-0.3,0.2-0.5,0.5-0.5c0.1,0,0.2,0,0.3,0.1c0.3,0.1,0.6,0.2,1.1,0.2c0.5,0,0.9-0.3,0.9-0.6
			c0-0.3-0.4-0.5-0.7-0.7l-0.9-0.4c-0.5-0.2-1.1-0.5-1.1-1.5c0-1,0.8-1.6,1.9-1.6C23.8,17.8,24.4,17.9,24.8,18.1z"/>
	</g>
</g>
</svg>
