<?xml version="1.0" encoding="utf-8"?>
<!-- Generator: Adobe Illustrator 18.1.1, SVG Export Plug-In . SVG Version: 6.00 Build 0)  -->
<!DOCTYPE svg PUBLIC "-//W3C//DTD SVG 1.1//EN" "http://www.w3.org/Graphics/SVG/1.1/DTD/svg11.dtd">
<svg version="1.1" id="Layer_1" xmlns="http://www.w3.org/2000/svg" xmlns:xlink="http://www.w3.org/1999/xlink" x="0px" y="0px"
	 viewBox="0 0 110 110" style="enable-background:new 0 0 110 110;" xml:space="preserve">
<style type="text/css">
	.st0{fill:none;stroke:#EE3A39;stroke-width:3;stroke-linecap:round;stroke-miterlimit:10;}
	.st1{fill:#FFFFFF;stroke:#EE3A39;stroke-width:3;stroke-miterlimit:10;}
	.st2{fill:#EE3A39;}
	.st3{fill:none;stroke:#EE3A39;stroke-width:2;stroke-linecap:round;stroke-miterlimit:10;}
</style>
<g>
	<line class="st0" x1="55.5" y1="102" x2="55.5" y2="77"/>
	<line class="st0" x1="42.9" y1="101.3" x2="52.2" y2="77.7"/>
	<line class="st0" x1="67.9" y1="101.3" x2="58.6" y2="77.7"/>
	<line class="st0" x1="48" y1="89.5" x2="63" y2="89.5"/>
	<path class="st1" d="M96.8,75.6H14.5c-4.7,0-8.5-3.8-8.5-8.5V16.8c0-4.7,3.8-8.5,8.5-8.5h82.3c4.7,0,8.5,3.8,8.5,8.5v50.3
		C105.3,71.8,101.5,75.6,96.8,75.6z"/>
	<g>
		<path class="st2" d="M38.1,50.7c-4.1,0-7.5,3.4-7.5,7.5c0,4.1,3.4,7.5,7.5,7.5c4.1,0,7.5-3.4,7.5-7.5
			C45.6,54.1,42.3,50.7,38.1,50.7z M42.9,58.2c0,2.6-2.1,4.7-4.7,4.7c-2.6,0-4.7-2.1-4.7-4.7c0-2.6,2.1-4.7,4.7-4.7
			C40.7,53.5,42.9,55.6,42.9,58.2z"/>
		<path class="st2" d="M76.6,24.5c-4.1,0-7.5,3.4-7.5,7.5c0,4.1,3.4,7.5,7.5,7.5c4.1,0,7.5-3.4,7.5-7.5
			C84.1,27.9,80.7,24.5,76.6,24.5z M81.3,32c0,2.6-2.1,4.7-4.7,4.7c-2.6,0-4.7-2.1-4.7-4.7c0-2.6,2.1-4.7,4.7-4.7
			C79.2,27.3,81.3,29.4,81.3,32z"/>
	</g>
	<line class="st0" x1="20.6" y1="25.1" x2="31.4" y2="35.8"/>
	<line class="st0" x1="31.4" y1="25.1" x2="20.6" y2="35.8"/>
	<line class="st0" x1="59.1" y1="46.9" x2="69.8" y2="57.7"/>
	<line class="st0" x1="69.8" y1="46.9" x2="59.1" y2="57.7"/>
	<path class="st3" d="M37.7,51.8c0-11.3,9.2-20.5,20.5-20.5"/>
	<polygon class="st2" points="63.1,31.3 57.3,37 57.3,25.5 	"/>
</g>
</svg>
