<?xml version="1.0" encoding="utf-8"?>
<!-- Generator: Adobe Illustrator 18.1.1, SVG Export Plug-In . SVG Version: 6.00 Build 0)  -->
<!DOCTYPE svg PUBLIC "-//W3C//DTD SVG 1.1//EN" "http://www.w3.org/Graphics/SVG/1.1/DTD/svg11.dtd">
<svg version="1.1" id="Layer_1" xmlns="http://www.w3.org/2000/svg" xmlns:xlink="http://www.w3.org/1999/xlink" x="0px" y="0px"
	 viewBox="0 0 90 90" style="enable-background:new 0 0 90 90;" xml:space="preserve">
<style type="text/css">
	.st0{fill:#FFFFFF;}
	.st1{fill:#1C1916;}
	.st2{fill:#EE3A39;}
</style>
<g>
	<path class="st0" d="M87.8,44.9c0,23.7-19.2,43-43,43c-23.7,0-43-19.2-43-43c0-23.7,19.2-43,43-43C68.6,1.9,87.8,21.1,87.8,44.9"/>
	<path class="st1" d="M44.9,88.9c-24.3,0-44-19.7-44-44c0-24.3,19.7-44,44-44c24.3,0,44,19.7,44,44C88.9,69.1,69.1,88.9,44.9,88.9
		 M44.9,2.9C21.7,2.9,2.9,21.7,2.9,44.9c0,23.1,18.8,41.9,41.9,41.9C68,86.8,86.8,68,86.8,44.9C86.8,21.7,68,2.9,44.9,2.9"/>
	<path class="st2" d="M22.2,73.3v-7.9h-7.3C17,68.4,19.4,71,22.2,73.3"/>
	<path class="st2" d="M44.9,8.6C24.8,8.6,8.6,24.8,8.6,44.9c0,4.9,1,9.6,2.8,13.9h10.9v-5.4c0-12.6,2.6-22.2,7.8-28.8
		c5.2-6.6,11.7-9.9,19.4-9.9c5.7,0,10.2,1.4,13.4,4.2c3.2,2.8,4.8,6.5,4.8,11c0,2.9-0.8,5.3-2.3,7c-1.6,1.7-3.5,2.6-5.9,2.6
		c-2.1,0-3.9-0.7-5.3-2.1c-1.4-1.4-2.1-3.1-2.1-5.2c0-2.4,0.9-4.3,2.7-5.9c1.5-1.2,2.2-2.1,2.2-2.7c0-0.9-0.6-1.7-1.7-2.4
		c-1.1-0.7-2.8-1.1-5.1-1.1c-4.3,0-7.9,1.9-10.9,5.8c-3,3.8-4.4,9.5-4.4,17.1v15.9h23.8v6.6H34.9v14.4c3.2,0.9,6.5,1.4,10,1.4
		c20.1,0,36.3-16.3,36.3-36.3C81.2,24.8,64.9,8.6,44.9,8.6"/>
</g>
</svg>
