<?xml version="1.0" encoding="utf-8"?>
<!-- Generator: Adobe Illustrator 20.0.0, SVG Export Plug-In . SVG Version: 6.00 Build 0)  -->
<!DOCTYPE svg PUBLIC "-//W3C//DTD SVG 1.1//EN" "http://www.w3.org/Graphics/SVG/1.1/DTD/svg11.dtd">
<svg version="1.1" xmlns="http://www.w3.org/2000/svg" xmlns:xlink="http://www.w3.org/1999/xlink" x="0px" y="0px"
	 viewBox="0 0 556 204" style="enable-background:new 0 0 556 204;" xml:space="preserve">
<style type="text/css">
	.st0{display:none;}
	.st1{fill:#FFFFFF;}
</style>
<g id="Layer_1" class="st0">
	
		<image style="display:inline;overflow:visible;" width="2732" height="2048" xlink:href="1EB956B75C08BB58.jpg"  transform="matrix(0.4 0 0 0.4 -260.4 -111.1)">
	</image>
</g>
<g id="Layer_2">
</g>
<g id="Layer_3">
</g>
<g id="Layer_4">
	<path class="st1" d="M128.2,98.1c-2.1,0.7-4.2,1.6-6.2,2.7c-2.3,1.2-4.3,3.1-6.3,4.8c-3.1,2.6-5.5,5.7-7.9,8.9
		c-1.8,2.4-3.4,4.8-4.7,7.5c-1.9,3.8-3.4,7.9-4.8,11.9c-1.2,3.4-2.1,6.9-3,10.3c-1.5,6-2.2,12.2-3,18.3c-0.5,3.7-1.1,7.4-0.9,11.1
		c0,5.4,2.2,10.5,5.9,14.3c3.8,3.8,9,5.9,14.3,5.9c3.7,0,7.1-0.9,10.2-2.8c3-1.8,5.5-4.2,7.3-7.3c1-2.2,1.9-4.4,2.8-6.6
		c0.6-1.4,0.7-5.1,0.9-7.2c0.1-1,0.2-2,0.2-2.9c0.1-1.7,0.1-3.3,0.2-5c0.2-4.9,0.4-9.8,1-14.6c0.7-4.4,1.8-8.8,2.8-13.1
		c1-4.1,2.1-8.2,3.5-12.1c0.4-0.8,0.8-1.5,1.2-2.2c0.1-0.1,0.1-0.1,0.2-0.2c0.1,0,0.1,0,0.2,0c1,0.3,2,0.6,3,1
		c3.4,1.6,6.5,3.8,9.5,6.1c1.3,1,2.5,2,3.7,3c0,0,0,0,0,0c-0.4-5.9-0.7-12.1-2.7-17.7c-1.2-3.4-3-6.1-5.2-8.8
		c-1.1-1.4-2.8-2.4-4.3-3.4c-1.6-1.1-3.5-1.7-5.3-2.3c-1.6-0.5-3.4-0.8-5.1-0.8C133.1,96.9,130.5,97.3,128.2,98.1L128.2,98.1z"/>
	<path class="st1" d="M193.7,44.3c-0.7,0.8-1.1,1.4-1.5,2.4c-0.2,0.6-0.4,1.1-0.6,1.6c-0.2,0.7-0.4,1.5-0.6,2.2
		c-0.3,1.2-0.6,2.4-0.9,3.6c-0.5,2.3-1,4.7-1.5,7.1c-1.1,5.8-1.9,11.7-2.6,17.6c-0.7,6-0.9,11.9-0.6,17.9c0.3,5.8,0.7,11.5,1.2,17.3
		c0.2,2.6,0.4,5.2,0.7,7.8c-0.1,0-0.2,0-0.4,0c-4.5-0.5-9-0.2-13.4,0.5c-1.7,0.3-3.3,0.8-4.9,1.4c-1.4,0.5-2.8,1.1-4.1,1.8
		c-1.3,0.6-2.6,1.8-3.6,2.6c-1.8,1.5-3.2,3.3-4.5,5.1c-1.1,1.5-2.1,3.2-2.9,4.9c-1.1,2.2-2,4.6-2.7,7c-0.7,2.5-0.9,5.1-1.2,7.6
		c-0.2,2.6,0.2,5.2,0.6,7.7c0.3,2.1,0.8,4,1.5,6c0.8,2.3,1.8,4.5,2.9,6.7c1.2,2.1,2.8,4,4.4,5.9c1.6,1.9,3.7,3.4,5.7,4.8
		c2.2,1.6,5.1,2.6,7.6,3.6c4,1.6,8.5,2,12.7,2.5c3.9,0.4,7.9,0.3,11.8-0.1c4.1-0.4,8.2-0.9,12.2-1.7c1.5-0.3,2.9-0.6,4.4-0.8
		c1.5-0.3,3-0.6,4.5-0.8c0.7-0.1,1.4-0.2,2.1-0.3c0.7-0.1,1.3-0.2,2-0.4c2.6-0.7,4.8-2,6.8-3.9c2.1-2.1,3.4-4.5,4.3-7.3
		c1.9-5.8,0-11.9-3.1-16.8c-0.5-0.8-1.2-1.6-1.7-2.5c-1.5-2.1-2.8-4.3-4-6.7c-2.7-7.5-3.8-15.5-5.3-23.2c-0.9-4.8-1.5-9.6-2.3-14.4
		c-1.8-11.5-3.1-23.1-6.2-34.4c-1.3-4.8-2.9-9.5-4.5-14.1c-0.9-2.5-1.7-5-2.6-7.5c-0.9-2.6-1.9-5.2-2.6-7.8c0-0.2-0.1-0.4-0.1-0.7
		c-0.3-1.9-2.2-3-4-3C195.5,43.1,194.4,43.5,193.7,44.3L193.7,44.3z M200.7,47.1c0,0,0,0.1,0,0.1c0,0,0,0,0,0
		C200.7,47.1,200.7,47.1,200.7,47.1L200.7,47.1z M189.5,139.4c0.6,4.7,1.3,9.3,2.5,13.9c0.6,2.3,1.3,4.5,2.2,6.6
		c0.4,1.1,0.9,2.2,1.4,3.3c-0.3,0-0.5,0.1-0.8,0.1c-4,0.4-8.1,0.5-12.1,0.1c-1.6-0.3-3.1-0.7-4.6-1.2c-0.4-0.2-0.8-0.4-1.2-0.7
		c-0.3-0.3-0.6-0.6-0.9-0.9c-0.4-0.7-0.8-1.3-1.1-2c-0.4-1.2-0.8-2.5-1-3.7c-0.1-1.1-0.1-2.2,0-3.3c0.3-1.3,0.6-2.6,1-3.8
		c0.6-1.2,1.2-2.3,1.9-3.4c0.2-0.2,0.4-0.4,0.6-0.6c1-0.7,2.1-1.3,3.2-1.8C183.4,140.9,186.4,140.1,189.5,139.4L189.5,139.4z"/>
	<path class="st1" d="M282.1,75.8c-9.1,0.9-17.8,3.8-26,7.9c-7.3,3.6-14,8.5-20.1,13.8c-6.1,5.3-11.4,11.6-15.4,18.6
		c-2.1,3.7-3.7,7.6-5.1,11.6c-1.5,4.3-2.4,8.8-2.5,13.4c0,2.3,0.4,4.6,0.7,6.9c0.2,1.6,0.7,3.2,1.3,4.8c0.8,2.2,1.8,4.3,3,6.3
		c1.3,2.3,3.1,4.4,4.7,6.4c3.5,4.2,8.1,7.5,12.6,10.3c4.8,3,10.3,5.1,15.7,7c5.4,2,11.3,3,17.1,3.2c3.2,0.1,6.4-0.4,9.5-0.9
		c2.8-0.4,5.4-1.3,8-2.3c3-1.2,5.8-2.5,8.5-4.2c2.8-1.8,5.5-3.9,7.9-6.2c4.2-3.9,7.6-8.7,9.8-14.1c0.8-1.9,1.3-3.9,1.7-5.9
		c0.4-2.5,0.2-4.9-0.8-7.3c-1.2-2.9-4.3-4.2-7-5.3c0,0,0,0,0,0c0.5,1.3,0.9,2.7,1.1,4.1c0,0.3,0,0.6,0,0.9c0,0.1,0,0.1-0.1,0.2
		c-0.3,0.5-0.6,1.1-0.9,1.6c-1.1,1.3-2.4,2.4-3.8,3.5c-4.1,3-8.6,5.4-13.3,7.4c-5.1,2.1-10.4,3.6-15.8,4.5
		c-3.9,0.4-7.8,0.5-11.6,0.1c-4.2-0.7-8.2-1.9-12.2-3.5c-2.9-1.4-5.7-3-8.4-4.9c-1.6-1.4-3.1-2.9-4.5-4.5c-0.8-1.1-1.4-2.2-2.1-3.4
		c-0.4-1.2-0.7-2.4-1-3.6c-0.1-1.2-0.1-2.4,0-3.6c0.5-2.7,1.3-5.4,2.3-8c1.4-3.2,3.1-6.2,5.1-9c3.1-3.8,6.6-7.2,10.4-10.3
		c4.9-3.7,10.2-6.9,15.8-9.4c7.8-3.1,16.2-4.8,24.5-6c5.2-0.6,10.5-0.7,15.7-0.2c2.7,0.4,5.2,1.1,7.8,2c1.8,0.8,3.5,1.7,5,2.9
		c1,0.8,1.9,1.8,2.8,2.7c0.3,0.5,0.6,0.9,0.9,1.4c0.1,0.2,0.1,0.3,0.2,0.5c0-0.1,0-0.2,0-0.3c0.1,0.4,0.1,0.9,0,1.3
		c0-0.1,0-0.1,0-0.2c-0.1,0.2-0.1,0.4-0.2,0.5c-0.1,0.1-0.2,0.2-0.2,0.3c-0.2,0.2-0.4,0.4-0.6,0.6c0,0,0,0,0,0
		c5.8-0.9,2.7-9.4,1.2-12.7c-1.4-3.1-3.6-5.8-6-8.2c-2.9-2.8-6.4-5-10-6.7c-6.5-3-13.6-4.4-20.8-4.4
		C285.7,75.5,283.9,75.6,282.1,75.8L282.1,75.8z M307.1,144.1c0,0.2,0,0.4-0.1,0.6C307,144.5,307,144.3,307.1,144.1L307.1,144.1z"/>
	<path class="st1" d="M299.6,111.8c-4.1,1.5-7.9,3.4-10.7,6.9c-1.3,1.5-2.5,3-3.5,4.7c-0.5,0.7-1,1.7-1.4,2.7
		c-2.4,1.2-4.7,2.4-7.2,3.4c-2.8,1.2-5.7,2.3-8.6,3.1c-0.7-0.1-1.3-0.2-2-0.2c-1.2-0.1-2.1,1.3-1.8,2.3c0.5,1.6,1.6,2.5,3.2,3.1
		c2.2,0.9,4.4,1.5,6.7,2.1c2.3,0.6,4.6,1,6.9,1.4c-0.3,7.2,0.8,14.4,2.6,21.5c1.1,4.3,2.8,8.5,4.6,12.6c1.6,3.6,3.4,7,5.7,10.2
		c1.1,1.6,2.3,3.1,3.6,4.5c1.2,1.3,3.2,3.8,4.7,1.6c0,0,0,0,0,0c-0.1,0-0.2,0-0.4,0c-0.1,0-0.1,0-0.2-0.1c0,0,0,0-0.1-0.1
		c0,0,0,0,0,0c2-6.8,4.6-13.5,6.8-20.2c0.5-1.6,1.2-3.1,1.7-4.7c0.5-1.4,1-2.8,1.5-4.2c1.9-5,3.6-10.1,5.4-15.1
		c1.2-1.7,2.1-3.7,2.8-5.7c0.2-0.4,0.5-0.9,0.7-1.3c0.5-0.6,0.9-1.3,1.3-2c0,0,0-0.1,0.1-0.1c0,0,0,0,0,0c2.4-4.2,3.1-9.2,1.8-13.9
		c-1.7-6.1-6.6-11-12.6-12.6c-1.9-0.5-3.9-0.8-6-0.8C303.2,111,301.3,111.2,299.6,111.8L299.6,111.8z"/>
	<path class="st1" d="M345.6,124.3c-4.8-1.2-9.9-0.9-14.6,0.4c-2.1,0.6-4.1,1.5-6,2.4c-2.1,1-3.9,2.5-5.7,3.9
		c-1.3,1.1-2.5,2.3-3.6,3.6c-1.7,2.1-3.3,4.2-4.5,6.6c-2.4,4.8-3.6,9.6-4,15c-0.2,2.5,0.4,5.2,0.8,7.7c0.5,2.7,1.7,5.3,3,7.6
		c1.2,2.3,3,4.4,4.9,6.2c1.8,1.7,4,3.3,6.2,4.5c5.2,2.8,10.9,3.9,16.8,3.9c4.7,0,9.5-0.8,14-2c4.7-1.3,9.3-3.2,13.6-5.4
		c4.2-2.1,7.9-5.1,11.3-8.3c2.2-2,3.9-4.5,5.5-6.9c1.7-2.5,3.1-5.3,3.7-8.3c0.8-4.5,0.9-7.9-0.2-12.4c-1-4-3.5-7.1-6.1-10.1
		c-0.5-0.6-1.1-1.1-1.7-1.6c-1.3-1.1-3-2.5-4.6-3.4c-2.5-1.5-5.3-2.5-8.1-3.3c-3.3-0.9-6.7-1.3-10.1-1.3
		C352.6,123,349,123.5,345.6,124.3L345.6,124.3z M339.5,140.4c2.9,1.6,5.7,3.5,8.3,5.4c1.2,1,2.4,2.1,3.5,3.2
		c-0.5,0.5-1.1,1.1-1.6,1.6c-1.9,1.2-3.9,2.3-5.9,3.3c-2.2,0.8-4.5,1.5-6.9,1.9c-0.9,0.1-1.7,0.1-2.6,0c-0.3-0.1-0.5-0.1-0.8-0.2
		c-0.1-0.4-0.2-0.8-0.3-1.2c-0.1-1-0.1-2.1,0-3.1c0.3-1.4,0.7-2.8,1.1-4.2c0.7-1.4,1.4-2.7,2.3-3.9
		C337.5,142.2,338.4,141.3,339.5,140.4L339.5,140.4z"/>
	<path class="st1" d="M381.7,86.8c-2.3,1.3-3.4,3.5-4.3,5.9c-1,2.9-0.3,6.5,0.4,9.4c1.1,4.6,3.1,9.1,3.9,13.8c0,0,0,0,0,0
		c1-2,2-4,2.9-6c0.2-0.4,0.4-0.8,0.6-1.2c1,2.7,2,5.4,2.9,8.1c0.6,1.9,1.2,3.8,1.8,5.8c-4.8,0.3-8.9,1.6-13.2,3.8
		c-2.2,1.2-4.2,2.9-6.1,4.5c-2,1.7-3.5,3.9-5,5.9c-1.6,2.1-2.6,4.8-3.5,7.1c-1,2.6-1.4,5.4-1.7,8.2c-0.5,5.5,1.1,10.7,3.3,15.7
		c0.6,1.3,1.2,2.4,2,3.5c1.5,2.1,3.2,4.3,5.1,6.1c4.2,3.8,8.9,6.3,14.3,8.2c4.3,1.5,9,2.1,13.5,2.4c4.6,0.4,9.2-0.3,13.8-0.9
		c3.1-0.4,6.1-1.2,8.9-2.4c2-0.8,3.3-1.1,5.7-2.3c1.7-0.9,4-2.8,4.9-3.6c2.9-2.9,5.4-6.8,6.2-10.9c0.4-1.8,0.9-4.6,0.7-6.8
		c-0.3-2.5-0.5-4.6-1.1-7c-0.6-2.2-1.7-4.3-2.7-6.4c-0.2-0.4-0.3-0.7-0.5-1c-1-1.6-1.9-3.2-2.8-4.9c-1.4-3.8-2.5-7.7-3.7-11.5
		c-1.1-3.3-2.4-6.5-3.8-9.7c-0.3-0.7-0.7-1.4-1.1-2c-1-1.5-2-3-3.4-4.2c-0.8-0.6-1.4-1.2-2.1-1.6c-4.7-6.8-9.4-13.7-15.6-19.3
		c-2.1-1.9-4.4-3.7-6.8-5.1c-1.9-1.1-3.8-2.3-5.9-2.8c-0.8-0.2-1.5-0.3-2.3-0.3C385.1,85.3,383.3,85.9,381.7,86.8L381.7,86.8z
		 M414.8,110.9c0.1,0.1,0.2,0.1,0.2,0.2c0,0,0,0,0,0C415,111.1,414.9,111,414.8,110.9L414.8,110.9z M391.6,147.5
		c0.3,1.6,0.5,3.2,0.9,4.7c0.3,1.4,0.7,2.7,1.1,4c-0.5-0.1-1.1-0.3-1.6-0.4c-0.4-0.2-0.8-0.5-1.2-0.7c-0.1-0.1-0.3-0.3-0.4-0.4
		c-0.1-0.2-0.2-0.3-0.3-0.5c-0.1-0.4-0.2-0.7-0.3-1.1c0-0.5,0-1,0-1.4c0.2-0.7,0.3-1.3,0.5-1.9c0.3-0.6,0.7-1.3,1.1-1.9
		C391.4,147.7,391.5,147.6,391.6,147.5L391.6,147.5z"/>
	<path class="st1" d="M450.8,8.5c-1.5,0.4-2.5,1.4-3.4,2.6c-2.1,3-4.1,5.9-6.1,9c-1.4,2.3-3,4.7-4.2,7.1c-3.2,6.3-6,12.8-8.4,19.4
		c-1.8,4.9-2.9,10.2-4.1,15.3c-2,8.6-3.3,17.3-4.3,26c-2,16.4-2.5,33.4,0.3,49.7c1.7,10.2,5.3,20.2,9.3,29.8
		c-0.1-0.2-0.2-0.4-0.3-0.6c0.7,1.7,1.4,3.4,2.1,5.1c0.4,1.1,0.9,2.1,1.4,3.2c1.6,3.4,3.7,6.5,7.7,7.5c2.2,0.6,4.3,0.4,6.5-0.1
		c2.9-0.7,5.1-3,6.6-5.4c1.9-3,2.2-7.1,2.2-10.7c0-3.6-0.5-7.2-0.8-10.8c0,0,0,0,0,0c-2.1,1.5-4.4,2.7-6.6,3.9
		c-0.6,0.3-1.2,0.7-1.8,1c0,0,0-0.1-0.1-0.1c-0.6-1.7-1.3-3.4-2-5.1c0.2,0.4,0.3,0.8,0.5,1.2c-0.6-2.3-1.2-4.5-1.9-6.8
		c-0.4-1.4-0.8-2.8-1.1-4.2c-0.6-2.9-1.3-5.8-1.7-8.7c-0.8-6.3-1.5-12.6-1.5-18.9c0-6.5,0.5-12.9,1.3-19.3c1.7-12.2,4.5-24.2,8-36.1
		c1.8-6.1,3.8-12.1,5.2-18.3c2.1-9.5,3.6-19.3,4.3-29c0.5-2.3-0.7-4.9-2.7-6.1c-0.9-0.5-1.9-0.8-2.9-0.8
		C451.8,8.3,451.3,8.4,450.8,8.5L450.8,8.5z"/>
	<path class="st1" d="M398.6,85.6c-0.8,0-1.9,0-1.9,1c0,2.2,2.6,3.5,4.2,4.5c1.4,0.9,2.7,2,4.1,2.9c1.5,1,3.1,2,4.7,3
		c1.4,0.9,2.8,1.7,4.2,2.6c4.6,2.8,9.3,5.5,14.2,7.7c1.5,0.9,3.2,1.3,4.9,1.3c0.2,0,0.4,0,0.6-0.1c7,2.5,14.4,4.1,21.8,4.9
		c1.4,0.2,2.9,0.4,4.3,0.5c-0.4-0.1-0.8-0.1-1.1-0.2c1.8,0.2,3.5,0.4,5.3,0.4c1.9,0,4,0,5.7-0.8c1.4-0.7,2-2.1,1.9-3.5
		c0-0.5,0-1.3-0.5-1.5c0,0,0,0,0,0c0,0,0,0.1,0,0.1c0,0,0,0,0,0c0,0-0.1,0-0.1,0c-0.1,0-0.3-0.1-0.4-0.1c-0.1-0.1-0.3-0.1-0.4-0.2
		c0,0,0,0,0,0c-1.4-1.3-2.8-2.6-4.3-3.8c0.2,0.1,0.3,0.3,0.5,0.4c-5.2-4.4-11.3-7.6-17.5-10.2c0.5,0.2,1.1,0.5,1.6,0.7
		c-3.6-1.6-7.3-3-11.1-4.1c-1-0.9-2.3-1.5-3.6-1.8c-4.8-0.9-9.7-1.3-14.6-1.5c-2.6-0.1-5.2-0.1-7.8-0.1c-1.9,0-3.7-0.1-5.6-0.1
		c-1.5-0.1-3-0.2-4.5-0.3c-1.2-0.1-2.5-0.1-3.7-0.3c-0.3-0.1-0.6-0.1-0.9-0.2c0.1,0,0.2,0.1,0.2,0.1c-0.3-0.1-0.5-0.2-0.7-0.4
		c0-0.1-0.1-0.1-0.1-0.2c0,0,0,0,0-0.1c0,0,0,0,0,0c0.4-0.2,0.8-0.5,1.2-0.8c0,0,0,0,0,0C398.9,85.6,398.8,85.6,398.6,85.6
		L398.6,85.6z M470.5,108.5C470.5,108.5,470.6,108.5,470.5,108.5C470.6,108.5,470.5,108.5,470.5,108.5L470.5,108.5z"/>
	<path class="st1" d="M499.2,60.6c-3,2.1-4.6,3.9-6.7,6.8c-2,2.8-3,6-2.9,9.3c-1.2,4.4-1.3,9.1-1.4,13.7c-0.1,3.5,0.1,7.2,0.6,10.7
		c0.1,1.1,0.3,2.1,0.7,3c0,0,0,0,0,0c0,0,0,0.1,0,0.1c0,0.1,0,0.1,0.1,0.2c0,0.1,0,0.1,0.1,0.2c0.1,0.2,0.1,0.4,0.2,0.6c0,0,0,0,0,0
		c0.1,0,0.1,0,0.2,0c0.1,0,0.2,0,0.4,0c0,0,0,0,0.1,0c2.1,0.4,4.2-0.6,6-1.4c2.4-1.1,4.5-2.7,6.6-4.3c1.8-1.5,3.5-3.2,4.9-5
		c1.7-2.1,3.3-4.3,4.7-6.5c1.6-1.2,2.9-2.6,4-4.4c0.5-1.2,1-2.4,1.5-3.6c0.3-0.8,0.6-1.5,1-2.3c0,0,0-0.1,0.1-0.1
		c0.2-0.3,0.4-0.6,0.6-1c1.1-1.9,1.7-4,1.7-6.2c0-3.4-1.4-6.2-3.6-8.7c-2.5-2.8-6-4.1-9.5-4.1C505.2,57.6,501.9,58.7,499.2,60.6
		L499.2,60.6z M490.5,105.2c0.1,0,0.2,0,0.3,0C490.7,105.2,490.6,105.2,490.5,105.2L490.5,105.2z"/>
	<path class="st1" d="M518.3,108.3c-1.9,1.2-3.6,2.6-5.1,4.2c-1.4,1.4-2.5,3.2-3.6,4.8c0,0,0,0,0,0c1.7-1.1,3.3-2.3,4.8-3.7
		C516,112.1,517.2,110.2,518.3,108.3C518.4,108.3,518.4,108.3,518.3,108.3C518.4,108.3,518.4,108.3,518.3,108.3L518.3,108.3z"/>
	<path class="st1" d="M64.1,111.5c-2.4,0.4-3.6,3.1-4.2,5.1c-1.1,3.9,0.2,9.3,3.1,12.1c1.8,1.8,3.7,2.5,6.3,2.6
		c3.3,0.1,6.3-2.5,7.1-5.6c1.3-4.6-2.2-9.3-6.7-10.1c-0.3-0.2-0.6-0.5-0.8-0.7c-1.4-1.1-2.9-2.1-4.3-3.1c0,0,0,0-0.1-0.1
		C64.2,111.6,64.1,111.5,64.1,111.5C64.1,111.5,64.1,111.5,64.1,111.5L64.1,111.5z"/>
	<path class="st1" d="M504,107.1c0.5-0.6,1-1.3,1.5-1.9c-3.1,4.1-5.7,8.3-7.7,13.1c0.2-0.5,0.4-1,0.7-1.6c-0.7,1.7-1.5,3.4-2,5.1
		c-0.6,2.2-1.2,5-0.6,7.3c0.6,2.2,2.7,3.7,4.8,3.2c7.3,0.3,14-2.2,20.4-5.5c1.5-0.5,3-1.3,4.4-2c0.8-0.1,1.6-0.2,2.3-0.4
		c6.9-1.4,11.6-8.4,9.9-15.2c-1.3-5.3-5.6-8.3-10.6-9.6c-2.1-0.5-4.4-0.8-6.5-1c-0.5,0-1.1-0.1-1.6-0.1
		C512.9,98.5,507,101.7,504,107.1L504,107.1z"/>
	<path class="st1" d="M24.3,110.6c-1.9,0.5-3.5,1.5-4.9,2.7c-1.6,1.1-2.9,2.7-3.9,4.4c-2.7,3.8-4.2,8.7-4.4,13.7
		c-0.5,2.4-0.4,4.9,0.2,7.3c1.1,3.9,3.7,7.3,7.2,9.3c0.1,0,0.1,0.1,0.2,0.1c1.3,0.9,2.8,1.5,4.4,2c3.9,1.1,8.1,0.5,11.5-1.5
		c2.2-1.3,4-3.1,5.4-5.4c1.4-2.3,2-4.9,2-7.6c0.2-1.7-0.1-3.3-0.6-4.9c0-0.1,0-0.2,0-0.3c-0.7-2.6-2.1-4.9-4-6.9
		c-0.2-0.1-0.3-0.2-0.5-0.4c-0.3-0.4-0.5-0.7-0.8-1.1c-1.4-2.1-3-4.1-4.3-6.3c0.2-0.6,0.2-1.2,0-1.9c-0.1-0.3-0.2-0.6-0.3-0.8
		c-0.3-0.6-0.7-1-1.3-1.3c-0.2-0.3-0.5-0.5-0.9-0.6c-1.1-0.5-2.2-0.8-3.3-0.8C25.4,110.3,24.8,110.4,24.3,110.6L24.3,110.6z"/>
</g>
</svg>
