<?xml version="1.0" encoding="utf-8"?>
<!-- Generator: Adobe Illustrator 18.1.1, SVG Export Plug-In . SVG Version: 6.00 Build 0)  -->
<!DOCTYPE svg PUBLIC "-//W3C//DTD SVG 1.1//EN" "http://www.w3.org/Graphics/SVG/1.1/DTD/svg11.dtd">
<svg version="1.1" id="Layer_1" xmlns="http://www.w3.org/2000/svg" xmlns:xlink="http://www.w3.org/1999/xlink" x="0px" y="0px"
	 viewBox="0 0 56.4 56.4" style="enable-background:new 0 0 56.4 56.4;" xml:space="preserve">
<style type="text/css">
	.st0{fill:#FFFFFF;}
	.st1{fill:#100F10;}
	.st2{fill:#EE3A38;}
</style>
<g>
	<path class="st0" d="M55.1,28.2c0,14.9-12,26.9-26.9,26.9c-14.9,0-26.9-12-26.9-26.9c0-14.9,12-26.9,26.9-26.9
		C43.1,1.3,55.1,13.4,55.1,28.2"/>
	<path class="st1" d="M28.2,55.7C13,55.7,0.7,43.4,0.7,28.2C0.7,13,13,0.7,28.2,0.7c15.2,0,27.5,12.4,27.5,27.5
		C55.7,43.4,43.4,55.7,28.2,55.7 M28.2,2C13.7,2,2,13.7,2,28.2c0,14.5,11.8,26.2,26.2,26.2c14.5,0,26.2-11.8,26.2-26.2
		C54.5,13.7,42.7,2,28.2,2"/>
	<path class="st2" d="M14,46v-4.9H9.5C10.7,42.9,12.3,44.6,14,46"/>
	<path class="st2" d="M28.2,5.5C15.7,5.5,5.5,15.7,5.5,28.2c0,3.1,0.6,6,1.7,8.7H14v-3.4c0-7.9,1.6-13.9,4.9-18
		c3.3-4.1,7.3-6.2,12.1-6.2c3.6,0,6.4,0.9,8.4,2.6c2,1.7,3,4,3,6.9c0,1.8-0.5,3.3-1.5,4.4c-1,1.1-2.2,1.6-3.7,1.6
		c-1.3,0-2.4-0.4-3.3-1.3c-0.9-0.9-1.3-1.9-1.3-3.2c0-1.5,0.6-2.7,1.7-3.7c0.9-0.8,1.4-1.3,1.4-1.7c0-0.5-0.4-1-1.1-1.5
		c-0.7-0.4-1.8-0.7-3.2-0.7c-2.7,0-5,1.2-6.8,3.6c-1.9,2.4-2.8,6-2.8,10.7v9.9h14.9v4.2H22v9c2,0.6,4.1,0.9,6.2,0.9
		c12.5,0,22.7-10.2,22.7-22.7C50.9,15.7,40.8,5.5,28.2,5.5"/>
</g>
</svg>
