<?xml version="1.0" encoding="utf-8"?>
<!-- Generator: Adobe Illustrator 18.1.1, SVG Export Plug-In . SVG Version: 6.00 Build 0)  -->
<!DOCTYPE svg PUBLIC "-//W3C//DTD SVG 1.1//EN" "http://www.w3.org/Graphics/SVG/1.1/DTD/svg11.dtd">
<svg version="1.1" id="Layer_1" xmlns="http://www.w3.org/2000/svg" xmlns:xlink="http://www.w3.org/1999/xlink" x="0px" y="0px"
	 viewBox="0 0 40 40" style="enable-background:new 0 0 40 40;" xml:space="preserve">
<path d="M20.2,2.1c-9.9,0-17.9,8-17.9,17.9c0,9.9,8,17.9,17.9,17.9c9.9,0,17.9-8,17.9-17.9C38.2,10.1,30.1,2.1,20.2,2.1z M10,32.1
	c-1-1-2.4-3.3-2.6-4.1H10V32.1z M20.2,35.5c-1.5,0-3.2-0.2-4.2-0.6V28h10v-3H16v-5.8c0-3.2,0.6-5.7,1.9-7.3c1.3-1.6,2.8-2.5,4.7-2.5
	c1,0,1.7,0.2,2.2,0.5c0.5,0.3,0.7,0.6,0.7,1c0,0.3-0.3,0.7-0.9,1.2c-0.8,0.7-1.2,1.5-1.2,2.5c0,0.9,0.3,1.6,0.9,2.2
	c0.6,0.6,1.4,0.9,2.3,0.9c1,0,1.9-0.4,2.5-1.1c0.7-0.7,1-1.7,1-3c0-1.9-0.7-3.5-2.1-4.7c-1.4-1.2-3.3-1.8-5.7-1.8
	c-3.3,0-6.3,1.4-8.6,4.2c-2.2,2.8-3.6,6.9-3.6,12.3V25H5.9c-0.8-1-1.2-3.4-1.2-5.5c0-8.6,7-15.3,15.5-15.3c8.6,0,15.5,7.1,15.5,15.6
	C35.8,28.5,28.8,35.5,20.2,35.5z"/>
</svg>
