
<svg version="1.1" id="Layer_1" xmlns="http://www.w3.org/2000/svg" xmlns:xlink="http://www.w3.org/1999/xlink" x="0px" y="0px"
	 viewBox="0 0 22.2 38.5" style="enable-background:new 0 0 22.2 38.5;" xml:space="preserve">

	
<defs>
	<style type="text/css">

	.st0{fill:#fff;stroke:#000;stroke-width:1;stroke-miterlimit:5;}

	#Layer_1:hover .st0{
		fill:#000;

		
		transition: .9s;

	}

	.st0 {
			stroke-dasharray: 150;
			stroke-dashoffset:0;
			-webkit-animation: dash 4s linear forwards;
			-0-animation: dash 4s linear forwards;
			-moz-animation: dash 4s linear forwards;
			animation: dash 4s linear forwards;
		}

			@-webkit-keyframes dash {
				from {
					stroke-dashoffset: 280;
				}
				to {
					stroke-dashoffset: 0;
				}
			}




		</style>
</defs>

<path class="st0" d="M21.1,27.2c-1.1,3.6-3.2,6.5-6.3,8.8c-2.5,1.9-3.9,1.6-5.5-1.2c-1-1.8-2.3-3.2-4.4-3.7c-2.2-0.6-3-2.3-3.4-4.4
	C0.8,22,1,17.3,1,12.5C1,8.4,2.4,4.8,5.1,1.7c0.2,0,0.4,0,0.7,0C5.1,3.6,4.5,5.5,5.1,7.5c0.1,0.4,0.3,0.7,0.7,1
	C6.1,7.3,5.5,6.1,6,4.9c0.2-0.6,0.2-1.2,0.5-1.8c0.4-0.8,0.7-1.6,1.8-1.8C9.6,1,9.4,2.4,10.1,2.7h0l0,0c0.5,0.4,0.6,1.4,1.5,1.3
	c-0.1-0.8-0.6-1.3-1-1.8c0-0.3-0.4-0.8,0.3-0.9c0.2,0,0.5,0,0.7,0.1c2.3,1.8,5.2,2.8,7,5.2c0.3,0.3,0.2,0.7,0.2,1.1
	c-2.3,3-3.1,6.7-0.3,10.2c0.9,1.1,1.5,2.5,2,3.8C20.6,21.7,22.1,24.7,21.1,27.2z"/>
</svg>
