<?xml version="1.0" encoding="utf-8"?>
<!-- Generator: Adobe Illustrator 18.1.1, SVG Export Plug-In . SVG Version: 6.00 Build 0)  -->
<!DOCTYPE svg PUBLIC "-//W3C//DTD SVG 1.1//EN" "http://www.w3.org/Graphics/SVG/1.1/DTD/svg11.dtd">
<svg version="1.1" id="Layer_1" xmlns="http://www.w3.org/2000/svg" xmlns:xlink="http://www.w3.org/1999/xlink" x="0px" y="0px"
	 viewBox="0 0 110 110" style="enable-background:new 0 0 110 110;" xml:space="preserve">
<style type="text/css">
	.st0{fill:#FFFFFF;stroke:#EE3A39;stroke-width:3;stroke-miterlimit:10;}
	.st1{fill:#FFFFFF;stroke:#EE3A39;stroke-width:2;stroke-miterlimit:10;}
</style>
<g>
	<path class="st0" d="M104.6,51.1c0-5.4-4.1-9.8-9.1-10.5v21C100.5,60.9,104.6,56.5,104.6,51.1z"/>
	<path class="st0" d="M71.9,70.5c-0.7,11.6-4.1,17.1-6.1,21.6c-2.1,5,3,6.2,7.7,8.5c5,1.9,9.2-0.8,9.2-0.8S84,97.9,91,75.2
		c0.4-0.8,1.1-3.6,1.7-5.7c-1,0.7-2.2,1.1-3.5,1.1H71.9z"/>
	<path class="st0" d="M88.1,33.5H63.6c-0.4,0-22.1-4-40.1-14.6v65.2c6-3.4,21.8-12.6,38.4-14.5c0,0,1.3,0.9,1.7,0.9h24.6
		c4.2,0,7.4-3.9,7.4-7.8V39.8C95.5,35.9,92.4,33.5,88.1,33.5z"/>
	<path class="st0" d="M17.9,92.5L17.9,92.5c2.9,0,5.4-2.4,5.4-5.4V14.5c0-2.9-2.4-5.4-5.4-5.4h0c-2.9,0-5.4,2.4-5.4,5.4v72.6
		C12.5,90.1,14.9,92.5,17.9,92.5z"/>
	<path class="st0" d="M12.5,43.1c0,0-0.1,0-0.2,0c-4.2,0-7.7,3.4-7.7,7.7c0,4.2,3.4,7.7,7.7,7.7c0.1,0,0.2,0,0.2,0V43.1L12.5,43.1z"
		/>
	<line class="st1" x1="63" y1="34" x2="63" y2="70"/>
	<path class="st0" d="M65.7,70.5c0,0.3-0.1,0.6-0.1,1c0,3.3,2.1,6.2,5.1,7.2c0.5-2.4,0.9-5,1.1-8.2H65.7z"/>
</g>
</svg>
