<?xml version="1.0" encoding="utf-8"?>
<!-- Generator: Adobe Illustrator 18.1.1, SVG Export Plug-In . SVG Version: 6.00 Build 0)  -->
<!DOCTYPE svg PUBLIC "-//W3C//DTD SVG 1.1//EN" "http://www.w3.org/Graphics/SVG/1.1/DTD/svg11.dtd">
<svg version="1.1" id="Layer_1" xmlns="http://www.w3.org/2000/svg" xmlns:xlink="http://www.w3.org/1999/xlink" x="0px" y="0px"
	 viewBox="0 0 110 110" style="enable-background:new 0 0 110 110;" xml:space="preserve">
<style type="text/css">
	.st0{fill:#FFFFFF;stroke:#EE3A39;stroke-width:3;stroke-miterlimit:10;}
	.st1{fill:#EE3A39;}
	.st2{fill:none;stroke:#EE3A39;stroke-width:2;stroke-miterlimit:10;}
</style>
<g>
	<circle class="st0" cx="48.9" cy="47.2" r="36.8"/>
	<path class="st1" d="M99.8,100.9L99.8,100.9c-1.4,1.4-3.7,1.4-5.1,0L72.6,78.8c-1.4-1.4-1.4-3.7,0-5.1l0,0c1.4-1.4,3.7-1.4,5.1,0
		l22.1,22.1C101.2,97.3,101.2,99.5,99.8,100.9z"/>
</g>
<g>
	<path class="st2" d="M48.4,25.2c-4.8,0-9.3,1.9-12.7,5.3C32,34.2,30,39.1,30,44.3c0,5.2,2,10.1,5.7,13.8l12.7,12.7L61.1,58
		c3.7-3.7,5.7-8.6,5.7-13.8c0-5.2-2-10.1-5.7-13.8C57.7,27.1,53.2,25.2,48.4,25.2z"/>
</g>
<circle class="st2" cx="48.4" cy="41.1" r="8.7"/>
</svg>
