<?xml version="1.0" encoding="utf-8"?>
<!-- Generator: Adobe Illustrator 18.1.1, SVG Export Plug-In . SVG Version: 6.00 Build 0)  -->
<!DOCTYPE svg PUBLIC "-//W3C//DTD SVG 1.1//EN" "http://www.w3.org/Graphics/SVG/1.1/DTD/svg11.dtd">
<svg version="1.1" id="Layer_1" xmlns="http://www.w3.org/2000/svg" xmlns:xlink="http://www.w3.org/1999/xlink" x="0px" y="0px"
	 viewBox="0 0 110 110" style="enable-background:new 0 0 110 110;" xml:space="preserve">
<style type="text/css">
	.st0{fill:#FFFFFF;stroke:#EE3A39;stroke-width:3;stroke-miterlimit:10;}
	.st1{fill:#EE3A39;}
	.st2{fill:none;stroke:#EE3A39;stroke-width:2;stroke-linecap:round;stroke-miterlimit:10;}
</style>
<path class="st0" d="M72,42.5h26.5c4.2,0,8,3.9,8,8.1v31.2c0,4.2-3.8,7.7-8,7.7h-3v12.8L82.8,89.5H45.2c-4.2,0-7.7-3.5-7.7-7.7V59"
	/>
<path class="st0" d="M63.2,11.5H10c-4.2,0-7.5,3.9-7.5,8.1v31.2c0,4.2,3.3,7.7,7.5,7.7h3.5v12.8l12.2-12.8h37.6
	c4.2,0,8.3-3.5,8.3-7.7V19.6C71.5,15.4,67.4,11.5,63.2,11.5z"/>
<g>
	<circle class="st1" cx="53.4" cy="67.1" r="3.1"/>
	<circle class="st1" cx="71.7" cy="67.1" r="3.1"/>
	<circle class="st1" cx="90.1" cy="67.1" r="3.1"/>
</g>
<line class="st2" x1="16" y1="27" x2="57" y2="27"/>
<line class="st2" x1="16" y1="35" x2="57" y2="35"/>
<line class="st2" x1="16" y1="43" x2="46" y2="43"/>
</svg>
