<?xml version="1.0" encoding="iso-8859-1"?>
<!-- Generator: Adobe Illustrator 17.0.2, SVG Export Plug-In . SVG Version: 6.00 Build 0)  -->
<!DOCTYPE svg PUBLIC "-//W3C//DTD SVG 1.1//EN" "http://www.w3.org/Graphics/SVG/1.1/DTD/svg11.dtd">
<svg version="1.1" id="Layer_1" xmlns="http://www.w3.org/2000/svg" xmlns:xlink="http://www.w3.org/1999/xlink" x="0px" y="0px"
	 width="595.276px" height="841.89px" viewBox="0 0 595.276 841.89" style="enable-background:new 0 0 595.276 841.89;"
	 xml:space="preserve">
<rect x="-22.894" y="1.11" style="fill:#D5DF30;" width="655.467" height="883.456"/>
<g>
	
		<rect x="373.423" y="205.309" transform="matrix(-0.7071 -0.7071 0.7071 -0.7071 509.0496 654.953)" style="fill:#FFFFFF;" width="33.486" height="33.486"/>
	
		<rect x="370.813" y="188.822" transform="matrix(-0.7071 -0.7071 0.7071 -0.7071 492.5236 615.1548)" style="fill:#FFFFFF;" width="5.725" height="33.484"/>
</g>
<path style="fill:#FFFFFF;" d="M441.864,292.131l39.215,39.217h0.379l33.268,33.268c2.176,2.175,5.71,2.175,7.889,0.002
	c2.177-2.182,2.178-5.712,0-7.889l-25.381-25.381h13.184l-0.177-0.177h67.136c14.303,0,25.9-11.594,25.899-25.897
	c0.001-14.304-11.597-25.897-25.899-25.896l-95.622,0.001c-6.49,0-12.402,2.406-16.948,6.349l-0.865-0.865l73.363-73.377
	c4.06-4.043,4.06-10.623-0.001-14.677c-4.049-4.064-10.622-4.064-14.675,0l-80.699,80.722
	C437.897,281.551,437.882,288.053,441.864,292.131z"/>
<path style="fill:#FFFFFF;" d="M733.644,176l-21.136,21.137L610.384,95.013L443.06,262.326c-3.138,2.867-4.28,3.421-6.847,4.703
	c-12.653,6.323-29.342-2.975-40.46-14.087c-0.916-0.916-1.911-1.754-2.945-2.539L600.425,42.78L733.644,176z"/>
<g>
	<path style="fill:#FFFFFF;" d="M398.661,140.126c0-10.849,6.78-20.343,6.78-20.343c0-1.984,7.185-7.899,7.185-17.784
		c0.013-9.885-10.517-23.974-17.661-32.805c-7.158-7.151-13.666-11.563-22.086-15.35c-7.991-3.364-5.05-9.677-5.05-13.464
		c0-3.781,1.9-5.883,1.9-13.243c0-1.919-0.95-4.125-2.474-6.461l78.545,78.544l-581.179,581.187
		c-0.689-1.283,534.117-538.211,533.87-540.209C398.544,140.177,398.609,140.151,398.661,140.126z"/>
	<path style="fill:#FFFFFF;" d="M503.548,68.882c8.902,0,30.702,15.194,33.722,29.738l67.378-67.384l-10.126-10.119l-48.896,48.903
		l-80.133-80.133c-1.471-0.455-2.693-1.087-3.488-1.887c-4.789-4.79-13.848,1.066-19.17,6.39c-5.311,5.316-14.369,5.856-42.585,11.7
		c-11.336,2.362-18.572,4.627-22.854,7.224l76.957,76.964C468.486,87.246,494.763,68.882,503.548,68.882z"/>
</g>
<path style="fill:none;" d="M521.447,149.679l0.289,1.093C521.736,150.772,521.681,150.28,521.447,149.679z"/>
<path d="M278.454,47.719l-16.48,16.48v0.159l-13.98,13.98c-0.915,0.915-0.915,2.4-0.001,3.315c0.916,0.916,2.4,0.916,3.315,0
	l10.665-10.665v5.54l0.074-0.074v28.213c0,6.011,4.872,10.885,10.883,10.885c6.01,0,10.882-4.874,10.882-10.885V64.482
	c0-2.727-1.012-5.212-2.669-7.123l0.363-0.363l30.835,30.83c1.699,1.707,4.465,1.707,6.168,0c1.708-1.702,1.708-4.464,0-6.167
	l-33.923-33.914C282.901,46.053,280.168,46.046,278.454,47.719z"/>
<g>
	<path d="M358.185,109.993c0,1.628-1.017,3.053-1.017,3.053c0,0.298-1.079,1.185-1.078,2.669c-0.002,1.483,1.578,3.598,2.65,4.923
		c1.073,1.073,2.051,1.735,3.313,2.304c1.199,0.506,0.758,1.452,0.758,2.021c0,0.568-0.284,0.884-0.284,1.988
		c0,0.288,0.143,0.618,0.371,0.969l-11.788-11.787l87.218-87.218c0.103,0.192-80.154,80.768-80.117,81.068
		C358.203,109.985,358.193,109.989,358.185,109.993z"/>
	
		<rect x="316.368" y="105.354" transform="matrix(0.7071 0.7071 -0.7071 0.7071 174.2848 -195.8007)" width="14.25" height="14.25"/>
	
		<rect x="329.293" y="112.371" transform="matrix(0.7071 0.7071 -0.7071 0.7071 181.2916 -198.7025)" width="2.436" height="14.25"/>
	<path d="M342.444,120.685c-1.337,0-4.607-2.28-5.06-4.463l-10.112,10.113l1.518,1.519l7.34-7.34l12.025,12.025
		c0.22,0.068,0.404,0.163,0.523,0.283c0.719,0.719,2.077-0.16,2.876-0.958c0.798-0.799,2.155-0.88,6.392-1.757
		c1.7-0.355,2.786-0.694,3.43-1.084l-11.549-11.55C347.707,117.929,343.764,120.685,342.444,120.685z"/>
</g>
<path d="M302.275,120.096l-3.154-3.153l15.24-15.241l-24.97-24.97c-0.439-0.56-0.67-0.797-0.86-1.091
	c-1.094-1.688,0.604-4.31,2.263-5.969c0.136-0.136,0.26-0.285,0.378-0.439l30.984,30.984L302.275,120.096z"/>
<path d="M274.743,155.479l16.48-16.481h0.159l13.98-13.98c0.915-0.914,2.4-0.914,3.315-0.001c0.915,0.917,0.915,2.4,0,3.315
	l-10.666,10.666h5.54l-0.074,0.074h28.213c6.011,0,10.885,4.872,10.885,10.883c0,6.011-4.874,10.883-10.885,10.883l-40.184-0.001
	c-2.727,0-5.212-1.011-7.122-2.668l-0.363,0.363l30.83,30.836c1.706,1.699,1.706,4.464,0,6.168c-1.701,1.708-4.464,1.708-6.167,0
	l-33.913-33.923C273.077,159.925,273.07,157.192,274.743,155.479z"/>
<path d="M414.857,10.425l-3.153,3.154l15.24,15.241l-24.971,24.97c-0.406,0.409-0.551,0.658-0.734,0.956
	c-0.922,1.5,0.479,4.446,2.137,6.104c0.137,0.137,0.26,0.285,0.379,0.44l30.983-30.984L414.857,10.425z"/>
<g>
	<path d="M548.317,38.7l-16.479-16.48h-0.159L517.698,8.241c-0.915-0.915-2.4-0.915-3.315-0.001c-0.915,0.917-0.915,2.4,0,3.315
		l10.665,10.666h-5.539l0.074,0.074H491.37c-6.011,0-10.885,4.873-10.885,10.883c0,6.01,4.873,10.883,10.885,10.883l40.185,0
		c2.727,0,5.212-1.011,7.122-2.668l0.363,0.364L508.21,72.59c-1.707,1.699-1.707,4.464,0,6.168c1.701,1.708,4.464,1.708,6.167,0
		l33.913-33.923C549.984,43.147,549.99,40.414,548.317,38.7z"/>
	<g>
		<path d="M486.044,118.432c-1.629,0-3.053-1.018-3.053-1.018c-0.298-0.001-1.186-1.079-2.669-1.078
			c-1.483-0.001-3.598,1.578-4.924,2.651c-1.072,1.072-1.735,2.05-2.304,3.312c-0.505,1.199-1.451,0.758-2.02,0.758
			c-0.568,0-0.884-0.284-1.988-0.284c-0.288,0-0.618,0.143-0.97,0.371l11.788-11.788l87.218,87.218
			c-0.192,0.104-80.768-80.154-81.068-80.116C486.051,118.449,486.048,118.44,486.044,118.432z"/>
		
			<rect x="476.434" y="76.614" transform="matrix(-0.7071 0.7071 -0.7071 -0.7071 884.7002 -198.9737)" width="14.25" height="14.25"/>
		
			<rect x="475.322" y="83.631" transform="matrix(-0.7071 0.7071 -0.7071 -0.7071 877.6802 -182.0338)" width="2.436" height="14.251"/>
		<path d="M475.352,102.69c0-1.336,2.28-4.607,4.463-5.059l-10.113-10.113l-1.518,1.52l7.34,7.339l-12.025,12.025
			c-0.068,0.22-0.163,0.404-0.283,0.523c-0.719,0.719,0.159,2.077,0.958,2.876c0.799,0.798,0.88,2.156,1.757,6.392
			c0.354,1.7,0.694,2.786,1.084,3.431l11.549-11.55C478.108,107.953,475.352,104.01,475.352,102.69z"/>
	</g>
	<g>
		<path d="M506.838,96.267c1.628,0,3.053,1.017,3.053,1.017c0.298,0.001,1.186,1.079,2.669,1.079
			c1.483,0.001,3.598-1.579,4.923-2.651c1.073-1.073,1.735-2.051,2.304-3.313c0.505-1.199,1.452-0.758,2.021-0.758
			c0.567,0,0.883,0.284,1.987,0.284c0.288,0,0.619-0.142,0.97-0.371l-11.787,11.788l-87.218-87.218
			c0.192-0.104,80.768,80.154,81.068,80.117C506.83,96.25,506.834,96.258,506.838,96.267z"/>
		<rect x="502.198" y="123.834" transform="matrix(0.7071 -0.7071 0.7071 0.7071 56.5764 398.5047)" width="14.25" height="14.25"/>
		<rect x="515.123" y="116.816" transform="matrix(0.7071 -0.7071 0.7071 0.7071 63.5863 401.3989)" width="2.436" height="14.25"/>
		<path d="M517.529,112.008c0,1.336-2.28,4.607-4.463,5.06l10.112,10.112l1.519-1.52l-7.339-7.339l12.025-12.025
			c0.068-0.22,0.163-0.403,0.283-0.523c0.719-0.719-0.16-2.077-0.959-2.876c-0.798-0.798-0.879-2.156-1.756-6.392
			c-0.354-1.701-0.694-2.787-1.084-3.43l-11.55,11.549C514.773,106.745,517.529,110.69,517.529,112.008z"/>
	</g>
	<path d="M475.94,62.522l3.154-3.154l15.24,15.241l24.971-24.971c0.529-0.463,0.717-0.588,1.014-0.744
		c1.868-0.983,4.387,0.488,6.046,2.146c0.136,0.136,0.285,0.26,0.44,0.378l-30.983,30.984L475.94,62.522z"/>
	<path d="M440.559,34.989l16.48,16.48v0.16l13.979,13.98c0.915,0.915,0.915,2.401,0.001,3.315c-0.916,0.915-2.4,0.915-3.315,0
		l-10.665-10.666v5.54l-0.074-0.075v28.213c0,6.011-4.872,10.884-10.884,10.884c-6.01,0-10.882-4.873-10.882-10.884V51.752
		c0-2.726,1.012-5.212,2.669-7.122l-0.363-0.363l-30.836,30.83c-1.699,1.707-4.465,1.707-6.168,0c-1.708-1.701-1.708-4.463,0-6.166
		l33.923-33.914C436.111,33.322,438.845,33.316,440.559,34.989z"/>
	<path d="M587.795,176.849l-3.154-3.153l-15.24,15.24l-24.971-24.97c-0.485-0.432-0.731-0.609-1.001-0.744
		c-1.823-0.912-4.399,0.487-6.059,2.146c-0.137,0.137-0.285,0.261-0.439,0.379l30.983,30.983L587.795,176.849z"/>
</g>
<g>
	<path style="fill:#FFFFFF;" d="M1045.376,103.406l-16.479-16.48h-0.159l-13.981-13.979c-0.915-0.915-2.4-0.915-3.315-0.001
		c-0.915,0.916-0.915,2.4,0,3.315l10.665,10.666h-5.539l0.074,0.074h-28.213c-6.011,0.001-10.885,4.873-10.885,10.883
		c0,6.01,4.873,10.883,10.885,10.883l40.185-0.001c2.727,0,5.212-1.011,7.122-2.668l0.363,0.364l-30.83,30.836
		c-1.707,1.699-1.707,4.464,0,6.168c1.701,1.708,4.464,1.708,6.167,0l33.913-33.923
		C1047.043,107.853,1047.049,105.12,1045.376,103.406z"/>
	<g>
		<path style="fill:#FFFFFF;" d="M983.102,183.138c-1.629,0-3.053-1.018-3.053-1.018c-0.298-0.001-1.187-1.079-2.669-1.078
			c-1.483-0.001-3.598,1.578-4.924,2.651c-1.072,1.072-1.735,2.05-2.304,3.312c-0.505,1.199-1.451,0.758-2.019,0.758
			c-0.568,0-0.884-0.284-1.988-0.284c-0.288,0-0.618,0.143-0.97,0.371l11.788-11.788l87.218,87.218
			c-0.192,0.104-80.769-80.154-81.068-80.116C983.109,183.155,983.106,183.147,983.102,183.138z"/>
		
			<rect x="973.492" y="141.32" transform="matrix(-0.7071 0.7071 -0.7071 -0.7071 1778.985 -439.989)" style="fill:#FFFFFF;" width="14.25" height="14.25"/>
		
			<rect x="972.381" y="148.337" transform="matrix(-0.7071 0.7071 -0.7071 -0.7071 1771.9539 -423.0645)" style="fill:#FFFFFF;" width="2.436" height="14.251"/>
		<path style="fill:#FFFFFF;" d="M972.411,167.397c0-1.336,2.28-4.607,4.463-5.059l-10.113-10.113l-1.518,1.52l7.34,7.339
			l-12.025,12.025c-0.068,0.22-0.163,0.404-0.283,0.523c-0.719,0.719,0.159,2.077,0.958,2.876c0.799,0.798,0.88,2.156,1.757,6.392
			c0.354,1.7,0.694,2.786,1.084,3.431l11.549-11.55C975.167,172.659,972.411,168.716,972.411,167.397z"/>
	</g>
	<g>
		<path style="fill:#FFFFFF;" d="M1003.896,160.973c1.628,0,3.053,1.017,3.053,1.017c0.298,0.001,1.186,1.079,2.669,1.079
			c1.483,0.001,3.598-1.579,4.923-2.651c1.073-1.073,1.735-2.051,2.304-3.313c0.505-1.199,1.452-0.758,2.02-0.758
			c0.567,0,0.883,0.284,1.987,0.284c0.288,0,0.619-0.142,0.97-0.371l-11.787,11.788L922.817,80.83
			c0.192-0.104,80.768,80.154,81.068,80.117C1003.889,160.956,1003.893,160.964,1003.896,160.973z"/>
		
			<rect x="999.257" y="188.54" transform="matrix(0.7071 -0.7071 0.7071 0.7071 156.4059 768.9277)" style="fill:#FFFFFF;" width="14.25" height="14.25"/>
		
			<rect x="1012.181" y="181.523" transform="matrix(0.7071 -0.7071 0.7071 0.7071 163.4266 771.8391)" style="fill:#FFFFFF;" width="2.436" height="14.25"/>
		<path style="fill:#FFFFFF;" d="M1014.588,176.714c0,1.336-2.28,4.607-4.463,5.06l10.112,10.112l1.519-1.52l-7.339-7.339
			l12.025-12.025c0.068-0.22,0.163-0.403,0.283-0.523c0.719-0.719-0.16-2.077-0.959-2.876c-0.798-0.798-0.879-2.156-1.756-6.392
			c-0.354-1.701-0.694-2.787-1.084-3.43l-11.55,11.549C1011.832,171.451,1014.588,175.396,1014.588,176.714z"/>
	</g>
	<path style="fill:#FFFFFF;" d="M972.999,127.228l3.154-3.154l15.24,15.241l24.971-24.971c0.529-0.463,0.717-0.588,1.014-0.744
		c1.868-0.983,4.387,0.488,6.046,2.146c0.136,0.136,0.285,0.26,0.439,0.378l-30.983,30.984L972.999,127.228z"/>
	<path style="fill:#FFFFFF;" d="M937.617,99.695l16.48,16.48v0.16l13.979,13.98c0.915,0.915,0.915,2.401,0.001,3.315
		c-0.916,0.915-2.4,0.915-3.315,0l-10.665-10.665v5.54l-0.074-0.075v28.213c0,6.011-4.872,10.884-10.884,10.884
		c-6.01,0-10.882-4.873-10.882-10.884v-40.185c0-2.727,1.012-5.212,2.669-7.123l-0.363-0.363l-30.836,30.83
		c-1.699,1.707-4.465,1.707-6.168,0c-1.708-1.701-1.708-4.463,0-6.167l33.923-33.913C933.17,98.028,935.903,98.023,937.617,99.695z"
		/>
	<path style="fill:#FFFFFF;" d="M1084.854,241.555l-3.154-3.153l-15.24,15.24l-24.971-24.97c-0.485-0.432-0.73-0.609-1.001-0.744
		c-1.823-0.912-4.399,0.487-6.059,2.145c-0.137,0.137-0.285,0.261-0.439,0.379l30.983,30.983L1084.854,241.555z"/>
</g>
<path d="M313.228,596.296l16.481-16.479v-0.159l13.978-13.98c0.916-0.915,0.916-2.4,0.002-3.315c-0.916-0.915-2.4-0.915-3.314,0
	l-10.666,10.665v-5.539l-0.074,0.074v-28.213c0-6.011-4.873-10.885-10.883-10.885c-6.01,0-10.883,4.873-10.883,10.885v40.185
	c0,2.727,1.012,5.212,2.668,7.122l-0.363,0.363l-30.835-30.83c-1.699-1.707-4.463-1.707-6.168,0c-1.707,1.701-1.707,4.464,0,6.167
	l33.923,33.913C308.781,597.963,311.516,597.969,313.228,596.296z"/>
<g>
	<path d="M318.819,251.33c-1.629,0-3.053-1.018-3.053-1.018c-0.298,0-1.187-1.078-2.669-1.078c-1.483,0-3.598,1.578-4.924,2.652
		c-1.072,1.072-1.735,2.049-2.304,3.312c-0.505,1.199-1.451,0.758-2.02,0.758c-0.568,0-0.884-0.285-1.988-0.285
		c-0.288,0-0.618,0.143-0.97,0.371l11.788-11.787l87.218,87.217c-0.192,0.103-80.768-80.154-81.068-80.115
		C318.826,251.348,318.823,251.34,318.819,251.33z"/>
	
		<rect x="309.209" y="209.513" transform="matrix(-0.7071 0.7071 -0.7071 -0.7071 693.2028 146.1447)" width="14.25" height="14.25"/>
	
		<rect x="308.098" y="216.53" transform="matrix(-0.7071 0.7071 -0.7071 -0.7071 686.1815 163.0716)" width="2.436" height="14.25"/>
	<path d="M308.128,235.59c0-1.336,2.28-4.607,4.463-5.059l-10.113-10.112l-1.518,1.52l7.34,7.339l-12.025,12.024
		c-0.068,0.221-0.163,0.404-0.283,0.523c-0.719,0.719,0.159,2.078,0.958,2.877c0.799,0.797,0.88,2.156,1.757,6.391
		c0.354,1.701,0.694,2.787,1.084,3.432l11.549-11.551C310.884,240.852,308.128,236.908,308.128,235.59z"/>
</g>
<g>
	<path d="M255.663,554.816c0,1.627-1.018,3.053-1.018,3.053c0,0.297-1.078,1.186-1.078,2.668c-0.002,1.484,1.578,3.598,2.65,4.924
		c1.074,1.072,2.051,1.734,3.314,2.303c1.199,0.506,0.758,1.453,0.758,2.021c0,0.566-0.285,0.883-0.285,1.986
		c0,0.289,0.143,0.619,0.371,0.971l-11.787-11.787l87.216-87.218c0.104,0.192-80.153,80.769-80.116,81.067
		C255.681,554.809,255.671,554.812,255.663,554.816z"/>
	<rect x="213.847" y="550.176" transform="matrix(0.7071 0.7071 -0.7071 0.7071 458.7923 6.979)" width="14.25" height="14.25"/>
	<rect x="226.77" y="557.194" transform="matrix(0.7071 0.7071 -0.7071 0.7071 465.8112 4.0737)" width="2.436" height="14.25"/>
	<path d="M239.923,565.508c-1.336,0-4.607-2.281-5.061-4.463l-10.111,10.111l1.519,1.52l7.338-7.34l12.025,12.025
		c0.221,0.068,0.404,0.164,0.523,0.283c0.719,0.719,2.078-0.16,2.877-0.959c0.797-0.797,2.156-0.879,6.391-1.756
		c1.701-0.353,2.787-0.693,3.43-1.084l-11.549-11.549C245.185,562.752,241.241,565.508,239.923,565.508z"/>
</g>
<g>
	<rect x="388.319" y="384.143" transform="matrix(0.7071 0.7071 -0.7071 0.7071 392.491 -165.0217)" width="14.25" height="14.25"/>
	
		<rect x="401.243" y="391.161" transform="matrix(0.7071 0.7071 -0.7071 0.7071 399.5091 -167.9275)" width="2.436" height="14.25"/>
</g>
<g>
	<path d="M244.136,237.374c1.627,0,3.053-1.018,3.053-1.018c0.297,0,1.186-1.078,2.668-1.078c1.484-0.002,3.598,1.578,4.924,2.65
		c1.072,1.074,1.734,2.051,2.303,3.314c0.506,1.199,1.453,0.758,2.022,0.758c0.566,0,0.883-0.285,1.986-0.285
		c0.289,0,0.619,0.143,0.971,0.371L250.275,230.3l-87.218,87.216c0.192,0.103,80.769-80.153,81.067-80.116
		C244.128,237.392,244.132,237.382,244.136,237.374z"/>
	<path d="M254.828,221.634c0-1.336-2.281-4.607-4.463-5.061l10.111-10.112l1.52,1.52l-7.34,7.339l12.025,12.025
		c0.068,0.221,0.164,0.404,0.283,0.523c0.719,0.719-0.16,2.078-0.959,2.877c-0.797,0.797-0.879,2.156-1.756,6.391
		c-0.353,1.701-0.693,2.787-1.084,3.43l-11.549-11.549C252.072,226.896,254.828,222.952,254.828,221.634z"/>
</g>
<g>
	<path d="M290.646,475.238c1.628,0,3.053-1.018,3.053-1.018c0.298,0,1.186-1.078,2.669-1.078c1.483-0.002,3.598,1.578,4.923,2.65
		c1.073,1.074,1.735,2.051,2.304,3.314c0.505,1.199,1.452,0.758,2.021,0.758c0.567,0,0.883-0.285,1.987-0.285
		c0.288,0,0.619,0.143,0.97,0.371l-11.787-11.787l-87.218,87.217c0.192,0.104,80.769-80.154,81.068-80.117
		C290.639,475.256,290.643,475.246,290.646,475.238z"/>
	<rect x="286.007" y="433.422" transform="matrix(0.7071 0.7071 -0.7071 0.7071 397.3698 -78.2423)" width="14.25" height="14.25"/>
	<rect x="298.931" y="440.439" transform="matrix(0.7071 0.7071 -0.7071 0.7071 404.3881 -81.1492)" width="2.436" height="14.25"/>
	<path d="M301.338,459.498c0-1.336-2.28-4.607-4.463-5.06l10.112-10.111l1.519,1.52l-7.339,7.338l12.025,12.025
		c0.068,0.221,0.163,0.404,0.283,0.523c0.719,0.719-0.16,2.078-0.959,2.877c-0.798,0.797-0.879,2.156-1.756,6.391
		c-0.354,1.701-0.694,2.787-1.084,3.43l-11.55-11.549C298.582,464.76,301.338,460.816,301.338,459.498z"/>
</g>
<path d="M289.409,523.919l3.152,3.154l-15.24,15.24l24.97,24.971c0.506,0.575,0.621,0.82,0.772,1.138
	c0.812,1.719-0.516,4.263-2.174,5.922c-0.137,0.136-0.26,0.285-0.377,0.44L269.528,543.8L289.409,523.919z"/>
<path d="M253.877,362.986l-16.48,16.479v0.16l-13.979,13.98c-0.916,0.915-0.916,2.4-0.002,3.315c0.916,0.915,2.4,0.915,3.314,0
	l10.666-10.665v5.539l0.074-0.074v28.213c0,6.011,4.873,10.885,10.883,10.885c6.01,0,10.883-4.873,10.883-10.885v-40.186
	c0-2.726-1.012-5.211-2.668-7.121l0.363-0.363l30.836,30.83c1.699,1.707,4.463,1.707,6.168,0c1.707-1.701,1.707-4.464,0-6.167
	l-33.924-33.913C258.324,361.318,255.59,361.312,253.877,362.986z"/>
<g>
	<path d="M311.443,404.466c0-1.628,1.018-3.053,1.018-3.053c0-0.298,1.078-1.186,1.078-2.669c0.002-1.483-1.578-3.598-2.65-4.923
		c-1.074-1.073-2.051-1.735-3.315-2.304c-1.199-0.506-0.758-1.453-0.758-2.021c0-0.566,0.285-0.883,0.285-1.986
		c0-0.289-0.143-0.619-0.371-0.971l11.787,11.788l-87.217,87.218c-0.104-0.192,80.154-80.769,80.117-81.068
		C311.426,404.474,311.435,404.47,311.443,404.466z"/>
	<rect x="339.01" y="394.856" transform="matrix(-0.7071 -0.7071 0.7071 -0.7071 306.6485 930.978)" width="14.25" height="14.25"/>
	
		<rect x="337.9" y="387.837" transform="matrix(-0.7071 -0.7071 0.7071 -0.7071 299.6153 914.0346)" width="2.436" height="14.251"/>
	<path d="M327.184,393.774c1.336,0,4.607,2.28,5.06,4.463l10.111-10.112l-1.52-1.52l-7.338,7.34l-12.025-12.025
		c-0.221-0.068-0.404-0.164-0.523-0.283c-0.719-0.719-2.078,0.16-2.877,0.959c-0.797,0.797-2.156,0.879-6.391,1.756
		c-1.701,0.353-2.787,0.693-3.43,1.084l11.549,11.55C321.922,396.53,325.865,393.774,327.184,393.774z"/>
</g>
<path d="M277.697,435.363l-3.152-3.154l15.24-15.24l-24.971-24.971c-0.439-0.467-0.658-0.607-0.893-1.06
	c-1.009-1.952,0.637-4.34,2.295-6c0.137-0.135,0.26-0.285,0.377-0.44l30.984,30.984L277.697,435.363z"/>
<path d="M411.126,356.047l-16.48-16.48h-0.159l-13.98-13.978c-0.915-0.916-2.4-0.916-3.315-0.002c-0.915,0.916-0.915,2.4,0,3.315
	l10.665,10.666h-5.539l0.074,0.074h-28.213c-6.011,0-10.885,4.873-10.885,10.883c0,6.01,4.873,10.883,10.885,10.883h40.185
	c2.727,0,5.212-1.012,7.122-2.668l0.363,0.363l-30.83,30.836c-1.707,1.699-1.707,4.463,0,6.168c1.701,1.707,4.464,1.707,6.167,0
	l33.913-33.924C412.793,360.494,412.799,357.76,411.126,356.047z"/>
<path d="M338.749,379.867l3.154-3.152l15.24,15.24l24.971-24.971c0.528-0.468,0.615-0.6,0.931-0.755
	c1.627-0.804,4.47,0.5,6.129,2.158c0.136,0.137,0.285,0.26,0.439,0.377l-30.983,30.984L338.749,379.867z"/>
<path d="M282.189,173.792l16.48,16.48v0.16l13.98,13.979c0.915,0.915,0.915,2.401,0.001,3.316c-0.916,0.915-2.4,0.915-3.315,0
	l-10.665-10.666v5.54l-0.074-0.075v28.213c0,6.012-4.872,10.885-10.884,10.885c-6.01,0-10.882-4.873-10.882-10.885v-40.185
	c0-2.727,1.012-5.212,2.669-7.123l-0.363-0.363l-30.836,30.83c-1.699,1.707-4.465,1.707-6.168,0c-1.708-1.701-1.708-4.463,0-6.166
	l33.923-33.914C277.741,172.125,280.475,172.119,282.189,173.792z"/>
<g>
	<g>
		<path d="M307.1,764.143c-3.478-0.003-6.524-2.178-6.524-2.178c-0.638,0-2.536-2.305-5.71-2.302
			c-3.17-0.006-7.689,3.37-10.524,5.666c-2.294,2.291-3.713,4.388-4.927,7.085c-1.082,2.563-3.104,1.621-4.318,1.618
			c-1.218,0.003-1.891-0.606-4.254-0.606c-0.613,0-1.323,0.307-2.071,0.793l25.202-25.205l186.494,186.494
			c-0.408,0.22-172.699-171.391-173.342-171.31C307.116,764.181,307.11,764.162,307.1,764.143z"/>
		
			<rect x="286.551" y="674.724" transform="matrix(-0.7071 0.7071 -0.7071 -0.7071 1003.0455 964.4689)" width="30.472" height="30.469"/>
		
			<rect x="284.176" y="689.731" transform="matrix(-0.7075 0.7067 -0.7067 -0.7075 987.8945 1001.0408)" width="5.208" height="30.472"/>
		<path d="M284.24,730.484c0-2.858,4.877-9.853,9.543-10.818l-21.624-21.624l-3.248,3.25l15.694,15.693l-25.712,25.711
			c-0.149,0.47-0.351,0.862-0.607,1.121c-1.535,1.537,0.342,4.44,2.051,6.15c1.707,1.704,1.878,4.609,3.756,13.663
			c0.755,3.637,1.483,5.958,2.316,7.337l24.693-24.693C290.131,741.74,284.241,733.301,284.24,730.484z"/>
	</g>
	<path d="M-305.626,797.163l37.474-37.473l181.048,181.048L209.545,644.12c5.399-4.596,7.628-6.935,11.224-9.027
		c20.577-11.967,52.926,5.961,72.634,25.66c1.625,1.624,3.389,3.108,5.227,4.505l-368.073,368.09L-305.626,797.163z"/>
</g>
<path d="M668.627,246.671l-11.718,11.718l-56.617-56.617l-92.764,92.757c-1.739,1.589-2.373,1.896-3.796,2.607
	c-7.015,3.505-16.267-1.649-22.431-7.81c-0.508-0.508-1.06-0.973-1.633-1.408l115.102-115.105L668.627,246.671z"/>
<path d="M492.304,892.826l-31.007-31.005l149.812-149.812L365.665,466.55c-3.946-4.175-7.257-6.459-8.708-9.58
	c-9.396-20.207,6.177-43.507,22.477-59.817c1.344-1.344,2.573-2.804,3.724-4.321L687.73,697.396L492.304,892.826z"/>
<path d="M395.895,337.238l3.154-3.154l-15.24-15.24l24.969-24.971c0.379-0.42,0.577-0.617,0.723-0.935
	c0.922-2.016-0.465-4.465-2.123-6.124c-0.137-0.137-0.262-0.285-0.379-0.44l-30.984,30.983L395.895,337.238z"/>
<rect x="-312.306" y="-60.009" style="fill:#FFFFFF;" width="311.394" height="957.792"/>
<rect x="-146.637" y="842.752" style="fill:#FFFFFF;" width="957.793" height="311.393"/>
<rect x="344.954" y="536.526" transform="matrix(0.7071 0.7071 -0.7071 0.7071 540.5602 -223.8097)" width="390.976" height="8.167"/>
<rect x="350.256" y="532.629" transform="matrix(0.7071 0.7071 -0.7071 0.7071 538.3564 -229.1151)" width="390.976" height="5.334"/>
<rect x="595.81" y="-36.556" style="fill:#FFFFFF;" width="311.393" height="957.792"/>
<g>
	
		<rect x="152.642" y="293.092" transform="matrix(-0.7071 -0.7071 0.7071 -0.7071 62.87 631.3077)" width="19.083" height="19.083"/>
	<rect x="151.154" y="283.696" transform="matrix(-0.707 -0.7072 0.7072 -0.707 53.4307 608.6094)" width="3.262" height="19.082"/>
</g>
</svg>
