<?xml version="1.0" encoding="utf-8"?>
<!-- Generator: Adobe Illustrator 19.2.1, SVG Export Plug-In . SVG Version: 6.00 Build 0)  -->
<!DOCTYPE svg PUBLIC "-//W3C//DTD SVG 1.1//EN" "http://www.w3.org/Graphics/SVG/1.1/DTD/svg11.dtd">
<svg version="1.1" id="Layer_1" xmlns="http://www.w3.org/2000/svg" xmlns:xlink="http://www.w3.org/1999/xlink" x="0px" y="0px"
	 viewBox="0 0 1900 700" style="enable-background:new 0 0 1900 700;" xml:space="preserve">
<style type="text/css">
	.st0{fill:#FFFFFF;}
	.st1{fill:none;}
</style>
<g>
	
		<rect x="373.4" y="134.4" transform="matrix(0.7071 -0.7071 0.7071 0.7071 7.43 320.1549)" class="st0" width="33.5" height="33.5"/>
	
		<rect x="356.9" y="131.8" transform="matrix(0.7071 -0.7071 0.7071 0.7071 14.2427 303.6439)" class="st0" width="33.5" height="5.7"/>
</g>
<path class="st0" d="M441.9,221.2l39.2,39.2h0.4l33.3,33.3c2.2,2.2,5.7,2.2,7.9,0c2.2-2.2,2.2-5.7,0-7.9l-25.4-25.4h13.2l-0.2-0.2
	h67.1c14.3,0,25.9-11.6,25.9-25.9c0-14.3-11.6-25.9-25.9-25.9l-95.6,0c-6.5,0-12.4,2.4-16.9,6.3l-0.9-0.9l73.4-73.4
	c4.1-4,4.1-10.6,0-14.7c-4-4.1-10.6-4.1-14.7,0l-80.7,80.7C437.9,210.6,437.9,217.1,441.9,221.2z"/>
<path class="st0" d="M733.6,105.1l-21.1,21.1L610.4,24.1L443.1,191.4c-3.1,2.9-4.3,3.4-6.8,4.7c-12.7,6.3-29.3-3-40.5-14.1
	c-0.9-0.9-1.9-1.8-2.9-2.5L600.4-28.2L733.6,105.1z"/>
<g>
	<path class="st0" d="M398.7,69.2c0-10.8,6.8-20.3,6.8-20.3c0-2,7.2-7.9,7.2-17.8c0-9.9-10.5-24-17.7-32.8
		c-7.2-7.2-13.7-11.6-22.1-15.3c-8-3.4-5-9.7-5-13.5c0-3.8,1.9-5.9,1.9-13.2c0-1.9-1-4.1-2.5-6.5l78.5,78.5l-581.2,581.2
		c-0.7-1.3,534.1-538.2,533.9-540.2C398.5,69.2,398.6,69.2,398.7,69.2z"/>
	<path class="st0" d="M503.5-2.1c8.9,0,30.7,15.2,33.7,29.7l67.4-67.4l-10.1-10.1L545.6-0.9l-80.1-80.1c-1.5-0.5-2.7-1.1-3.5-1.9
		c-4.8-4.8-13.8,1.1-19.2,6.4c-5.3,5.3-14.4,5.9-42.6,11.7c-11.3,2.4-18.6,4.6-22.9,7.2l77,77C468.5,16.3,494.8-2.1,503.5-2.1z"/>
</g>
<path class="st1" d="M521.4,78.7l0.3,1.1C521.7,79.8,521.7,79.3,521.4,78.7z"/>
<path d="M278.5-23.2L262-6.7v0.2l-14,14c-0.9,0.9-0.9,2.4,0,3.3c0.9,0.9,2.4,0.9,3.3,0L262,0v5.5l0.1-0.1v28.2
	c0,6,4.9,10.9,10.9,10.9c6,0,10.9-4.9,10.9-10.9V-6.5c0-2.7-1-5.2-2.7-7.1l0.4-0.4l30.8,30.8c1.7,1.7,4.5,1.7,6.2,0
	c1.7-1.7,1.7-4.5,0-6.2l-33.9-33.9C282.9-24.9,280.2-24.9,278.5-23.2z"/>
<g>
	<path d="M358.2,39c0,1.6-1,3.1-1,3.1c0,0.3-1.1,1.2-1.1,2.7c0,1.5,1.6,3.6,2.6,4.9c1.1,1.1,2.1,1.7,3.3,2.3c1.2,0.5,0.8,1.5,0.8,2
		c0,0.6-0.3,0.9-0.3,2c0,0.3,0.1,0.6,0.4,1l-11.8-11.8L438.3-42C438.4-41.8,358.2,38.7,358.2,39C358.2,39,358.2,39,358.2,39z"/>
	<rect x="316.4" y="34.4" transform="matrix(0.7071 -0.7071 0.7071 0.7071 65.3827 240.9078)" width="14.2" height="14.2"/>
	<rect x="323.4" y="47.3" transform="matrix(0.7071 -0.7071 0.7071 0.7071 62.4696 247.9197)" width="14.2" height="2.4"/>
	<path d="M342.4,49.7c-1.3,0-4.6-2.3-5.1-4.5l-10.1,10.1l1.5,1.5l7.3-7.3l12,12c0.2,0.1,0.4,0.2,0.5,0.3c0.7,0.7,2.1-0.2,2.9-1
		c0.8-0.8,2.2-0.9,6.4-1.8c1.7-0.4,2.8-0.7,3.4-1.1l-11.5-11.6C347.7,47,343.8,49.7,342.4,49.7z"/>
</g>
<path d="M302.3,49.2l-3.2-3.2l15.2-15.2l-25-25c-0.4-0.6-0.7-0.8-0.9-1.1c-1.1-1.7,0.6-4.3,2.3-6c0.1-0.1,0.3-0.3,0.4-0.4l31,31
	L302.3,49.2z"/>
<path d="M274.7,84.5l16.5-16.5h0.2l14-14c0.9-0.9,2.4-0.9,3.3,0c0.9,0.9,0.9,2.4,0,3.3L298,68.1h5.5l-0.1,0.1h28.2
	c6,0,10.9,4.9,10.9,10.9s-4.9,10.9-10.9,10.9l-40.2,0c-2.7,0-5.2-1-7.1-2.7l-0.4,0.4l30.8,30.8c1.7,1.7,1.7,4.5,0,6.2
	c-1.7,1.7-4.5,1.7-6.2,0l-33.9-33.9C273.1,89,273.1,86.2,274.7,84.5z"/>
<path d="M414.9-60.5l-3.2,3.2l15.2,15.2l-25,25c-0.4,0.4-0.6,0.7-0.7,1c-0.9,1.5,0.5,4.4,2.1,6.1c0.1,0.1,0.3,0.3,0.4,0.4l31-31
	L414.9-60.5z"/>
<g>
	<path d="M548.3-32.2l-16.5-16.5h-0.2l-14-14c-0.9-0.9-2.4-0.9-3.3,0c-0.9,0.9-0.9,2.4,0,3.3L525-48.7h-5.5l0.1,0.1h-28.2
		c-6,0-10.9,4.9-10.9,10.9s4.9,10.9,10.9,10.9h40.2c2.7,0,5.2-1,7.1-2.7l0.4,0.4L508.2,1.6c-1.7,1.7-1.7,4.5,0,6.2
		c1.7,1.7,4.5,1.7,6.2,0l33.9-33.9C550-27.8,550-30.5,548.3-32.2z"/>
	<g>
		<path d="M486,47.5c-1.6,0-3.1-1-3.1-1c-0.3,0-1.2-1.1-2.7-1.1c-1.5,0-3.6,1.6-4.9,2.7c-1.1,1.1-1.7,2.1-2.3,3.3
			c-0.5,1.2-1.5,0.8-2,0.8c-0.6,0-0.9-0.3-2-0.3c-0.3,0-0.6,0.1-1,0.4l11.8-11.8l87.2,87.2C566.9,127.7,486.4,47.5,486,47.5
			C486.1,47.5,486,47.5,486,47.5z"/>
		<rect x="476.4" y="5.7" transform="matrix(0.7071 -0.7071 0.7071 0.7071 132.5858 345.6785)" width="14.2" height="14.2"/>
		<rect x="475.3" y="12.7" transform="matrix(0.7071 -0.7071 0.7071 0.7071 125.5699 342.7699)" width="2.4" height="14.3"/>
		<path d="M475.4,31.7c0-1.3,2.3-4.6,4.5-5.1l-10.1-10.1l-1.5,1.5l7.3,7.3l-12,12c-0.1,0.2-0.2,0.4-0.3,0.5c-0.7,0.7,0.2,2.1,1,2.9
			c0.8,0.8,0.9,2.2,1.8,6.4c0.4,1.7,0.7,2.8,1.1,3.4l11.5-11.6C478.1,37,475.4,33.1,475.4,31.7z"/>
	</g>
	<g>
		<path d="M506.8,25.3c1.6,0,3.1,1,3.1,1c0.3,0,1.2,1.1,2.7,1.1c1.5,0,3.6-1.6,4.9-2.7c1.1-1.1,1.7-2.1,2.3-3.3
			c0.5-1.2,1.5-0.8,2-0.8c0.6,0,0.9,0.3,2,0.3c0.3,0,0.6-0.1,1-0.4L513,32.4l-87.2-87.2C426-54.9,506.5,25.3,506.8,25.3
			C506.8,25.3,506.8,25.3,506.8,25.3z"/>
		<rect x="502.2" y="52.9" transform="matrix(0.7071 -0.7071 0.7071 0.7071 106.7368 377.7225)" width="14.2" height="14.2"/>
		<rect x="515.1" y="45.9" transform="matrix(0.7071 -0.7071 0.7071 0.7071 113.7614 380.62)" width="2.4" height="14.2"/>
		<path d="M517.5,41.1c0,1.3-2.3,4.6-4.5,5.1l10.1,10.1l1.5-1.5l-7.3-7.3l12-12c0.1-0.2,0.2-0.4,0.3-0.5c0.7-0.7-0.2-2.1-1-2.9
			c-0.8-0.8-0.9-2.2-1.8-6.4c-0.4-1.7-0.7-2.8-1.1-3.4l-11.5,11.5C514.8,35.8,517.5,39.7,517.5,41.1z"/>
	</g>
	<path d="M475.9-8.4l3.2-3.2l15.2,15.2l25-25c0.5-0.5,0.7-0.6,1-0.7c1.9-1,4.4,0.5,6,2.1c0.1,0.1,0.3,0.3,0.4,0.4l-31,31L475.9-8.4z
		"/>
	<path d="M440.6-36L457-19.5v0.2l14,14c0.9,0.9,0.9,2.4,0,3.3c-0.9,0.9-2.4,0.9-3.3,0L457-12.7v5.5L457-7.2V21
		c0,6-4.9,10.9-10.9,10.9c-6,0-10.9-4.9-10.9-10.9v-40.2c0-2.7,1-5.2,2.7-7.1l-0.4-0.4L406.7,4.2c-1.7,1.7-4.5,1.7-6.2,0
		c-1.7-1.7-1.7-4.5,0-6.2l33.9-33.9C436.1-37.6,438.8-37.6,440.6-36z"/>
	<path d="M587.8,105.9l-3.2-3.2L569.4,118l-25-25c-0.5-0.4-0.7-0.6-1-0.7c-1.8-0.9-4.4,0.5-6.1,2.1c-0.1,0.1-0.3,0.3-0.4,0.4l31,31
		L587.8,105.9z"/>
</g>
<g>
	<path class="st0" d="M1045.4,32.5L1028.9,16h-0.2l-14-14c-0.9-0.9-2.4-0.9-3.3,0c-0.9,0.9-0.9,2.4,0,3.3l10.7,10.7h-5.5l0.1,0.1
		h-28.2c-6,0-10.9,4.9-10.9,10.9s4.9,10.9,10.9,10.9l40.2,0c2.7,0,5.2-1,7.1-2.7l0.4,0.4l-30.8,30.8c-1.7,1.7-1.7,4.5,0,6.2
		c1.7,1.7,4.5,1.7,6.2,0l33.9-33.9C1047,36.9,1047,34.2,1045.4,32.5z"/>
	<g>
		<path class="st0" d="M983.1,112.2c-1.6,0-3.1-1-3.1-1c-0.3,0-1.2-1.1-2.7-1.1c-1.5,0-3.6,1.6-4.9,2.7c-1.1,1.1-1.7,2.1-2.3,3.3
			c-0.5,1.2-1.5,0.8-2,0.8s-0.9-0.3-2-0.3c-0.3,0-0.6,0.1-1,0.4l11.8-11.8l87.2,87.2C1064,192.4,983.4,112.2,983.1,112.2
			C983.1,112.2,983.1,112.2,983.1,112.2z"/>
		
			<rect x="973.5" y="70.4" transform="matrix(0.7071 -0.7071 0.7071 0.7071 232.4214 716.1045)" class="st0" width="14.2" height="14.2"/>
		
			<rect x="972.4" y="77.4" transform="matrix(0.7071 -0.7071 0.7071 0.7071 225.4124 713.1832)" class="st0" width="2.4" height="14.3"/>
		<path class="st0" d="M972.4,96.5c0-1.3,2.3-4.6,4.5-5.1l-10.1-10.1l-1.5,1.5l7.3,7.3l-12,12c-0.1,0.2-0.2,0.4-0.3,0.5
			c-0.7,0.7,0.2,2.1,1,2.9c0.8,0.8,0.9,2.2,1.8,6.4c0.4,1.7,0.7,2.8,1.1,3.4l11.5-11.6C975.2,101.7,972.4,97.8,972.4,96.5z"/>
	</g>
	<g>
		<path class="st0" d="M1003.9,90c1.6,0,3.1,1,3.1,1c0.3,0,1.2,1.1,2.7,1.1c1.5,0,3.6-1.6,4.9-2.7c1.1-1.1,1.7-2.1,2.3-3.3
			c0.5-1.2,1.5-0.8,2-0.8c0.6,0,0.9,0.3,2,0.3c0.3,0,0.6-0.1,1-0.4L1010,97.1L922.8,9.9C923,9.8,1003.6,90,1003.9,90
			C1003.9,90,1003.9,90,1003.9,90z"/>
		
			<rect x="999.2" y="117.6" transform="matrix(0.7071 -0.7071 0.7071 0.7071 206.5663 748.1444)" class="st0" width="14.2" height="14.2"/>
		
			<rect x="1012.2" y="110.6" transform="matrix(0.7071 -0.7071 0.7071 0.7071 213.5808 751.055)" class="st0" width="2.4" height="14.2"/>
		<path class="st0" d="M1014.6,105.8c0,1.3-2.3,4.6-4.5,5.1l10.1,10.1l1.5-1.5l-7.3-7.3l12-12c0.1-0.2,0.2-0.4,0.3-0.5
			c0.7-0.7-0.2-2.1-1-2.9c-0.8-0.8-0.9-2.2-1.8-6.4c-0.4-1.7-0.7-2.8-1.1-3.4l-11.5,11.5C1011.8,100.5,1014.6,104.5,1014.6,105.8z"
			/>
	</g>
	<path class="st0" d="M973,56.3l3.2-3.2l15.2,15.2l25-25c0.5-0.5,0.7-0.6,1-0.7c1.9-1,4.4,0.5,6,2.1c0.1,0.1,0.3,0.3,0.4,0.4l-31,31
		L973,56.3z"/>
	<path class="st0" d="M937.6,28.7l16.5,16.5v0.2l14,14c0.9,0.9,0.9,2.4,0,3.3c-0.9,0.9-2.4,0.9-3.3,0L954.1,52v5.5l-0.1-0.1v28.2
		c0,6-4.9,10.9-10.9,10.9c-6,0-10.9-4.9-10.9-10.9V45.5c0-2.7,1-5.2,2.7-7.1l-0.4-0.4l-30.8,30.8c-1.7,1.7-4.5,1.7-6.2,0
		c-1.7-1.7-1.7-4.5,0-6.2l33.9-33.9C933.2,27.1,935.9,27.1,937.6,28.7z"/>
	<path class="st0" d="M1084.9,170.6l-3.2-3.2l-15.2,15.2l-25-25c-0.5-0.4-0.7-0.6-1-0.7c-1.8-0.9-4.4,0.5-6.1,2.1
		c-0.1,0.1-0.3,0.3-0.4,0.4l31,31L1084.9,170.6z"/>
</g>
<path d="M313.2,525.4l16.5-16.5v-0.2l14-14c0.9-0.9,0.9-2.4,0-3.3c-0.9-0.9-2.4-0.9-3.3,0l-10.7,10.7v-5.5l-0.1,0.1v-28.2
	c0-6-4.9-10.9-10.9-10.9s-10.9,4.9-10.9,10.9v40.2c0,2.7,1,5.2,2.7,7.1l-0.4,0.4l-30.8-30.8c-1.7-1.7-4.5-1.7-6.2,0
	c-1.7,1.7-1.7,4.5,0,6.2l33.9,33.9C308.8,527,311.5,527,313.2,525.4z"/>
<g>
	<path d="M318.8,180.4c-1.6,0-3.1-1-3.1-1c-0.3,0-1.2-1.1-2.7-1.1c-1.5,0-3.6,1.6-4.9,2.7c-1.1,1.1-1.7,2-2.3,3.3
		c-0.5,1.2-1.5,0.8-2,0.8c-0.6,0-0.9-0.3-2-0.3c-0.3,0-0.6,0.1-1,0.4l11.8-11.8l87.2,87.2C399.7,260.6,319.1,180.4,318.8,180.4
		C318.8,180.4,318.8,180.4,318.8,180.4z"/>
	<rect x="309.2" y="138.6" transform="matrix(0.7071 -0.7071 0.7071 0.7071 -10.3684 266.358)" width="14.2" height="14.2"/>
	<rect x="308.1" y="145.6" transform="matrix(0.7071 -0.7071 0.7071 0.7071 -17.3763 263.4447)" width="2.4" height="14.2"/>
	<path d="M308.1,164.6c0-1.3,2.3-4.6,4.5-5.1l-10.1-10.1L301,151l7.3,7.3l-12,12c-0.1,0.2-0.2,0.4-0.3,0.5c-0.7,0.7,0.2,2.1,1,2.9
		c0.8,0.8,0.9,2.2,1.8,6.4c0.4,1.7,0.7,2.8,1.1,3.4l11.5-11.6C310.9,169.9,308.1,166,308.1,164.6z"/>
</g>
<g>
	<path d="M255.7,483.9c0,1.6-1,3.1-1,3.1c0,0.3-1.1,1.2-1.1,2.7c0,1.5,1.6,3.6,2.6,4.9c1.1,1.1,2.1,1.7,3.3,2.3
		c1.2,0.5,0.8,1.5,0.8,2c0,0.6-0.3,0.9-0.3,2c0,0.3,0.1,0.6,0.4,1L248.6,490l87.2-87.2C335.9,403,255.7,483.6,255.7,483.9
		C255.7,483.9,255.7,483.9,255.7,483.9z"/>
	<rect x="213.8" y="479.2" transform="matrix(0.7071 -0.7071 0.7071 0.7071 -279.1801 298.7011)" width="14.2" height="14.2"/>
	<rect x="220.9" y="492.2" transform="matrix(0.7071 -0.7071 0.7071 0.7071 -282.0873 305.7188)" width="14.2" height="2.4"/>
	<path d="M239.9,494.6c-1.3,0-4.6-2.3-5.1-4.5l-10.1,10.1l1.5,1.5l7.3-7.3l12,12c0.2,0.1,0.4,0.2,0.5,0.3c0.7,0.7,2.1-0.2,2.9-1
		c0.8-0.8,2.2-0.9,6.4-1.8c1.7-0.4,2.8-0.7,3.4-1.1l-11.5-11.5C245.2,491.8,241.2,494.6,239.9,494.6z"/>
</g>
<g>
	<rect x="388.3" y="313.2" transform="matrix(0.7071 -0.7071 0.7071 0.7071 -110.6757 373.4398)" width="14.2" height="14.2"/>
	<rect x="395.3" y="326.1" transform="matrix(0.7071 -0.7071 0.7071 0.7071 -113.5831 380.4575)" width="14.2" height="2.4"/>
</g>
<g>
	<path d="M244.1,166.4c1.6,0,3.1-1,3.1-1c0.3,0,1.2-1.1,2.7-1.1c1.5,0,3.6,1.6,4.9,2.6c1.1,1.1,1.7,2.1,2.3,3.3
		c0.5,1.2,1.5,0.8,2,0.8c0.6,0,0.9-0.3,2-0.3c0.3,0,0.6,0.1,1,0.4l-11.8-11.8l-87.2,87.2C163.2,246.7,243.8,166.4,244.1,166.4
		C244.1,166.4,244.1,166.4,244.1,166.4z"/>
	<path d="M254.8,150.7c0-1.3-2.3-4.6-4.5-5.1l10.1-10.1l1.5,1.5l-7.3,7.3l12,12c0.1,0.2,0.2,0.4,0.3,0.5c0.7,0.7-0.2,2.1-1,2.9
		c-0.8,0.8-0.9,2.2-1.8,6.4c-0.4,1.7-0.7,2.8-1.1,3.4l-11.5-11.5C252.1,156,254.8,152,254.8,150.7z"/>
</g>
<g>
	<path d="M290.6,404.3c1.6,0,3.1-1,3.1-1c0.3,0,1.2-1.1,2.7-1.1c1.5,0,3.6,1.6,4.9,2.6c1.1,1.1,1.7,2.1,2.3,3.3
		c0.5,1.2,1.5,0.8,2,0.8c0.6,0,0.9-0.3,2-0.3c0.3,0,0.6,0.1,1,0.4l-11.8-11.8l-87.2,87.2C209.8,484.5,290.3,404.3,290.6,404.3
		C290.6,404.3,290.6,404.3,290.6,404.3z"/>
	<rect x="286" y="362.5" transform="matrix(0.7071 -0.7071 0.7071 0.7071 -175.488 315.5286)" width="14.2" height="14.2"/>
	<rect x="293" y="375.4" transform="matrix(0.7071 -0.7071 0.7071 0.7071 -178.3939 322.5464)" width="14.2" height="2.4"/>
	<path d="M301.3,388.6c0-1.3-2.3-4.6-4.5-5.1l10.1-10.1l1.5,1.5l-7.3,7.3l12,12c0.1,0.2,0.2,0.4,0.3,0.5c0.7,0.7-0.2,2.1-1,2.9
		c-0.8,0.8-0.9,2.2-1.8,6.4c-0.4,1.7-0.7,2.8-1.1,3.4l-11.5-11.5C298.6,393.8,301.3,389.9,301.3,388.6z"/>
</g>
<path d="M289.4,453l3.2,3.2l-15.2,15.2l25,25c0.5,0.6,0.6,0.8,0.8,1.1c0.8,1.7-0.5,4.3-2.2,5.9c-0.1,0.1-0.3,0.3-0.4,0.4l-31-31
	L289.4,453z"/>
<path d="M253.9,292l-16.5,16.5v0.2l-14,14c-0.9,0.9-0.9,2.4,0,3.3c0.9,0.9,2.4,0.9,3.3,0l10.7-10.7v5.5l0.1-0.1V349
	c0,6,4.9,10.9,10.9,10.9s10.9-4.9,10.9-10.9v-40.2c0-2.7-1-5.2-2.7-7.1l0.4-0.4l30.8,30.8c1.7,1.7,4.5,1.7,6.2,0
	c1.7-1.7,1.7-4.5,0-6.2L260,292.1C258.3,290.4,255.6,290.4,253.9,292z"/>
<g>
	<path d="M311.4,333.5c0-1.6,1-3.1,1-3.1c0-0.3,1.1-1.2,1.1-2.7c0-1.5-1.6-3.6-2.6-4.9c-1.1-1.1-2.1-1.7-3.3-2.3
		c-1.2-0.5-0.8-1.5-0.8-2c0-0.6,0.3-0.9,0.3-2c0-0.3-0.1-0.6-0.4-1l11.8,11.8l-87.2,87.2C231.2,414.4,311.5,333.8,311.4,333.5
		C311.4,333.5,311.4,333.5,311.4,333.5z"/>
	<rect x="339" y="323.9" transform="matrix(0.7071 -0.7071 0.7071 0.7071 -132.6995 341.7154)" width="14.2" height="14.2"/>
	<rect x="332" y="322.8" transform="matrix(0.7071 -0.7071 0.7071 0.7071 -129.7967 334.6856)" width="14.3" height="2.4"/>
	<path d="M327.2,322.8c1.3,0,4.6,2.3,5.1,4.5l10.1-10.1l-1.5-1.5l-7.3,7.3l-12-12c-0.2-0.1-0.4-0.2-0.5-0.3c-0.7-0.7-2.1,0.2-2.9,1
		c-0.8,0.8-2.2,0.9-6.4,1.8c-1.7,0.4-2.8,0.7-3.4,1.1l11.5,11.5C321.9,325.6,325.9,322.8,327.2,322.8z"/>
</g>
<path d="M277.7,364.4l-3.2-3.2l15.2-15.2l-25-25c-0.4-0.5-0.7-0.6-0.9-1.1c-1-2,0.6-4.3,2.3-6c0.1-0.1,0.3-0.3,0.4-0.4l31,31
	L277.7,364.4z"/>
<path d="M411.1,285.1l-16.5-16.5h-0.2l-14-14c-0.9-0.9-2.4-0.9-3.3,0c-0.9,0.9-0.9,2.4,0,3.3l10.7,10.7h-5.5l0.1,0.1h-28.2
	c-6,0-10.9,4.9-10.9,10.9s4.9,10.9,10.9,10.9h40.2c2.7,0,5.2-1,7.1-2.7l0.4,0.4L371,319c-1.7,1.7-1.7,4.5,0,6.2
	c1.7,1.7,4.5,1.7,6.2,0l33.9-33.9C412.8,289.5,412.8,286.8,411.1,285.1z"/>
<path d="M338.7,308.9l3.2-3.2l15.2,15.2l25-25c0.5-0.5,0.6-0.6,0.9-0.8c1.6-0.8,4.5,0.5,6.1,2.2c0.1,0.1,0.3,0.3,0.4,0.4l-31,31
	L338.7,308.9z"/>
<path d="M282.2,102.8l16.5,16.5v0.2l14,14c0.9,0.9,0.9,2.4,0,3.3c-0.9,0.9-2.4,0.9-3.3,0l-10.7-10.7v5.5l-0.1-0.1v28.2
	c0,6-4.9,10.9-10.9,10.9c-6,0-10.9-4.9-10.9-10.9v-40.2c0-2.7,1-5.2,2.7-7.1l-0.4-0.4L248.3,143c-1.7,1.7-4.5,1.7-6.2,0
	c-1.7-1.7-1.7-4.5,0-6.2l33.9-33.9C277.7,101.2,280.5,101.2,282.2,102.8z"/>
<g>
	<g>
		<path d="M745.1,433.6c-3.5,0-6.5-2.2-6.5-2.2c-0.6,0-2.5-2.3-5.7-2.3c-3.2,0-7.7,3.4-10.5,5.7c-2.3,2.3-3.7,4.4-4.9,7.1
			c-1.1,2.6-3.1,1.6-4.3,1.6c-1.2,0-1.9-0.6-4.3-0.6c-0.6,0-1.3,0.3-2.1,0.8l25.2-25.2l186.5,186.5
			C918.1,605.2,554.8,804.2,745.1,433.6C745.2,433.6,745.2,433.6,745.1,433.6z"/>
		<rect x="724.6" y="344.2" transform="matrix(0.7071 -0.7071 0.7071 0.7071 -37.4553 628.4064)" width="30.5" height="30.5"/>
		<rect x="722.2" y="359.1" transform="matrix(0.7075 -0.7067 0.7067 0.7075 -52.5564 621.75)" width="5.2" height="30.5"/>
		<path d="M722.3,399.9c0-2.9,4.9-9.9,9.5-10.8l-21.6-21.6l-3.2,3.2l15.7,15.7l-25.7,25.7c-0.1,0.5-0.4,0.9-0.6,1.1
			c-1.5,1.5,0.3,4.4,2.1,6.2c1.7,1.7,1.9,4.6,3.8,13.7c0.8,3.6,1.5,6,2.3,7.3l24.7-24.7C728.2,411.2,722.3,402.7,722.3,399.9z"/>
	</g>
	<path d="M132.4,466.6l37.5-37.5l181,181l296.6-296.6c5.4-4.6,7.6-6.9,11.2-9c20.6-12,52.9,6,72.6,25.7c1.6,1.6,3.4,3.1,5.2,4.5
		L368.6,702.8L132.4,466.6z"/>
</g>
<path d="M668.6,175.7l-11.7,11.7l-56.6-56.6l-92.8,92.8c-1.7,1.6-2.4,1.9-3.8,2.6c-7,3.5-16.3-1.6-22.4-7.8c-0.5-0.5-1.1-1-1.6-1.4
	l115.1-115.1L668.6,175.7z"/>
<path d="M930.3,562.2l-513.5,58.9l632.3-239.8L803.7,136c-3.9-4.2-7.3-6.5-8.7-9.6c-9.4-20.2,6.2-43.5,22.5-59.8
	c1.3-1.3,2.6-2.8,3.7-4.3l304.6,304.6L930.3,562.2z"/>
<path d="M395.9,266.3l3.2-3.2l-15.2-15.2l25-25c0.4-0.4,0.6-0.6,0.7-0.9c0.9-2-0.5-4.5-2.1-6.1c-0.1-0.1-0.3-0.3-0.4-0.4l-31,31
	L395.9,266.3z"/>
<rect x="536.4" y="274.2" transform="matrix(0.7071 -0.7071 0.7071 0.7071 -173.8058 519.7094)" width="8.2" height="391"/>
<rect x="543.1" y="268.9" transform="matrix(0.7071 -0.7071 0.7071 0.7071 -168.4955 521.9024)" width="5.3" height="391"/>
<g>
	<rect x="152.6" y="222.1" transform="matrix(0.7071 -0.7071 0.7071 0.7071 -116.3279 182.5407)" width="19.1" height="19.1"/>
	<rect x="143.2" y="220.7" transform="matrix(0.7072 -0.707 0.707 0.7072 -112.4294 173.1096)" width="19.1" height="3.3"/>
</g>
<g>
	
		<rect x="959.6" y="535.4" transform="matrix(0.7071 -0.7071 0.7071 0.7071 -104.4628 852.0959)" class="st0" width="33.5" height="33.5"/>
	
		<rect x="957" y="551.9" transform="matrix(0.7071 -0.7071 0.7071 0.7071 -120.9551 845.2381)" class="st0" width="5.7" height="33.5"/>
</g>
<path class="st0" d="M1028.1,496.7l80.7,80.7c4.1,4.1,10.6,4.1,14.7,0c4.1-4.1,4.1-10.6,0-14.7l-73.4-73.4l0.9-0.9
	c4.5,3.9,10.5,6.3,16.9,6.3l95.6,0c14.3,0,25.9-11.6,25.9-25.9c0-14.3-11.6-25.9-25.9-25.9h-67.1l0.2-0.2h-13.2l25.4-25.4
	c2.2-2.2,2.2-5.7,0-7.9c-2.2-2.2-5.7-2.2-7.9,0l-33.3,33.3h-0.4l-39.2,39.2C1024,486.1,1024.1,492.6,1028.1,496.7z"/>
<path class="st0" d="M1186.6,731.4L979,523.8c1-0.8,2-1.6,2.9-2.5c11.1-11.1,27.8-20.4,40.5-14.1c2.6,1.3,3.7,1.8,6.8,4.7
	l167.3,167.3l102.1-102.1l21.1,21.1L1186.6,731.4z"/>
<g>
	<path class="st0" d="M984.7,634c0.2-2-534.6-538.9-533.9-540.2L1032,675l-78.5,78.5c1.5-2.3,2.5-4.5,2.5-6.5
		c0-7.4-1.9-9.5-1.9-13.2c0-3.8-2.9-10.1,5-13.5c8.4-3.8,14.9-8.2,22.1-15.4c7.1-8.8,17.7-22.9,17.7-32.8c0-9.9-7.2-15.8-7.2-17.8
		c0,0-6.8-9.5-6.8-20.3C984.8,634,984.7,634,984.7,634z"/>
	<path class="st0" d="M1040.5,683.9l-77,77c4.3,2.6,11.5,4.9,22.9,7.2c28.2,5.8,37.3,6.4,42.6,11.7c5.3,5.3,14.4,11.2,19.2,6.4
		c0.8-0.8,2-1.4,3.5-1.9l80.1-80.1l48.9,48.9l10.1-10.1l-67.4-67.4c-3,14.5-24.8,29.7-33.7,29.7
		C1080.9,705.3,1054.6,687,1040.5,683.9z"/>
</g>
<path class="st1" d="M1107.9,623.4l-0.3,1.1C1107.8,623.9,1107.9,623.4,1107.9,623.4z"/>
<g>
	<path d="M944.4,664.2c0,0.3,80.2,80.9,80.1,81.1l-87.2-87.2l11.8-11.8c-0.2,0.4-0.4,0.7-0.4,1c0,1.1,0.3,1.4,0.3,2
		c0,0.6,0.4,1.5-0.8,2c-1.3,0.6-2.2,1.2-3.3,2.3c-1.1,1.3-2.7,3.4-2.6,4.9c0,1.5,1.1,2.4,1.1,2.7
		C943.3,661.2,944.3,662.6,944.4,664.2C944.4,664.2,944.4,664.2,944.4,664.2z"/>
	<rect x="902.5" y="654.6" transform="matrix(0.7071 -0.7071 0.7071 0.7071 -201.4776 837.0385)" width="14.2" height="14.2"/>
	<rect x="915.4" y="647.6" transform="matrix(0.7071 -0.7071 0.7071 0.7071 -194.4596 839.9367)" width="2.4" height="14.2"/>
	<path d="M936,656.7l11.5-11.5c-0.6-0.4-1.7-0.7-3.4-1.1c-4.2-0.9-5.6-1-6.4-1.8c-0.8-0.8-2.2-1.7-2.9-1c-0.1,0.1-0.3,0.2-0.5,0.3
		l-12,12l-7.3-7.3l-1.5,1.5l10.1,10.1c0.5-2.2,3.7-4.5,5.1-4.5C929.9,653.5,933.9,656.3,936,656.7z"/>
</g>
<path d="M860.9,612.6l33.9-33.9c1.7-1.7,4.5-1.7,6.2,0c1.7,1.7,1.7,4.5,0,6.2l-30.8,30.8l0.4,0.4c1.9-1.7,4.4-2.7,7.1-2.7l40.2,0
	c6,0,10.9,4.9,10.9,10.9s-4.9,10.9-10.9,10.9h-28.2l0.1,0.1h-5.5l10.7,10.7c0.9,0.9,0.9,2.4,0,3.3c-0.9,0.9-2.4,0.9-3.3,0l-14-14
	h-0.2l-16.5-16.5C859.2,617,859.2,614.3,860.9,612.6z"/>
<g>
	<path d="M1134.5,729.4l-33.9-33.9c-1.7-1.7-4.5-1.7-6.2,0c-1.7,1.7-1.7,4.5,0,6.2l30.8,30.8l-0.4,0.4c-1.9-1.7-4.4-2.7-7.1-2.7
		h-40.2c-6,0-10.9,4.9-10.9,10.9c0,6,4.9,10.9,10.9,10.9h28.2l-0.1,0.1h5.5l-10.7,10.7c-0.9,0.9-0.9,2.4,0,3.3
		c0.9,0.9,2.4,0.9,3.3,0l14-14h0.2l16.5-16.5C1136.2,733.8,1136.1,731.1,1134.5,729.4z"/>
	<g>
		<path d="M1072.2,655.7c0.3,0,80.9-80.2,81.1-80.1l-87.2,87.2l-11.8-11.8c0.4,0.2,0.7,0.4,1,0.4c1.1,0,1.4-0.3,2-0.3
			c0.6,0,1.5-0.4,2,0.8c0.6,1.3,1.2,2.2,2.3,3.3c1.3,1.1,3.4,2.7,4.9,2.7c1.5,0,2.4-1.1,2.7-1.1
			C1069.2,656.8,1070.6,655.8,1072.2,655.7C1072.2,655.8,1072.2,655.8,1072.2,655.7z"/>
		<rect x="1062.6" y="683.3" transform="matrix(0.7071 -0.7071 0.7071 0.7071 -174.9134 958.6423)" width="14.2" height="14.2"/>
		<rect x="1055.6" y="682.2" transform="matrix(0.7071 -0.7071 0.7071 0.7071 -172.0091 951.6246)" width="14.3" height="2.4"/>
		<path d="M1064.7,664.1l-11.5-11.5c-0.4,0.6-0.7,1.7-1.1,3.4c-0.9,4.2-1,5.6-1.8,6.4c-0.8,0.8-1.7,2.2-1,2.9
			c0.1,0.1,0.2,0.3,0.3,0.5l12,12l-7.3,7.3l1.5,1.5l10.1-10.1c-2.2-0.5-4.5-3.7-4.5-5.1C1061.5,670.2,1064.3,666.2,1064.7,664.1z"/>
	</g>
	<g>
		<path d="M1093,678c-0.3,0-80.9,80.2-81.1,80.1l87.2-87.2l11.8,11.8c-0.4-0.2-0.7-0.4-1-0.4c-1.1,0-1.4,0.3-2,0.3
			c-0.6,0-1.5,0.4-2-0.8c-0.6-1.3-1.2-2.2-2.3-3.3c-1.3-1.1-3.4-2.7-4.9-2.7c-1.5,0-2.4,1.1-2.7,1.1
			C1096.1,676.9,1094.6,677.9,1093,678C1093,677.9,1093,677.9,1093,678z"/>
		<rect x="1088.4" y="636.1" transform="matrix(0.7071 -0.7071 0.7071 0.7071 -133.9769 963.0228)" width="14.2" height="14.2"/>
		<rect x="1095.4" y="649" transform="matrix(0.7071 -0.7071 0.7071 0.7071 -136.8951 970.0388)" width="14.2" height="2.4"/>
		<path d="M1100.5,669.6l11.6,11.5c0.4-0.6,0.7-1.7,1.1-3.4c0.9-4.2,1-5.6,1.8-6.4c0.8-0.8,1.7-2.2,1-2.9c-0.1-0.1-0.2-0.3-0.3-0.5
			l-12-12l7.3-7.3l-1.5-1.5l-10.1,10.1c2.2,0.5,4.5,3.7,4.5,5.1C1103.7,663.5,1100.9,667.5,1100.5,669.6z"/>
	</g>
	<path d="M1082,691.8l31,31c-0.2,0.1-0.3,0.2-0.4,0.4c-1.7,1.7-4.2,3.1-6,2.1c-0.3-0.2-0.5-0.3-1-0.7l-25-25l-15.2,15.2l-3.2-3.2
		L1082,691.8z"/>
	<path d="M1020.6,739.2l-33.9-33.9c-1.7-1.7-1.7-4.5,0-6.2c1.7-1.7,4.5-1.7,6.2,0l30.8,30.8l0.4-0.4c-1.7-1.9-2.7-4.4-2.7-7.1v-40.2
		c0-6,4.9-10.9,10.9-10.9c6,0,10.9,4.9,10.9,10.9v28.2l0.1-0.1v5.5l10.7-10.7c0.9-0.9,2.4-0.9,3.3,0c0.9,0.9,0.9,2.4,0,3.3l-14,14
		v0.2l-16.5,16.5C1025,740.9,1022.3,740.9,1020.6,739.2z"/>
	<path d="M1154.1,577.5l-31,31c0.2,0.1,0.3,0.2,0.4,0.4c1.7,1.7,4.2,3.1,6.1,2.1c0.3-0.1,0.5-0.3,1-0.7l25-25l15.2,15.2l3.2-3.2
		L1154.1,577.5z"/>
</g>
<g>
	<path class="st0" d="M1631.5,664.7l-33.9-33.9c-1.7-1.7-4.5-1.7-6.2,0c-1.7,1.7-1.7,4.5,0,6.2l30.8,30.8l-0.4,0.4
		c-1.9-1.7-4.4-2.7-7.1-2.7l-40.2,0c-6,0-10.9,4.9-10.9,10.9c0,6,4.9,10.9,10.9,10.9h28.2l-0.1,0.1h5.5l-10.7,10.7
		c-0.9,0.9-0.9,2.4,0,3.3c0.9,0.9,2.4,0.9,3.3,0l14-14h0.2l16.5-16.5C1633.2,669.1,1633.2,666.3,1631.5,664.7z"/>
	<g>
		<path class="st0" d="M1569.3,591c0.3,0,80.9-80.2,81.1-80.1l-87.2,87.2l-11.8-11.8c0.4,0.2,0.7,0.4,1,0.4c1.1,0,1.4-0.3,2-0.3
			s1.5-0.4,2,0.8c0.6,1.3,1.2,2.2,2.3,3.3c1.3,1.1,3.4,2.7,4.9,2.7c1.5,0,2.4-1.1,2.7-1.1C1566.2,592.1,1567.6,591.1,1569.3,591
			C1569.3,591.1,1569.3,591,1569.3,591z"/>
		
			<rect x="1559.7" y="618.6" transform="matrix(0.7071 -0.7071 0.7071 0.7071 16.4229 1291.1675)" class="st0" width="14.2" height="14.2"/>
		
			<rect x="1552.6" y="617.5" transform="matrix(0.7071 -0.7071 0.7071 0.7071 19.3134 1284.1458)" class="st0" width="14.3" height="2.4"/>
		<path class="st0" d="M1561.8,599.4l-11.5-11.5c-0.4,0.6-0.7,1.7-1.1,3.4c-0.9,4.2-1,5.6-1.8,6.4c-0.8,0.8-1.7,2.2-1,2.9
			c0.1,0.1,0.2,0.3,0.3,0.5l12,12l-7.3,7.3l1.5,1.5l10.1-10.1c-2.2-0.5-4.5-3.7-4.5-5.1C1558.6,605.5,1561.3,601.5,1561.8,599.4z"/>
	</g>
	<g>
		<path class="st0" d="M1590,613.3c-0.3,0-80.9,80.2-81.1,80.1l87.2-87.2l11.8,11.8c-0.4-0.2-0.7-0.4-1-0.4c-1.1,0-1.4,0.3-2,0.3
			c-0.6,0-1.5,0.4-2-0.8c-0.6-1.3-1.2-2.2-2.3-3.3c-1.3-1.1-3.4-2.7-4.9-2.7c-1.5,0-2.4,1.1-2.7,1.1
			C1593.1,612.2,1591.7,613.2,1590,613.3C1590.1,613.2,1590.1,613.2,1590,613.3z"/>
		
			<rect x="1585.4" y="571.4" transform="matrix(0.7071 -0.7071 0.7071 0.7071 57.3609 1295.5408)" class="st0" width="14.2" height="14.2"/>
		
			<rect x="1592.4" y="584.3" transform="matrix(0.7071 -0.7071 0.7071 0.7071 54.459 1302.559)" class="st0" width="14.2" height="2.4"/>
		<path class="st0" d="M1597.5,604.9l11.6,11.5c0.4-0.6,0.7-1.7,1.1-3.4c0.9-4.2,1-5.6,1.8-6.4c0.8-0.8,1.7-2.2,1-2.9
			c-0.1-0.1-0.2-0.3-0.3-0.5l-12-12l7.3-7.3l-1.5-1.5l-10.1,10.1c2.2,0.5,4.5,3.7,4.5,5.1C1600.8,598.8,1598,602.7,1597.5,604.9z"/>
	</g>
	<path class="st0" d="M1579,627.1l31,31c-0.2,0.1-0.3,0.2-0.4,0.4c-1.7,1.7-4.2,3.1-6,2.1c-0.3-0.2-0.5-0.3-1-0.7l-25-25l-15.2,15.2
		l-3.2-3.2L1579,627.1z"/>
	<path class="st0" d="M1517.6,674.5l-33.9-33.9c-1.7-1.7-1.7-4.5,0-6.2c1.7-1.7,4.5-1.7,6.2,0l30.8,30.8l0.4-0.4
		c-1.7-1.9-2.7-4.4-2.7-7.1v-40.2c0-6,4.9-10.9,10.9-10.9c6,0,10.9,4.9,10.9,10.9v28.2l0.1-0.1v5.5l10.7-10.7c0.9-0.9,2.4-0.9,3.3,0
		c0.9,0.9,0.9,2.4,0,3.3l-14,14v0.2l-16.5,16.5C1522.1,676.2,1519.3,676.2,1517.6,674.5z"/>
	<path class="st0" d="M1651.1,512.8l-31,31c0.2,0.1,0.3,0.2,0.4,0.4c1.7,1.7,4.2,3.1,6.1,2.1c0.3-0.1,0.5-0.3,1-0.7l25-25l15.2,15.2
		l3.2-3.2L1651.1,512.8z"/>
</g>
<path d="M893.3,177.9l-33.9,33.9c-1.7,1.7-1.7,4.5,0,6.2c1.7,1.7,4.5,1.7,6.2,0l30.8-30.8l0.4,0.4c-1.7,1.9-2.7,4.4-2.7,7.1v40.2
	c0,6,4.9,10.9,10.9,10.9s10.9-4.9,10.9-10.9v-28.2l0.1,0.1v-5.5l10.7,10.7c0.9,0.9,2.4,0.9,3.3,0c0.9-0.9,0.9-2.4,0-3.3l-14-14v-0.2
	l-16.5-16.5C897.7,176.2,894.9,176.2,893.3,177.9z"/>
<g>
	<path d="M905,522.8c0.3,0,80.9-80.2,81.1-80.1l-87.2,87.2l-11.8-11.8c0.4,0.2,0.7,0.4,1,0.4c1.1,0,1.4-0.3,2-0.3
		c0.6,0,1.5-0.4,2,0.8c0.6,1.3,1.2,2.2,2.3,3.3c1.3,1.1,3.4,2.7,4.9,2.7c1.5,0,2.4-1.1,2.7-1.1C901.9,523.9,903.4,522.9,905,522.8
		C905,522.9,905,522.9,905,522.8z"/>
	<rect x="895.4" y="550.4" transform="matrix(0.7071 -0.7071 0.7071 0.7071 -129.9176 801.4703)" width="14.2" height="14.2"/>
	<rect x="888.4" y="549.3" transform="matrix(0.7071 -0.7071 0.7071 0.7071 -127.0222 794.455)" width="14.2" height="2.4"/>
	<path d="M897.5,531.2L886,519.7c-0.4,0.6-0.7,1.7-1.1,3.4c-0.9,4.2-1,5.6-1.8,6.4c-0.8,0.8-1.7,2.2-1,2.9c0.1,0.1,0.2,0.3,0.3,0.5
		l12,12l-7.3,7.3l1.5,1.5l10.1-10.1c-2.2-0.5-4.5-3.7-4.5-5.1C894.3,537.3,897,533.3,897.5,531.2z"/>
</g>
<g>
	<path d="M841.9,219.4c0,0.3,80.2,80.9,80.1,81.1l-87.2-87.2l11.8-11.8c-0.2,0.4-0.4,0.7-0.4,1c0,1.1,0.3,1.4,0.3,2
		c0,0.6,0.4,1.5-0.8,2c-1.3,0.6-2.2,1.2-3.3,2.3c-1.1,1.3-2.7,3.4-2.6,4.9c0,1.5,1.1,2.4,1.1,2.7
		C840.8,216.3,841.8,217.8,841.9,219.4C841.8,219.4,841.8,219.4,841.9,219.4z"/>
	<rect x="800" y="209.8" transform="matrix(0.7071 -0.7071 0.7071 0.7071 83.0311 634.2618)" width="14.2" height="14.2"/>
	<rect x="812.9" y="202.8" transform="matrix(0.7071 -0.7071 0.7071 0.7071 90.049 637.1683)" width="2.4" height="14.2"/>
	<path d="M833.5,211.9l11.5-11.5c-0.6-0.4-1.7-0.7-3.4-1.1c-4.2-0.9-5.6-1-6.4-1.8c-0.8-0.8-2.2-1.7-2.9-1c-0.1,0.1-0.3,0.2-0.5,0.3
		l-12,12l-7.3-7.3l-1.5,1.5l10.1,10.1c0.5-2.2,3.7-4.5,5.1-4.5C827.4,208.7,831.3,211.4,833.5,211.9z"/>
</g>
<g>
	<rect x="974.5" y="375.8" transform="matrix(0.7071 -0.7071 0.7071 0.7071 16.7287 806.2606)" width="14.2" height="14.2"/>
	<rect x="987.4" y="368.8" transform="matrix(0.7071 -0.7071 0.7071 0.7071 23.7468 809.1671)" width="2.4" height="14.2"/>
</g>
<g>
	<path d="M830.3,536.8c-0.3,0-80.9-80.2-81.1-80.1l87.2,87.2l11.8-11.8c-0.4,0.2-0.7,0.4-1,0.4c-1.1,0-1.4-0.3-2-0.3
		c-0.6,0-1.5-0.4-2,0.8c-0.6,1.3-1.2,2.2-2.3,3.3c-1.3,1.1-3.4,2.7-4.9,2.6c-1.5,0-2.4-1.1-2.7-1.1
		C833.4,537.8,831.9,536.8,830.3,536.8C830.3,536.8,830.3,536.8,830.3,536.8z"/>
	<path d="M837.8,545.2l11.5-11.5c0.4,0.6,0.7,1.7,1.1,3.4c0.9,4.2,1,5.6,1.8,6.4c0.8,0.8,1.7,2.2,1,2.9c-0.1,0.1-0.2,0.3-0.3,0.5
		l-12,12l7.3,7.3l-1.5,1.5l-10.1-10.1c2.2-0.5,4.5-3.7,4.5-5.1C841,551.2,838.2,547.3,837.8,545.2z"/>
</g>
<g>
	<path d="M876.8,298.9c-0.3,0-80.9-80.2-81.1-80.1l87.2,87.2l11.8-11.8c-0.4,0.2-0.7,0.4-1,0.4c-1.1,0-1.4-0.3-2-0.3
		c-0.6,0-1.5-0.4-2,0.8c-0.6,1.3-1.2,2.2-2.3,3.3c-1.3,1.1-3.4,2.7-4.9,2.6c-1.5,0-2.4-1.1-2.7-1.1C879.9,300,878.4,299,876.8,298.9
		C876.8,299,876.8,298.9,876.8,298.9z"/>
	<rect x="872.2" y="326.5" transform="matrix(0.7071 -0.7071 0.7071 0.7071 21.6085 719.482)" width="14.2" height="14.2"/>
	<rect x="885.1" y="319.5" transform="matrix(0.7071 -0.7071 0.7071 0.7071 28.6255 722.3896)" width="2.4" height="14.2"/>
	<path d="M884.3,307.3l11.5-11.5c0.4,0.6,0.7,1.7,1.1,3.4c0.9,4.2,1,5.6,1.8,6.4c0.8,0.8,1.7,2.2,1,2.9c-0.1,0.1-0.2,0.3-0.3,0.5
		l-12,12l7.3,7.3l-1.5,1.5L883,319.8c2.2-0.5,4.5-3.7,4.5-5.1C887.5,313.4,884.7,309.4,884.3,307.3z"/>
</g>
<path d="M855.7,230.4l31-31c0.1,0.2,0.2,0.3,0.4,0.4c1.7,1.7,3,4.2,2.2,5.9c-0.2,0.3-0.3,0.6-0.8,1.1l-25,25l15.2,15.2l-3.2,3.2
	L855.7,230.4z"/>
<path d="M846.2,411.2l33.9-33.9c1.7-1.7,1.7-4.5,0-6.2c-1.7-1.7-4.5-1.7-6.2,0l-30.8,30.8l-0.4-0.4c1.7-1.9,2.7-4.4,2.7-7.1v-40.2
	c0-6-4.9-10.9-10.9-10.9c-6,0-10.9,4.9-10.9,10.9v28.2l-0.1-0.1v5.5l-10.7-10.7c-0.9-0.9-2.4-0.9-3.3,0c-0.9,0.9-0.9,2.4,0,3.3
	l14,14v0.2l16.5,16.5C841.8,412.9,844.5,412.9,846.2,411.2z"/>
<g>
	<path d="M897.6,369.7c0-0.3-80.2-80.9-80.1-81.1l87.2,87.2l-11.8,11.8c0.2-0.4,0.4-0.7,0.4-1c0-1.1-0.3-1.4-0.3-2
		c0-0.6-0.4-1.5,0.8-2c1.3-0.6,2.2-1.2,3.3-2.3c1.1-1.3,2.7-3.4,2.6-4.9c0-1.5-1.1-2.4-1.1-2.7C898.6,372.8,897.6,371.4,897.6,369.7
		C897.6,369.7,897.6,369.7,897.6,369.7z"/>
	<rect x="925.2" y="365.1" transform="matrix(0.7071 -0.7071 0.7071 0.7071 9.8693 768.2549)" width="14.2" height="14.2"/>
	<rect x="924" y="372.1" transform="matrix(0.7071 -0.7071 0.7071 0.7071 2.8459 765.3367)" width="2.4" height="14.3"/>
	<path d="M906,377.2l-11.5,11.5c0.6,0.4,1.7,0.7,3.4,1.1c4.2,0.9,5.6,1,6.4,1.8c0.8,0.8,2.2,1.7,2.9,1c0.1-0.1,0.3-0.2,0.5-0.3
		l12-12l7.3,7.3l1.5-1.5L918.4,376c-0.5,2.2-3.7,4.5-5.1,4.5C912,380.4,908.1,377.7,906,377.2z"/>
</g>
<path d="M883.7,358.7l-31,31c-0.1-0.2-0.2-0.3-0.4-0.4c-1.7-1.7-3.3-4-2.3-6c0.2-0.5,0.5-0.6,0.9-1.1l25-25L860.7,342l3.2-3.2
	L883.7,358.7z"/>
<path d="M997.3,412l-33.9-33.9c-1.7-1.7-4.5-1.7-6.2,0c-1.7,1.7-1.7,4.5,0,6.2l30.8,30.8l-0.4,0.4c-1.9-1.7-4.4-2.7-7.1-2.7h-40.2
	c-6,0-10.9,4.9-10.9,10.9s4.9,10.9,10.9,10.9h28.2l-0.1,0.1h5.5l-10.7,10.7c-0.9,0.9-0.9,2.4,0,3.3c0.9,0.9,2.4,0.9,3.3,0l14-14h0.2
	l16.5-16.5C999,416.4,999,413.7,997.3,412z"/>
<path d="M944.8,374.5l31,31c-0.2,0.1-0.3,0.2-0.4,0.4c-1.7,1.7-4.5,3-6.1,2.2c-0.3-0.2-0.4-0.3-0.9-0.8l-25-25l-15.2,15.2l-3.2-3.2
	L944.8,374.5z"/>
<path d="M862.2,600.4l-33.9-33.9c-1.7-1.7-1.7-4.5,0-6.2c1.7-1.7,4.5-1.7,6.2,0l30.8,30.8l0.4-0.4c-1.7-1.9-2.7-4.4-2.7-7.1v-40.2
	c0-6,4.9-10.9,10.9-10.9c6,0,10.9,4.9,10.9,10.9v28.2l0.1-0.1v5.5l10.7-10.7c0.9-0.9,2.4-0.9,3.3,0c0.9,0.9,0.9,2.4,0,3.3l-14,14
	v0.2l-16.5,16.5C866.6,602.1,863.9,602.1,862.2,600.4z"/>
<g>
	<g>
		<path d="M1331.3,269.6C1141-100.9,1504.3,98.1,1504.7,98.3l-186.5,186.5l-25.2-25.2c0.7,0.5,1.5,0.8,2.1,0.8c2.4,0,3-0.6,4.3-0.6
			c1.2,0,3.2-0.9,4.3,1.6c1.2,2.7,2.6,4.8,4.9,7.1c2.8,2.3,7.4,5.7,10.5,5.7c3.2,0,5.1-2.3,5.7-2.3
			C1324.8,271.9,1327.8,269.7,1331.3,269.6C1331.3,269.7,1331.3,269.7,1331.3,269.6z"/>
		<rect x="1310.8" y="328.6" transform="matrix(0.7071 -0.7071 0.7071 0.7071 145.2427 1038.324)" width="30.5" height="30.5"/>
		<rect x="1295.8" y="326.3" transform="matrix(0.7067 -0.7075 0.7075 0.7067 151.8189 1024.0048)" width="30.5" height="5.2"/>
		<path d="M1315.3,287.6l-24.7-24.7c-0.8,1.4-1.6,3.7-2.3,7.3c-1.9,9.1-2,12-3.8,13.7c-1.7,1.7-3.6,4.6-2.1,6.2
			c0.3,0.3,0.5,0.7,0.6,1.1l25.7,25.7l-15.7,15.7l3.2,3.2l21.6-21.6c-4.7-1-9.5-8-9.5-10.8C1308.4,300.5,1314.3,292.1,1315.3,287.6z
			"/>
	</g>
	<path d="M954.8,0.5l368.1,368.1c-1.8,1.4-3.6,2.9-5.2,4.5c-19.7,19.7-52.1,37.6-72.6,25.7c-3.6-2.1-5.8-4.4-11.2-9L937.1,93.1
		l-181,181l-37.5-37.5L954.8,0.5z"/>
</g>
<path d="M1180.9,601.4l-115.1-115.1c0.6-0.4,1.1-0.9,1.6-1.4c6.2-6.2,15.4-11.3,22.4-7.8c1.4,0.7,2.1,1,3.8,2.6l92.8,92.8l56.6-56.6
	l11.7,11.7L1180.9,601.4z"/>
<path d="M1711.9,336.4L1407.4,641c-1.2-1.5-2.4-3-3.7-4.3c-16.3-16.3-31.9-39.6-22.5-59.8c1.5-3.1,4.8-5.4,8.7-9.6l245.4-245.5
	L1003,82.1l513.5,58.9L1711.9,336.4z"/>
<path d="M962.2,456.8l31,31c0.1-0.2,0.2-0.3,0.4-0.4c1.7-1.7,3-4.1,2.1-6.1c-0.1-0.3-0.3-0.5-0.7-0.9l-25-25l15.2-15.2l-3.2-3.2
	L962.2,456.8z"/>
<rect x="931.1" y="229.5" transform="matrix(0.7071 -0.7071 0.7071 0.7071 164.7966 865.0491)" width="391" height="8.2"/>
<rect x="936.4" y="236.2" transform="matrix(0.7071 -0.7071 0.7071 0.7071 162.5924 870.3548)" width="391" height="5.3"/>
<g>
	<rect x="738.8" y="462" transform="matrix(0.7071 -0.7071 0.7071 0.7071 -114.2607 667.2779)" width="19.1" height="19.1"/>
	<rect x="737.3" y="471.4" transform="matrix(0.707 -0.7072 0.7072 0.707 -123.6289 663.5093)" width="3.3" height="19.1"/>
</g>
</svg>
