<?xml version="1.0" encoding="utf-8"?>
<!-- Generator: Adobe Illustrator 19.2.1, SVG Export Plug-In . SVG Version: 6.00 Build 0)  -->
<!DOCTYPE svg PUBLIC "-//W3C//DTD SVG 1.1//EN" "http://www.w3.org/Graphics/SVG/1.1/DTD/svg11.dtd">
<svg version="1.1" id="Layer_1" xmlns="http://www.w3.org/2000/svg" xmlns:xlink="http://www.w3.org/1999/xlink" x="0px" y="0px"
	 viewBox="0 0 595.3 841.9" style="enable-background:new 0 0 595.3 841.9;" xml:space="preserve">
<style type="text/css">
	.st0{fill:#D5DF30;}
	.st1{fill:#FFFFFF;}
	.st2{fill:none;}
</style>
<rect x="-305.6" y="-25.2" class="st0" width="1390.5" height="1050.3"/>
<g>
	
		<rect x="373.4" y="205.3" transform="matrix(0.7071 -0.7071 0.7071 0.7071 -42.7357 340.9342)" class="st1" width="33.5" height="33.5"/>
	
		<rect x="356.9" y="202.7" transform="matrix(0.7071 -0.7071 0.7071 0.7071 -35.923 324.4232)" class="st1" width="33.5" height="5.7"/>
</g>
<path class="st1" d="M441.9,292.1l39.2,39.2h0.4l33.3,33.3c2.2,2.2,5.7,2.2,7.9,0c2.2-2.2,2.2-5.7,0-7.9l-25.4-25.4h13.2l-0.2-0.2
	h67.1c14.3,0,25.9-11.6,25.9-25.9c0-14.3-11.6-25.9-25.9-25.9l-95.6,0c-6.5,0-12.4,2.4-16.9,6.3l-0.9-0.9l73.4-73.4
	c4.1-4,4.1-10.6,0-14.7c-4-4.1-10.6-4.1-14.7,0l-80.7,80.7C437.9,281.6,437.9,288.1,441.9,292.1z"/>
<path class="st1" d="M733.6,176l-21.1,21.1L610.4,95L443.1,262.3c-3.1,2.9-4.3,3.4-6.8,4.7c-12.7,6.3-29.3-3-40.5-14.1
	c-0.9-0.9-1.9-1.8-2.9-2.5L600.4,42.8L733.6,176z"/>
<g>
	<path class="st1" d="M398.7,140.1c0-10.8,6.8-20.3,6.8-20.3c0-2,7.2-7.9,7.2-17.8c0-9.9-10.5-24-17.7-32.8
		c-7.2-7.2-13.7-11.6-22.1-15.3c-8-3.4-5-9.7-5-13.5c0-3.8,1.9-5.9,1.9-13.2c0-1.9-1-4.1-2.5-6.5l78.5,78.5l-581.2,581.2
		c-0.7-1.3,534.1-538.2,533.9-540.2C398.5,140.2,398.6,140.2,398.7,140.1z"/>
	<path class="st1" d="M503.5,68.9c8.9,0,30.7,15.2,33.7,29.7l67.4-67.4l-10.1-10.1L545.6,70l-80.1-80.1c-1.5-0.5-2.7-1.1-3.5-1.9
		c-4.8-4.8-13.8,1.1-19.2,6.4c-5.3,5.3-14.4,5.9-42.6,11.7c-11.3,2.4-18.6,4.6-22.9,7.2l77,77C468.5,87.2,494.8,68.9,503.5,68.9z"/>
</g>
<path class="st2" d="M521.4,149.7l0.3,1.1C521.7,150.8,521.7,150.3,521.4,149.7z"/>
<path d="M278.5,47.7L262,64.2v0.2l-14,14c-0.9,0.9-0.9,2.4,0,3.3c0.9,0.9,2.4,0.9,3.3,0L262,71v5.5l0.1-0.1v28.2
	c0,6,4.9,10.9,10.9,10.9c6,0,10.9-4.9,10.9-10.9V64.5c0-2.7-1-5.2-2.7-7.1l0.4-0.4l30.8,30.8c1.7,1.7,4.5,1.7,6.2,0
	c1.7-1.7,1.7-4.5,0-6.2l-33.9-33.9C282.9,46.1,280.2,46,278.5,47.7z"/>
<g>
	<path d="M358.2,110c0,1.6-1,3.1-1,3.1c0,0.3-1.1,1.2-1.1,2.7c0,1.5,1.6,3.6,2.6,4.9c1.1,1.1,2.1,1.7,3.3,2.3c1.2,0.5,0.8,1.5,0.8,2
		c0,0.6-0.3,0.9-0.3,2c0,0.3,0.1,0.6,0.4,1l-11.8-11.8l87.2-87.2C438.4,29.1,358.2,109.7,358.2,110C358.2,110,358.2,110,358.2,110z"
		/>
	<rect x="316.4" y="105.4" transform="matrix(0.7071 -0.7071 0.7071 0.7071 15.217 261.6871)" width="14.2" height="14.2"/>
	<rect x="323.4" y="118.3" transform="matrix(0.7071 -0.7071 0.7071 0.7071 12.3039 268.699)" width="14.2" height="2.4"/>
	<path d="M342.4,120.7c-1.3,0-4.6-2.3-5.1-4.5l-10.1,10.1l1.5,1.5l7.3-7.3l12,12c0.2,0.1,0.4,0.2,0.5,0.3c0.7,0.7,2.1-0.2,2.9-1
		c0.8-0.8,2.2-0.9,6.4-1.8c1.7-0.4,2.8-0.7,3.4-1.1l-11.5-11.6C347.7,117.9,343.8,120.7,342.4,120.7z"/>
</g>
<path d="M302.3,120.1l-3.2-3.2l15.2-15.2l-25-25c-0.4-0.6-0.7-0.8-0.9-1.1c-1.1-1.7,0.6-4.3,2.3-6c0.1-0.1,0.3-0.3,0.4-0.4l31,31
	L302.3,120.1z"/>
<path d="M274.7,155.5l16.5-16.5h0.2l14-14c0.9-0.9,2.4-0.9,3.3,0c0.9,0.9,0.9,2.4,0,3.3L298,139h5.5l-0.1,0.1h28.2
	c6,0,10.9,4.9,10.9,10.9s-4.9,10.9-10.9,10.9l-40.2,0c-2.7,0-5.2-1-7.1-2.7l-0.4,0.4l30.8,30.8c1.7,1.7,1.7,4.5,0,6.2
	c-1.7,1.7-4.5,1.7-6.2,0l-33.9-33.9C273.1,159.9,273.1,157.2,274.7,155.5z"/>
<path d="M414.9,10.4l-3.2,3.2l15.2,15.2l-25,25c-0.4,0.4-0.6,0.7-0.7,1c-0.9,1.5,0.5,4.4,2.1,6.1c0.1,0.1,0.3,0.3,0.4,0.4l31-31
	L414.9,10.4z"/>
<g>
	<path d="M548.3,38.7l-16.5-16.5h-0.2l-14-14c-0.9-0.9-2.4-0.9-3.3,0c-0.9,0.9-0.9,2.4,0,3.3L525,22.2h-5.5l0.1,0.1h-28.2
		c-6,0-10.9,4.9-10.9,10.9s4.9,10.9,10.9,10.9h40.2c2.7,0,5.2-1,7.1-2.7l0.4,0.4l-30.8,30.8c-1.7,1.7-1.7,4.5,0,6.2
		c1.7,1.7,4.5,1.7,6.2,0l33.9-33.9C550,43.1,550,40.4,548.3,38.7z"/>
	<g>
		<path d="M486,118.4c-1.6,0-3.1-1-3.1-1c-0.3,0-1.2-1.1-2.7-1.1c-1.5,0-3.6,1.6-4.9,2.7c-1.1,1.1-1.7,2.1-2.3,3.3
			c-0.5,1.2-1.5,0.8-2,0.8c-0.6,0-0.9-0.3-2-0.3c-0.3,0-0.6,0.1-1,0.4l11.8-11.8l87.2,87.2C566.9,198.7,486.4,118.4,486,118.4
			C486.1,118.4,486,118.4,486,118.4z"/>
		<rect x="476.4" y="76.6" transform="matrix(0.7071 -0.7071 0.7071 0.7071 82.4201 366.4578)" width="14.2" height="14.2"/>
		<rect x="475.3" y="83.6" transform="matrix(0.7071 -0.7071 0.7071 0.7071 75.4042 363.5492)" width="2.4" height="14.3"/>
		<path d="M475.4,102.7c0-1.3,2.3-4.6,4.5-5.1l-10.1-10.1l-1.5,1.5l7.3,7.3l-12,12c-0.1,0.2-0.2,0.4-0.3,0.5c-0.7,0.7,0.2,2.1,1,2.9
			c0.8,0.8,0.9,2.2,1.8,6.4c0.4,1.7,0.7,2.8,1.1,3.4l11.5-11.6C478.1,108,475.4,104,475.4,102.7z"/>
	</g>
	<g>
		<path d="M506.8,96.3c1.6,0,3.1,1,3.1,1c0.3,0,1.2,1.1,2.7,1.1c1.5,0,3.6-1.6,4.9-2.7c1.1-1.1,1.7-2.1,2.3-3.3
			c0.5-1.2,1.5-0.8,2-0.8c0.6,0,0.9,0.3,2,0.3c0.3,0,0.6-0.1,1-0.4L513,103.3l-87.2-87.2C426,16,506.5,96.3,506.8,96.3
			C506.8,96.2,506.8,96.3,506.8,96.3z"/>
		<rect x="502.2" y="123.8" transform="matrix(0.7071 -0.7071 0.7071 0.7071 56.5711 398.5018)" width="14.2" height="14.2"/>
		<rect x="515.1" y="116.8" transform="matrix(0.7071 -0.7071 0.7071 0.7071 63.5957 401.3993)" width="2.4" height="14.2"/>
		<path d="M517.5,112c0,1.3-2.3,4.6-4.5,5.1l10.1,10.1l1.5-1.5l-7.3-7.3l12-12c0.1-0.2,0.2-0.4,0.3-0.5c0.7-0.7-0.2-2.1-1-2.9
			c-0.8-0.8-0.9-2.2-1.8-6.4c-0.4-1.7-0.7-2.8-1.1-3.4l-11.5,11.5C514.8,106.7,517.5,110.7,517.5,112z"/>
	</g>
	<path d="M475.9,62.5l3.2-3.2l15.2,15.2l25-25c0.5-0.5,0.7-0.6,1-0.7c1.9-1,4.4,0.5,6,2.1c0.1,0.1,0.3,0.3,0.4,0.4l-31,31
		L475.9,62.5z"/>
	<path d="M440.6,35L457,51.5v0.2l14,14c0.9,0.9,0.9,2.4,0,3.3c-0.9,0.9-2.4,0.9-3.3,0L457,58.3v5.5l-0.1-0.1v28.2
		c0,6-4.9,10.9-10.9,10.9c-6,0-10.9-4.9-10.9-10.9V51.8c0-2.7,1-5.2,2.7-7.1l-0.4-0.4l-30.8,30.8c-1.7,1.7-4.5,1.7-6.2,0
		c-1.7-1.7-1.7-4.5,0-6.2L434.4,35C436.1,33.3,438.8,33.3,440.6,35z"/>
	<path d="M587.8,176.8l-3.2-3.2l-15.2,15.2l-25-25c-0.5-0.4-0.7-0.6-1-0.7c-1.8-0.9-4.4,0.5-6.1,2.1c-0.1,0.1-0.3,0.3-0.4,0.4l31,31
		L587.8,176.8z"/>
</g>
<g>
	<path class="st1" d="M1045.4,103.4l-16.5-16.5h-0.2l-14-14c-0.9-0.9-2.4-0.9-3.3,0c-0.9,0.9-0.9,2.4,0,3.3l10.7,10.7h-5.5l0.1,0.1
		h-28.2c-6,0-10.9,4.9-10.9,10.9s4.9,10.9,10.9,10.9l40.2,0c2.7,0,5.2-1,7.1-2.7l0.4,0.4l-30.8,30.8c-1.7,1.7-1.7,4.5,0,6.2
		c1.7,1.7,4.5,1.7,6.2,0l33.9-33.9C1047,107.9,1047,105.1,1045.4,103.4z"/>
	<g>
		<path class="st1" d="M983.1,183.1c-1.6,0-3.1-1-3.1-1c-0.3,0-1.2-1.1-2.7-1.1c-1.5,0-3.6,1.6-4.9,2.7c-1.1,1.1-1.7,2.1-2.3,3.3
			c-0.5,1.2-1.5,0.8-2,0.8s-0.9-0.3-2-0.3c-0.3,0-0.6,0.1-1,0.4l11.8-11.8l87.2,87.2C1064,263.4,983.4,183.1,983.1,183.1
			C983.1,183.2,983.1,183.1,983.1,183.1z"/>
		
			<rect x="973.5" y="141.3" transform="matrix(0.7071 -0.7071 0.7071 0.7071 182.2557 736.8838)" class="st1" width="14.2" height="14.2"/>
		
			<rect x="972.4" y="148.3" transform="matrix(0.7071 -0.7071 0.7071 0.7071 175.2467 733.9625)" class="st1" width="2.4" height="14.3"/>
		<path class="st1" d="M972.4,167.4c0-1.3,2.3-4.6,4.5-5.1l-10.1-10.1l-1.5,1.5l7.3,7.3l-12,12c-0.1,0.2-0.2,0.4-0.3,0.5
			c-0.7,0.7,0.2,2.1,1,2.9c0.8,0.8,0.9,2.2,1.8,6.4c0.4,1.7,0.7,2.8,1.1,3.4l11.5-11.6C975.2,172.7,972.4,168.7,972.4,167.4z"/>
	</g>
	<g>
		<path class="st1" d="M1003.9,161c1.6,0,3.1,1,3.1,1c0.3,0,1.2,1.1,2.7,1.1c1.5,0,3.6-1.6,4.9-2.7c1.1-1.1,1.7-2.1,2.3-3.3
			c0.5-1.2,1.5-0.8,2-0.8c0.6,0,0.9,0.3,2,0.3c0.3,0,0.6-0.1,1-0.4L1010,168l-87.2-87.2C923,80.7,1003.6,161,1003.9,161
			C1003.9,161,1003.9,161,1003.9,161z"/>
		
			<rect x="999.2" y="188.5" transform="matrix(0.7071 -0.7071 0.7071 0.7071 156.4006 768.9237)" class="st1" width="14.2" height="14.2"/>
		
			<rect x="1012.2" y="181.5" transform="matrix(0.7071 -0.7071 0.7071 0.7071 163.4151 771.8344)" class="st1" width="2.4" height="14.2"/>
		<path class="st1" d="M1014.6,176.7c0,1.3-2.3,4.6-4.5,5.1l10.1,10.1l1.5-1.5l-7.3-7.3l12-12c0.1-0.2,0.2-0.4,0.3-0.5
			c0.7-0.7-0.2-2.1-1-2.9c-0.8-0.8-0.9-2.2-1.8-6.4c-0.4-1.7-0.7-2.8-1.1-3.4l-11.5,11.5C1011.8,171.5,1014.6,175.4,1014.6,176.7z"
			/>
	</g>
	<path class="st1" d="M973,127.2l3.2-3.2l15.2,15.2l25-25c0.5-0.5,0.7-0.6,1-0.7c1.9-1,4.4,0.5,6,2.1c0.1,0.1,0.3,0.3,0.4,0.4
		l-31,31L973,127.2z"/>
	<path class="st1" d="M937.6,99.7l16.5,16.5v0.2l14,14c0.9,0.9,0.9,2.4,0,3.3c-0.9,0.9-2.4,0.9-3.3,0L954.1,123v5.5l-0.1-0.1v28.2
		c0,6-4.9,10.9-10.9,10.9c-6,0-10.9-4.9-10.9-10.9v-40.2c0-2.7,1-5.2,2.7-7.1l-0.4-0.4l-30.8,30.8c-1.7,1.7-4.5,1.7-6.2,0
		c-1.7-1.7-1.7-4.5,0-6.2l33.9-33.9C933.2,98,935.9,98,937.6,99.7z"/>
	<path class="st1" d="M1084.9,241.6l-3.2-3.2l-15.2,15.2l-25-25c-0.5-0.4-0.7-0.6-1-0.7c-1.8-0.9-4.4,0.5-6.1,2.1
		c-0.1,0.1-0.3,0.3-0.4,0.4l31,31L1084.9,241.6z"/>
</g>
<path d="M313.2,596.3l16.5-16.5v-0.2l14-14c0.9-0.9,0.9-2.4,0-3.3c-0.9-0.9-2.4-0.9-3.3,0L329.7,573v-5.5l-0.1,0.1v-28.2
	c0-6-4.9-10.9-10.9-10.9s-10.9,4.9-10.9,10.9v40.2c0,2.7,1,5.2,2.7,7.1l-0.4,0.4l-30.8-30.8c-1.7-1.7-4.5-1.7-6.2,0
	c-1.7,1.7-1.7,4.5,0,6.2l33.9,33.9C308.8,598,311.5,598,313.2,596.3z"/>
<g>
	<path d="M318.8,251.3c-1.6,0-3.1-1-3.1-1c-0.3,0-1.2-1.1-2.7-1.1c-1.5,0-3.6,1.6-4.9,2.7c-1.1,1.1-1.7,2-2.3,3.3
		c-0.5,1.2-1.5,0.8-2,0.8c-0.6,0-0.9-0.3-2-0.3c-0.3,0-0.6,0.1-1,0.4l11.8-11.8l87.2,87.2C399.7,331.6,319.1,251.3,318.8,251.3
		C318.8,251.3,318.8,251.3,318.8,251.3z"/>
	<rect x="309.2" y="209.5" transform="matrix(0.7071 -0.7071 0.7071 0.7071 -60.5341 287.1373)" width="14.2" height="14.2"/>
	<rect x="308.1" y="216.5" transform="matrix(0.7071 -0.7071 0.7071 0.7071 -67.542 284.224)" width="2.4" height="14.2"/>
	<path d="M308.1,235.6c0-1.3,2.3-4.6,4.5-5.1l-10.1-10.1l-1.5,1.5l7.3,7.3l-12,12c-0.1,0.2-0.2,0.4-0.3,0.5c-0.7,0.7,0.2,2.1,1,2.9
		c0.8,0.8,0.9,2.2,1.8,6.4c0.4,1.7,0.7,2.8,1.1,3.4l11.5-11.6C310.9,240.9,308.1,236.9,308.1,235.6z"/>
</g>
<g>
	<path d="M255.7,554.8c0,1.6-1,3.1-1,3.1c0,0.3-1.1,1.2-1.1,2.7c0,1.5,1.6,3.6,2.6,4.9c1.1,1.1,2.1,1.7,3.3,2.3
		c1.2,0.5,0.8,1.5,0.8,2c0,0.6-0.3,0.9-0.3,2c0,0.3,0.1,0.6,0.4,1L248.6,561l87.2-87.2C335.9,473.9,255.7,554.5,255.7,554.8
		C255.7,554.8,255.7,554.8,255.7,554.8z"/>
	<rect x="213.8" y="550.2" transform="matrix(0.7071 -0.7071 0.7071 0.7071 -329.3459 319.4804)" width="14.2" height="14.2"/>
	<rect x="220.9" y="563.1" transform="matrix(0.7071 -0.7071 0.7071 0.7071 -332.253 326.4981)" width="14.2" height="2.4"/>
	<path d="M239.9,565.5c-1.3,0-4.6-2.3-5.1-4.5l-10.1,10.1l1.5,1.5l7.3-7.3l12,12c0.2,0.1,0.4,0.2,0.5,0.3c0.7,0.7,2.1-0.2,2.9-1
		c0.8-0.8,2.2-0.9,6.4-1.8c1.7-0.4,2.8-0.7,3.4-1.1l-11.5-11.5C245.2,562.8,241.2,565.5,239.9,565.5z"/>
</g>
<g>
	<rect x="388.3" y="384.1" transform="matrix(0.7071 -0.7071 0.7071 0.7071 -160.8414 394.2191)" width="14.2" height="14.2"/>
	<rect x="395.3" y="397.1" transform="matrix(0.7071 -0.7071 0.7071 0.7071 -163.7488 401.2368)" width="14.2" height="2.4"/>
</g>
<g>
	<path d="M244.1,237.4c1.6,0,3.1-1,3.1-1c0.3,0,1.2-1.1,2.7-1.1c1.5,0,3.6,1.6,4.9,2.6c1.1,1.1,1.7,2.1,2.3,3.3
		c0.5,1.2,1.5,0.8,2,0.8c0.6,0,0.9-0.3,2-0.3c0.3,0,0.6,0.1,1,0.4l-11.8-11.8l-87.2,87.2C163.2,317.6,243.8,237.4,244.1,237.4
		C244.1,237.4,244.1,237.4,244.1,237.4z"/>
	<path d="M254.8,221.6c0-1.3-2.3-4.6-4.5-5.1l10.1-10.1l1.5,1.5l-7.3,7.3l12,12c0.1,0.2,0.2,0.4,0.3,0.5c0.7,0.7-0.2,2.1-1,2.9
		c-0.8,0.8-0.9,2.2-1.8,6.4c-0.4,1.7-0.7,2.8-1.1,3.4L251.6,229C252.1,226.9,254.8,223,254.8,221.6z"/>
</g>
<g>
	<path d="M290.6,475.2c1.6,0,3.1-1,3.1-1c0.3,0,1.2-1.1,2.7-1.1c1.5,0,3.6,1.6,4.9,2.6c1.1,1.1,1.7,2.1,2.3,3.3
		c0.5,1.2,1.5,0.8,2,0.8c0.6,0,0.9-0.3,2-0.3c0.3,0,0.6,0.1,1,0.4l-11.8-11.8l-87.2,87.2C209.8,555.5,290.3,475.2,290.6,475.2
		C290.6,475.3,290.6,475.2,290.6,475.2z"/>
	<rect x="286" y="433.4" transform="matrix(0.7071 -0.7071 0.7071 0.7071 -225.6537 336.3079)" width="14.2" height="14.2"/>
	<rect x="293" y="446.3" transform="matrix(0.7071 -0.7071 0.7071 0.7071 -228.5596 343.3257)" width="14.2" height="2.4"/>
	<path d="M301.3,459.5c0-1.3-2.3-4.6-4.5-5.1l10.1-10.1l1.5,1.5l-7.3,7.3l12,12c0.1,0.2,0.2,0.4,0.3,0.5c0.7,0.7-0.2,2.1-1,2.9
		c-0.8,0.8-0.9,2.2-1.8,6.4c-0.4,1.7-0.7,2.8-1.1,3.4l-11.5-11.5C298.6,464.8,301.3,460.8,301.3,459.5z"/>
</g>
<path d="M289.4,523.9l3.2,3.2l-15.2,15.2l25,25c0.5,0.6,0.6,0.8,0.8,1.1c0.8,1.7-0.5,4.3-2.2,5.9c-0.1,0.1-0.3,0.3-0.4,0.4l-31-31
	L289.4,523.9z"/>
<path d="M253.9,363l-16.5,16.5v0.2l-14,14c-0.9,0.9-0.9,2.4,0,3.3c0.9,0.9,2.4,0.9,3.3,0l10.7-10.7v5.5l0.1-0.1v28.2
	c0,6,4.9,10.9,10.9,10.9s10.9-4.9,10.9-10.9v-40.2c0-2.7-1-5.2-2.7-7.1l0.4-0.4l30.8,30.8c1.7,1.7,4.5,1.7,6.2,0
	c1.7-1.7,1.7-4.5,0-6.2L260,363C258.3,361.3,255.6,361.3,253.9,363z"/>
<g>
	<path d="M311.4,404.5c0-1.6,1-3.1,1-3.1c0-0.3,1.1-1.2,1.1-2.7c0-1.5-1.6-3.6-2.6-4.9c-1.1-1.1-2.1-1.7-3.3-2.3
		c-1.2-0.5-0.8-1.5-0.8-2c0-0.6,0.3-0.9,0.3-2c0-0.3-0.1-0.6-0.4-1l11.8,11.8l-87.2,87.2C231.2,485.4,311.5,404.8,311.4,404.5
		C311.4,404.5,311.4,404.5,311.4,404.5z"/>
	<rect x="339" y="394.9" transform="matrix(0.7071 -0.7071 0.7071 0.7071 -182.8652 362.4947)" width="14.2" height="14.2"/>
	<rect x="332" y="393.7" transform="matrix(0.7071 -0.7071 0.7071 0.7071 -179.9624 355.4649)" width="14.3" height="2.4"/>
	<path d="M327.2,393.8c1.3,0,4.6,2.3,5.1,4.5l10.1-10.1l-1.5-1.5l-7.3,7.3l-12-12c-0.2-0.1-0.4-0.2-0.5-0.3c-0.7-0.7-2.1,0.2-2.9,1
		c-0.8,0.8-2.2,0.9-6.4,1.8c-1.7,0.4-2.8,0.7-3.4,1.1l11.5,11.5C321.9,396.5,325.9,393.8,327.2,393.8z"/>
</g>
<path d="M277.7,435.4l-3.2-3.2l15.2-15.2l-25-25c-0.4-0.5-0.7-0.6-0.9-1.1c-1-2,0.6-4.3,2.3-6c0.1-0.1,0.3-0.3,0.4-0.4l31,31
	L277.7,435.4z"/>
<path d="M411.1,356l-16.5-16.5h-0.2l-14-14c-0.9-0.9-2.4-0.9-3.3,0c-0.9,0.9-0.9,2.4,0,3.3l10.7,10.7h-5.5l0.1,0.1h-28.2
	c-6,0-10.9,4.9-10.9,10.9s4.9,10.9,10.9,10.9h40.2c2.7,0,5.2-1,7.1-2.7l0.4,0.4L371,389.9c-1.7,1.7-1.7,4.5,0,6.2
	c1.7,1.7,4.5,1.7,6.2,0l33.9-33.9C412.8,360.5,412.8,357.8,411.1,356z"/>
<path d="M338.7,379.9l3.2-3.2l15.2,15.2l25-25c0.5-0.5,0.6-0.6,0.9-0.8c1.6-0.8,4.5,0.5,6.1,2.2c0.1,0.1,0.3,0.3,0.4,0.4l-31,31
	L338.7,379.9z"/>
<path d="M282.2,173.8l16.5,16.5v0.2l14,14c0.9,0.9,0.9,2.4,0,3.3c-0.9,0.9-2.4,0.9-3.3,0l-10.7-10.7v5.5l-0.1-0.1v28.2
	c0,6-4.9,10.9-10.9,10.9c-6,0-10.9-4.9-10.9-10.9v-40.2c0-2.7,1-5.2,2.7-7.1l-0.4-0.4l-30.8,30.8c-1.7,1.7-4.5,1.7-6.2,0
	c-1.7-1.7-1.7-4.5,0-6.2l33.9-33.9C277.7,172.1,280.5,172.1,282.2,173.8z"/>
<g>
	<g>
		<path d="M307.1,764.1c-3.5,0-6.5-2.2-6.5-2.2c-0.6,0-2.5-2.3-5.7-2.3c-3.2,0-7.7,3.4-10.5,5.7c-2.3,2.3-3.7,4.4-4.9,7.1
			c-1.1,2.6-3.1,1.6-4.3,1.6c-1.2,0-1.9-0.6-4.3-0.6c-0.6,0-1.3,0.3-2.1,0.8L294,749l186.5,186.5
			C480.1,935.7,116.8,1134.8,307.1,764.1C307.1,764.2,307.1,764.2,307.1,764.1z"/>
		<rect x="286.5" y="674.8" transform="matrix(0.7071 -0.7071 0.7071 0.7071 -399.5086 415.4865)" width="30.5" height="30.5"/>
		<rect x="284.2" y="689.7" transform="matrix(0.7075 -0.7067 0.7067 0.7075 -414.3023 408.8731)" width="5.2" height="30.5"/>
		<path d="M284.2,730.5c0-2.9,4.9-9.9,9.5-10.8L272.2,698l-3.2,3.2l15.7,15.7l-25.7,25.7c-0.1,0.5-0.4,0.9-0.6,1.1
			c-1.5,1.5,0.3,4.4,2.1,6.2c1.7,1.7,1.9,4.6,3.8,13.7c0.8,3.6,1.5,6,2.3,7.3l24.7-24.7C290.1,741.7,284.2,733.3,284.2,730.5z"/>
	</g>
	<path d="M-305.6,797.2l37.5-37.5l181,181l296.6-296.6c5.4-4.6,7.6-6.9,11.2-9c20.6-12,52.9,6,72.6,25.7c1.6,1.6,3.4,3.1,5.2,4.5
		l-368.1,368.1L-305.6,797.2z"/>
</g>
<path d="M668.6,246.7l-11.7,11.7l-56.6-56.6l-92.8,92.8c-1.7,1.6-2.4,1.9-3.8,2.6c-7,3.5-16.3-1.6-22.4-7.8c-0.5-0.5-1.1-1-1.6-1.4
	l115.1-115.1L668.6,246.7z"/>
<path d="M492.3,892.8l-513.5,58.9L611.1,712L365.7,466.5c-3.9-4.2-7.3-6.5-8.7-9.6c-9.4-20.2,6.2-43.5,22.5-59.8
	c1.3-1.3,2.6-2.8,3.7-4.3l304.6,304.6L492.3,892.8z"/>
<path d="M395.9,337.2l3.2-3.2l-15.2-15.2l25-25c0.4-0.4,0.6-0.6,0.7-0.9c0.9-2-0.5-4.5-2.1-6.1c-0.1-0.1-0.3-0.3-0.4-0.4l-31,31
	L395.9,337.2z"/>
<rect x="536.4" y="345.1" transform="matrix(0.7071 -0.7071 0.7071 0.7071 -223.9715 540.4886)" width="8.2" height="391"/>
<rect x="543.1" y="339.8" transform="matrix(0.7071 -0.7071 0.7071 0.7071 -218.6612 542.6817)" width="5.3" height="391"/>
<g>
	<rect x="152.6" y="293.1" transform="matrix(0.7071 -0.7071 0.7071 0.7071 -166.4936 203.32)" width="19.1" height="19.1"/>
	<rect x="143.2" y="291.6" transform="matrix(0.7072 -0.707 0.707 0.7072 -162.588 193.8819)" width="19.1" height="3.3"/>
</g>
</svg>
