<?xml version="1.0" encoding="utf-8"?>
<!-- Generator: Adobe Illustrator 18.1.1, SVG Export Plug-In . SVG Version: 6.00 Build 0)  -->
<!DOCTYPE svg PUBLIC "-//W3C//DTD SVG 1.1//EN" "http://www.w3.org/Graphics/SVG/1.1/DTD/svg11.dtd">
<svg version="1.1" id="Layer_1" xmlns="http://www.w3.org/2000/svg" xmlns:xlink="http://www.w3.org/1999/xlink" x="0px" y="0px"
	 viewBox="0 0 110 110" style="enable-background:new 0 0 110 110;" xml:space="preserve">
<style type="text/css">
	.st0{fill:#FFFFFF;stroke:#EE3A39;stroke-width:3;stroke-linecap:round;stroke-miterlimit:10;}
	.st1{fill:#EE3A39;}
	.st2{fill:none;stroke:#EE3A39;stroke-width:3;stroke-linecap:round;stroke-miterlimit:10;}
</style>
<path class="st0" d="M64,74.7H13.2c-3.3,0-6-2.7-6-6V22.4c0-3.3,2.7-6,6-6h84c3.3,0,6,2.7,6,6v46.3c0,3.3-2.7,6-6,6h-2.8"/>
<path class="st0" d="M90.9,96.7H67.6c-1.7,0-3-1.4-3-3V50.1c0-1.7,1.3-3,3-3h23.3c1.6,0,3,1.3,3,3v43.6
	C93.9,95.3,92.6,96.7,90.9,96.7z"/>
<rect x="44.3" y="74.7" class="st1" width="20.5" height="9"/>
<line class="st2" x1="26" y1="84.5" x2="64" y2="84.5"/>
<circle class="st1" cx="79.1" cy="90.2" r="1.9"/>
</svg>
